<svg xmlns="http://www.w3.org/2000/svg" xmlns:xlink="http://www.w3.org/1999/xlink" xmlns:lucid="lucid" width="1326.81" height="1713.65"><g transform="translate(-705.4252050355035 -114.48996478135624)" lucid:page-tab-id="0_0"><path d="M725.42 244.94a6 6 0 0 1 6-6H888.3a6 6 0 0 1 6 6v35.34a6 6 0 0 1-6 6H731.4a6 6 0 0 1-6-6z" fill="none"/><use xlink:href="#a" transform="matrix(1,0,0,1,730.4252050355035,243.9390186916283) translate(0 25.22222222222222)"/><use xlink:href="#b" transform="matrix(1,0,0,1,730.4252050355035,243.9390186916283) translate(41.48148148148148 25.22222222222222)"/><path d="M1373.47 244.94a6 6 0 0 1 6-6h103.27a6 6 0 0 1 6 6v35.34a6 6 0 0 1-6 6h-103.27a6 6 0 0 1-6-6z" fill="none"/><use xlink:href="#a" transform="matrix(1,0,0,1,1378.4746392547124,243.9390186916283) translate(0 25.22222222222222)"/><use xlink:href="#c" transform="matrix(1,0,0,1,1378.4746392547124,243.9390186916283) translate(41.48148148148148 25.22222222222222)"/><path d="M904.7 517a6 6 0 0 1 6-6h254.72a6 6 0 0 1 6 6v38.16a6 6 0 0 1-6 6H910.7a6 6 0 0 1-6-6z" stroke="#3a414a" stroke-width="3" fill="#fff"/><use xlink:href="#d" transform="matrix(1,0,0,1,918.0380977495136,513.502302236388) translate(3.8611111111111143 29.425)"/><use xlink:href="#e" transform="matrix(1,0,0,1,918.0380977495136,513.502302236388) translate(135.23333333333332 29.425)"/><use xlink:href="#f" transform="matrix(1,0,0,1,918.0380977495136,513.502302236388) translate(222.69444444444443 29.425)"/><path d="M774.26 306.8a6 6 0 0 1 6-6h245.83a6 6 0 0 1 6 6v38.17a6 6 0 0 1-6 6H780.25a6 6 0 0 1-6-6z" stroke="#3a414a" stroke-width="3" fill="#fff"/><use xlink:href="#g" transform="matrix(1,0,0,1,787.1537540372269,303.31392678340745) translate(40.883333333333354 29.425)"/><use xlink:href="#h" transform="matrix(1,0,0,1,787.1537540372269,303.31392678340745) translate(98.44444444444446 29.425)"/><path d="M1420.53 306.8a6 6 0 0 1 6-6h245.83a6 6 0 0 1 6 6v38.17a6 6 0 0 1-6 6h-245.83a6 6 0 0 1-6-6z" stroke="#3a414a" stroke-width="3" fill="#fff"/><use xlink:href="#g" transform="matrix(1,0,0,1,1433.4229936584854,303.31392678340745) translate(40.883333333333354 29.425)"/><use xlink:href="#h" transform="matrix(1,0,0,1,1433.4229936584854,303.31392678340745) translate(98.44444444444446 29.425)"/><path d="M824.7 388.4a6 6 0 0 1 6-6h334.72a6 6 0 0 1 6 6v72.68a6 6 0 0 1-6 6H830.7a6 6 0 0 1-6-6z" fill="none"/><use xlink:href="#i" transform="matrix(1,0,0,1,829.703516428837,387.4073161835581) translate(5.209876543209873 25.05555555555555)"/><use xlink:href="#j" transform="matrix(1,0,0,1,829.703516428837,387.4073161835581) translate(88.17283950617285 25.05555555555555)"/><use xlink:href="#k" transform="matrix(1,0,0,1,829.703516428837,387.4073161835581) translate(148.66666666666669 25.05555555555555)"/><use xlink:href="#l" transform="matrix(1,0,0,1,829.703516428837,387.4073161835581) translate(183.23456790123458 25.05555555555555)"/><use xlink:href="#m" transform="matrix(1,0,0,1,829.703516428837,387.4073161835581) translate(28.71604938271605 62.38888888888889)"/><use xlink:href="#n" transform="matrix(1,0,0,1,829.703516428837,387.4073161835581) translate(89.20987654320989 62.38888888888889)"/><use xlink:href="#o" transform="matrix(1,0,0,1,829.703516428837,387.4073161835581) translate(128.79012345679013 62.38888888888889)"/><use xlink:href="#p" transform="matrix(1,0,0,1,829.703516428837,387.4073161835581) translate(168.4567901234568 62.38888888888889)"/><path d="M1467.08 382.17a6 6 0 0 1 6-6h500.73a6 6 0 0 1 6 6v85.15a6 6 0 0 1-6 6H1473.1a6 6 0 0 1-6-6z" fill="none"/><use xlink:href="#q" transform="matrix(1,0,0,1,1472.0784346562066,381.17016625349567) translate(31.238498263888886 36.404513888888886)"/><use xlink:href="#r" transform="matrix(1,0,0,1,1472.0784346562066,381.17016625349567) translate(147.0392795138889 36.404513888888886)"/><use xlink:href="#s" transform="matrix(1,0,0,1,1472.0784346562066,381.17016625349567) translate(186.76367187500003 36.404513888888886)"/><use xlink:href="#t" transform="matrix(1,0,0,1,1472.0784346562066,381.17016625349567) translate(368.69075520833337 36.404513888888886)"/><use xlink:href="#u" transform="matrix(1,0,0,1,1472.0784346562066,381.17016625349567) translate(443.21766493055554 36.404513888888886)"/><use xlink:href="#v" transform="matrix(1,0,0,1,1472.0784346562066,381.17016625349567) translate(29.491536458333314 72.86284722222223)"/><use xlink:href="#w" transform="matrix(1,0,0,1,1472.0784346562066,381.17016625349567) translate(118.677734375 72.86284722222223)"/><use xlink:href="#x" transform="matrix(1,0,0,1,1472.0784346562066,381.17016625349567) translate(244.26150173611114 72.86284722222223)"/><use xlink:href="#y" transform="matrix(1,0,0,1,1472.0784346562066,381.17016625349567) translate(268.88606770833337 72.86284722222223)"/><use xlink:href="#z" transform="matrix(1,0,0,1,1472.0784346562066,381.17016625349567) translate(358.83181423611114 72.86284722222223)"/><path d="M975.85 593.84a6 6 0 0 1 6-6h385.62a6 6 0 0 1 6 6v40.3a6 6 0 0 1-6 6H981.85a6 6 0 0 1-6-6z" stroke="#3a414a" stroke-width="3" fill="#fff"/><use xlink:href="#A" transform="matrix(1,0,0,1,995.7320269514362,590.450619319331) translate(12.383333333333326 29.8)"/><use xlink:href="#B" transform="matrix(1,0,0,1,995.7320269514362,590.450619319331) translate(116.23888888888888 29.8)"/><use xlink:href="#C" transform="matrix(1,0,0,1,995.7320269514362,590.450619319331) translate(145.12777777777777 29.8)"/><use xlink:href="#D" transform="matrix(1,0,0,1,995.7320269514362,590.450619319331) translate(214.31666666666666 29.8)"/><use xlink:href="#E" transform="matrix(1,0,0,1,995.7320269514362,590.450619319331) translate(267.6166666666667 29.8)"/><use xlink:href="#F" transform="matrix(1,0,0,1,995.7320269514362,590.450619319331) translate(331.1722222222222 29.8)"/><path d="M975.85 672.77a6 6 0 0 1 6-6h385.62a6 6 0 0 1 6 6v40.3a6 6 0 0 1-6 6H981.85a6 6 0 0 1-6-6z" stroke="#3a414a" stroke-width="3" fill="#fff"/><use xlink:href="#G" transform="matrix(1,0,0,1,995.7320269514362,669.3820172726341) translate(12.383333333333326 29.8)"/><use xlink:href="#H" transform="matrix(1,0,0,1,995.7320269514362,669.3820172726341) translate(116.23888888888888 29.8)"/><use xlink:href="#I" transform="matrix(1,0,0,1,995.7320269514362,669.3820172726341) translate(145.12777777777777 29.8)"/><use xlink:href="#J" transform="matrix(1,0,0,1,995.7320269514362,669.3820172726341) translate(214.31666666666666 29.8)"/><use xlink:href="#K" transform="matrix(1,0,0,1,995.7320269514362,669.3820172726341) translate(267.6166666666667 29.8)"/><use xlink:href="#f" transform="matrix(1,0,0,1,995.7320269514362,669.3820172726341) translate(331.1722222222222 29.8)"/><path d="M975.85 751.7a6 6 0 0 1 6-6h385.62a6 6 0 0 1 6 6V792a6 6 0 0 1-6 6H981.85a6 6 0 0 1-6-6z" stroke="#3a414a" stroke-width="3" fill="#fff"/><use xlink:href="#G" transform="matrix(1,0,0,1,995.7320269514362,748.3134152259372) translate(12.383333333333326 29.8)"/><use xlink:href="#H" transform="matrix(1,0,0,1,995.7320269514362,748.3134152259372) translate(116.23888888888888 29.8)"/><use xlink:href="#L" transform="matrix(1,0,0,1,995.7320269514362,748.3134152259372) translate(145.12777777777777 29.8)"/><use xlink:href="#J" transform="matrix(1,0,0,1,995.7320269514362,748.3134152259372) translate(214.31666666666666 29.8)"/><use xlink:href="#K" transform="matrix(1,0,0,1,995.7320269514362,748.3134152259372) translate(267.6166666666667 29.8)"/><use xlink:href="#f" transform="matrix(1,0,0,1,995.7320269514362,748.3134152259372) translate(331.1722222222222 29.8)"/><path d="M975.85 830.63a6 6 0 0 1 6-6h385.62a6 6 0 0 1 6 6v40.3a6 6 0 0 1-6 6H981.85a6 6 0 0 1-6-6z" stroke="#3a414a" stroke-width="3" fill="#fff"/><use xlink:href="#G" transform="matrix(1,0,0,1,995.732026951436,827.2448131792403) translate(12.383333333333326 29.8)"/><use xlink:href="#H" transform="matrix(1,0,0,1,995.732026951436,827.2448131792403) translate(116.23888888888888 29.8)"/><use xlink:href="#M" transform="matrix(1,0,0,1,995.732026951436,827.2448131792403) translate(145.12777777777777 29.8)"/><use xlink:href="#J" transform="matrix(1,0,0,1,995.732026951436,827.2448131792403) translate(214.31666666666666 29.8)"/><use xlink:href="#K" transform="matrix(1,0,0,1,995.732026951436,827.2448131792403) translate(267.6166666666667 29.8)"/><use xlink:href="#f" transform="matrix(1,0,0,1,995.732026951436,827.2448131792403) translate(331.1722222222222 29.8)"/><path d="M750.9 140.5a6 6 0 0 1 6-6h1161.58a6 6 0 0 1 6 6v77.92a6 6 0 0 1-6 6H756.88a6 6 0 0 1-6-6z" fill="none"/><use xlink:href="#N" transform="matrix(1,0,0,1,755.8940856675679,139.48996478135624) translate(4.67283950617275 27.55555555555555)"/><use xlink:href="#O" transform="matrix(1,0,0,1,755.8940856675679,139.48996478135624) translate(52.981481481481396 27.55555555555555)"/><use xlink:href="#P" transform="matrix(1,0,0,1,755.8940856675679,139.48996478135624) translate(106.47530864197523 27.55555555555555)"/><use xlink:href="#Q" transform="matrix(1,0,0,1,755.8940856675679,139.48996478135624) translate(191.08024691358017 27.55555555555555)"/><use xlink:href="#R" transform="matrix(1,0,0,1,755.8940856675679,139.48996478135624) translate(225.64814814814807 27.55555555555555)"/><use xlink:href="#S" transform="matrix(1,0,0,1,755.8940856675679,139.48996478135624) translate(351.64814814814804 27.55555555555555)"/><use xlink:href="#T" transform="matrix(1,0,0,1,755.8940856675679,139.48996478135624) translate(377.57407407407396 27.55555555555555)"/><use xlink:href="#U" transform="matrix(1,0,0,1,755.8940856675679,139.48996478135624) translate(439.70987654320976 27.55555555555555)"/><use xlink:href="#V" transform="matrix(1,0,0,1,755.8940856675679,139.48996478135624) translate(546.7839506172838 27.55555555555555)"/><use xlink:href="#W" transform="matrix(1,0,0,1,755.8940856675679,139.48996478135624) translate(591.6358024691357 27.55555555555555)"/><use xlink:href="#X" transform="matrix(1,0,0,1,755.8940856675679,139.48996478135624) translate(657.2283950617283 27.55555555555555)"/><use xlink:href="#Y" transform="matrix(1,0,0,1,755.8940856675679,139.48996478135624) translate(721.0061728395061 27.55555555555555)"/><use xlink:href="#Z" transform="matrix(1,0,0,1,755.8940856675679,139.48996478135624) translate(746.9320987654321 27.55555555555555)"/><use xlink:href="#aa" transform="matrix(1,0,0,1,755.8940856675679,139.48996478135624) translate(874.6604938271605 27.55555555555555)"/><use xlink:href="#ab" transform="matrix(1,0,0,1,755.8940856675679,139.48996478135624) translate(945.3518518518518 27.55555555555555)"/><use xlink:href="#ac" transform="matrix(1,0,0,1,755.8940856675679,139.48996478135624) translate(971.2777777777778 27.55555555555555)"/><use xlink:href="#ad" transform="matrix(1,0,0,1,755.8940856675679,139.48996478135624) translate(1095.5493827160494 27.55555555555555)"/><use xlink:href="#ae" transform="matrix(1,0,0,1,755.8940856675679,139.48996478135624) translate(407.77777777777777 64.88888888888889)"/><use xlink:href="#af" transform="matrix(1,0,0,1,755.8940856675679,139.48996478135624) translate(499.2098765432099 64.88888888888889)"/><use xlink:href="#ag" transform="matrix(1,0,0,1,755.8940856675679,139.48996478135624) translate(590.641975308642 64.88888888888889)"/><use xlink:href="#ah" transform="matrix(1,0,0,1,755.8940856675679,139.48996478135624) translate(682.0740740740741 64.88888888888889)"/><path d="M925.14 561.77v265a24 24 0 0 0 24 24h14.1M925.14 561.8v-1.53" stroke="#979ea8" stroke-width="3" fill="none"/><path d="M971.4 850.78l-12.9 7.64v-15.27z" stroke="#979ea8" stroke-width="3" fill="#979ea8"/><path d="M925 771.18l38.24-.27M925.03 771.18h-1.53" stroke="#979ea8" stroke-width="3" fill="none"/><path d="M971.4 770.85l-12.85 7.73-.1-15.27z" stroke="#979ea8" stroke-width="3" fill="#979ea8"/><path d="M928.3 617.92l34.94-.56M928.33 617.92l-1.54.02" stroke="#979ea8" stroke-width="3" fill="none"/><path d="M971.4 617.23l-12.78 7.84-.25-15.27z" stroke="#979ea8" stroke-width="3" fill="#979ea8"/><path d="M926.64 692.1l36.6-.16M926.68 692.1h-1.54" stroke="#979ea8" stroke-width="3" fill="none"/><path d="M971.4 691.9l-12.88 7.7-.06-15.28z" stroke="#979ea8" stroke-width="3" fill="#979ea8"/><path d="M904.7 946.55a6 6 0 0 1 6-6h254.72a6 6 0 0 1 6 6v38.17a6 6 0 0 1-6 6H910.7a6 6 0 0 1-6-6z" stroke="#3a414a" stroke-width="3" fill="#fff"/><use xlink:href="#d" transform="matrix(1,0,0,1,918.0380977495137,943.0604432265153) translate(3.8611111111111143 29.425)"/><use xlink:href="#e" transform="matrix(1,0,0,1,918.0380977495137,943.0604432265153) translate(135.23333333333332 29.425)"/><use xlink:href="#ai" transform="matrix(1,0,0,1,918.0380977495137,943.0604432265153) translate(222.69444444444443 29.425)"/><path d="M975.85 1022.55a6 6 0 0 1 6-6h385.62a6 6 0 0 1 6 6v40.3a6 6 0 0 1-6 6H981.85a6 6 0 0 1-6-6z" stroke="#3a414a" stroke-width="3" fill="#fff"/><use xlink:href="#G" transform="matrix(1,0,0,1,995.7320269514362,1019.1697616299452) translate(12.383333333333326 29.8)"/><use xlink:href="#H" transform="matrix(1,0,0,1,995.7320269514362,1019.1697616299452) translate(116.23888888888888 29.8)"/><use xlink:href="#aj" transform="matrix(1,0,0,1,995.7320269514362,1019.1697616299452) translate(145.12777777777777 29.8)"/><use xlink:href="#J" transform="matrix(1,0,0,1,995.7320269514362,1019.1697616299452) translate(214.31666666666666 29.8)"/><use xlink:href="#K" transform="matrix(1,0,0,1,995.7320269514362,1019.1697616299452) translate(267.6166666666667 29.8)"/><use xlink:href="#ai" transform="matrix(1,0,0,1,995.7320269514362,1019.1697616299452) translate(331.1722222222222 29.8)"/><path d="M975.85 1101.5a6 6 0 0 1 6-6h385.62a6 6 0 0 1 6 6v40.3a6 6 0 0 1-6 6H981.85a6 6 0 0 1-6-6z" stroke="#3a414a" stroke-width="3" fill="#fff"/><use xlink:href="#G" transform="matrix(1,0,0,1,995.7320269514362,1098.101159583248) translate(12.383333333333326 29.8)"/><use xlink:href="#H" transform="matrix(1,0,0,1,995.7320269514362,1098.101159583248) translate(116.23888888888888 29.8)"/><use xlink:href="#I" transform="matrix(1,0,0,1,995.7320269514362,1098.101159583248) translate(145.12777777777777 29.8)"/><use xlink:href="#J" transform="matrix(1,0,0,1,995.7320269514362,1098.101159583248) translate(214.31666666666666 29.8)"/><use xlink:href="#K" transform="matrix(1,0,0,1,995.7320269514362,1098.101159583248) translate(267.6166666666667 29.8)"/><use xlink:href="#ai" transform="matrix(1,0,0,1,995.7320269514362,1098.101159583248) translate(331.1722222222222 29.8)"/><path d="M975.85 1180.42a6 6 0 0 1 6-6h385.62a6 6 0 0 1 6 6v40.3a6 6 0 0 1-6 6H981.85a6 6 0 0 1-6-6z" stroke="#3a414a" stroke-width="3" fill="#fff"/><use xlink:href="#G" transform="matrix(1,0,0,1,995.7320269514362,1177.032557536551) translate(12.383333333333326 29.8)"/><use xlink:href="#H" transform="matrix(1,0,0,1,995.7320269514362,1177.032557536551) translate(116.23888888888888 29.8)"/><use xlink:href="#L" transform="matrix(1,0,0,1,995.7320269514362,1177.032557536551) translate(145.12777777777777 29.8)"/><use xlink:href="#J" transform="matrix(1,0,0,1,995.7320269514362,1177.032557536551) translate(214.31666666666666 29.8)"/><use xlink:href="#K" transform="matrix(1,0,0,1,995.7320269514362,1177.032557536551) translate(267.6166666666667 29.8)"/><use xlink:href="#ai" transform="matrix(1,0,0,1,995.7320269514362,1177.032557536551) translate(331.1722222222222 29.8)"/><path d="M975.85 1259.35a6 6 0 0 1 6-6h385.62a6 6 0 0 1 6 6v40.3a6 6 0 0 1-6 6H981.85a6 6 0 0 1-6-6z" stroke="#3a414a" stroke-width="3" fill="#fff"/><use xlink:href="#G" transform="matrix(1,0,0,1,995.732026951436,1255.9639554898545) translate(12.383333333333326 29.8)"/><use xlink:href="#H" transform="matrix(1,0,0,1,995.732026951436,1255.9639554898545) translate(116.23888888888888 29.8)"/><use xlink:href="#M" transform="matrix(1,0,0,1,995.732026951436,1255.9639554898545) translate(145.12777777777777 29.8)"/><use xlink:href="#J" transform="matrix(1,0,0,1,995.732026951436,1255.9639554898545) translate(214.31666666666666 29.8)"/><use xlink:href="#K" transform="matrix(1,0,0,1,995.732026951436,1255.9639554898545) translate(267.6166666666667 29.8)"/><use xlink:href="#ai" transform="matrix(1,0,0,1,995.732026951436,1255.9639554898545) translate(331.1722222222222 29.8)"/><path d="M925.14 991.32v264.18a24 24 0 0 0 24 24h14.1M925.14 991.36v-1.54" stroke="#979ea8" stroke-width="3" fill="none"/><path d="M971.4 1279.5l-12.9 7.64v-15.27z" stroke="#979ea8" stroke-width="3" fill="#979ea8"/><path d="M925 1200.7l38.25-.9M925.03 1200.7l-1.53.05" stroke="#979ea8" stroke-width="3" fill="none"/><path d="M971.4 1199.62l-12.72 7.94-.36-15.27z" stroke="#979ea8" stroke-width="3" fill="#979ea8"/><path d="M928.3 1047.47l34.94-.68M928.33 1047.47l-1.54.03" stroke="#979ea8" stroke-width="3" fill="none"/><path d="M971.4 1046.64l-12.76 7.88-.3-15.27z" stroke="#979ea8" stroke-width="3" fill="#979ea8"/><path d="M926.64 1121.62l36.6-.77M926.68 1121.62l-1.54.03" stroke="#979ea8" stroke-width="3" fill="none"/><path d="M971.4 1120.67l-12.74 7.9-.32-15.26z" stroke="#979ea8" stroke-width="3" fill="#979ea8"/><path d="M904.7 1376.57a6 6 0 0 1 6-6h254.72a6 6 0 0 1 6 6v38.16a6 6 0 0 1-6 6H910.7a6 6 0 0 1-6-6z" stroke="#3a414a" stroke-width="3" fill="#fff"/><use xlink:href="#d" transform="matrix(1,0,0,1,918.0380977495132,1373.0772692788362) translate(3.8611111111111143 29.425)"/><use xlink:href="#e" transform="matrix(1,0,0,1,918.0380977495132,1373.0772692788362) translate(135.23333333333332 29.425)"/><use xlink:href="#ai" transform="matrix(1,0,0,1,918.0380977495132,1373.0772692788362) translate(222.69444444444443 29.425)"/><path d="M975.85 1451.73a6 6 0 0 1 6-6h385.62a6 6 0 0 1 6 6v40.3a6 6 0 0 1-6 6H981.85a6 6 0 0 1-6-6z" stroke="#3a414a" stroke-width="3" fill="#fff"/><use xlink:href="#G" transform="matrix(1,0,0,1,995.732026951436,1448.346693114339) translate(12.383333333333326 29.8)"/><use xlink:href="#H" transform="matrix(1,0,0,1,995.732026951436,1448.346693114339) translate(116.23888888888888 29.8)"/><use xlink:href="#aj" transform="matrix(1,0,0,1,995.732026951436,1448.346693114339) translate(145.12777777777777 29.8)"/><use xlink:href="#J" transform="matrix(1,0,0,1,995.732026951436,1448.346693114339) translate(214.31666666666666 29.8)"/><use xlink:href="#K" transform="matrix(1,0,0,1,995.732026951436,1448.346693114339) translate(267.6166666666667 29.8)"/><use xlink:href="#f" transform="matrix(1,0,0,1,995.732026951436,1448.346693114339) translate(331.1722222222222 29.8)"/><path d="M975.85 1530.66a6 6 0 0 1 6-6h385.62a6 6 0 0 1 6 6v40.3a6 6 0 0 1-6 6H981.85a6 6 0 0 1-6-6z" stroke="#3a414a" stroke-width="3" fill="#fff"/><use xlink:href="#G" transform="matrix(1,0,0,1,995.732026951436,1527.278091067642) translate(12.383333333333326 29.8)"/><use xlink:href="#H" transform="matrix(1,0,0,1,995.732026951436,1527.278091067642) translate(116.23888888888888 29.8)"/><use xlink:href="#I" transform="matrix(1,0,0,1,995.732026951436,1527.278091067642) translate(145.12777777777777 29.8)"/><use xlink:href="#J" transform="matrix(1,0,0,1,995.732026951436,1527.278091067642) translate(214.31666666666666 29.8)"/><use xlink:href="#K" transform="matrix(1,0,0,1,995.732026951436,1527.278091067642) translate(267.6166666666667 29.8)"/><use xlink:href="#f" transform="matrix(1,0,0,1,995.732026951436,1527.278091067642) translate(331.1722222222222 29.8)"/><path d="M975.85 1609.6a6 6 0 0 1 6-6h385.62a6 6 0 0 1 6 6v40.3a6 6 0 0 1-6 6H981.85a6 6 0 0 1-6-6z" stroke="#3a414a" stroke-width="3" fill="#fff"/><use xlink:href="#G" transform="matrix(1,0,0,1,995.732026951436,1606.209489020945) translate(12.383333333333326 29.8)"/><use xlink:href="#H" transform="matrix(1,0,0,1,995.732026951436,1606.209489020945) translate(116.23888888888888 29.8)"/><use xlink:href="#L" transform="matrix(1,0,0,1,995.732026951436,1606.209489020945) translate(145.12777777777777 29.8)"/><use xlink:href="#J" transform="matrix(1,0,0,1,995.732026951436,1606.209489020945) translate(214.31666666666666 29.8)"/><use xlink:href="#K" transform="matrix(1,0,0,1,995.732026951436,1606.209489020945) translate(267.6166666666667 29.8)"/><use xlink:href="#f" transform="matrix(1,0,0,1,995.732026951436,1606.209489020945) translate(331.1722222222222 29.8)"/><path d="M975.85 1688.53a6 6 0 0 1 6-6h385.62a6 6 0 0 1 6 6v40.3a6 6 0 0 1-6 6H981.85a6 6 0 0 1-6-6z" stroke="#3a414a" stroke-width="3" fill="#fff"/><use xlink:href="#G" transform="matrix(1,0,0,1,995.7320269514355,1685.1408869742481) translate(12.383333333333326 29.8)"/><use xlink:href="#H" transform="matrix(1,0,0,1,995.7320269514355,1685.1408869742481) translate(116.23888888888888 29.8)"/><use xlink:href="#M" transform="matrix(1,0,0,1,995.7320269514355,1685.1408869742481) translate(145.12777777777777 29.8)"/><use xlink:href="#J" transform="matrix(1,0,0,1,995.7320269514355,1685.1408869742481) translate(214.31666666666666 29.8)"/><use xlink:href="#K" transform="matrix(1,0,0,1,995.7320269514355,1685.1408869742481) translate(267.6166666666667 29.8)"/><use xlink:href="#f" transform="matrix(1,0,0,1,995.7320269514355,1685.1408869742481) translate(331.1722222222222 29.8)"/><path d="M925.14 1421.34v263.34a24 24 0 0 0 24 24h14.1M925.14 1421.38v-1.54" stroke="#979ea8" stroke-width="3" fill="none"/><path d="M971.4 1708.68l-12.9 7.63v-15.26z" stroke="#979ea8" stroke-width="3" fill="#979ea8"/><path d="M925 1630.7l38.25-1.53M925.03 1630.7l-1.53.06" stroke="#979ea8" stroke-width="3" fill="none"/><path d="M971.4 1628.85l-12.6 8.14-.6-15.27z" stroke="#979ea8" stroke-width="3" fill="#979ea8"/><path d="M928.3 1477.48l34.94-.8M928.33 1477.48l-1.54.04" stroke="#979ea8" stroke-width="3" fill="none"/><path d="M971.4 1476.5l-12.73 7.93-.35-15.27z" stroke="#979ea8" stroke-width="3" fill="#979ea8"/><path d="M926.64 1551.6l36.6-1.4M926.68 1551.6l-1.54.07" stroke="#979ea8" stroke-width="3" fill="none"/><path d="M971.4 1549.9l-12.6 8.12-.6-15.26z" stroke="#979ea8" stroke-width="3" fill="#979ea8"/><path d="M1540.5 517a6 6 0 0 1 6-6h254.72a6 6 0 0 1 6 6v38.16a6 6 0 0 1-6 6H1546.5a6 6 0 0 1-6-6z" stroke="#3a414a" stroke-width="3" fill="#fff"/><use xlink:href="#d" transform="matrix(1,0,0,1,1553.8312304259662,513.502302236388) translate(9.38611111111112 29.425)"/><use xlink:href="#H" transform="matrix(1,0,0,1,1553.8312304259662,513.502302236388) translate(140.75833333333333 29.425)"/><use xlink:href="#ak" transform="matrix(1,0,0,1,1553.8312304259662,513.502302236388) translate(169.6472222222222 29.425)"/><path d="M1611.64 593.84a6 6 0 0 1 6-6h387.1a6 6 0 0 1 6 6v40.1a6 6 0 0 1-6 6h-387.1a6 6 0 0 1-6-6z" stroke="#3a414a" stroke-width="3" fill="#fff"/><g><use xlink:href="#G" transform="matrix(1,0,0,1,1631.59871251061,590.4401731602029) translate(13.383333333333326 29.6125)"/><use xlink:href="#H" transform="matrix(1,0,0,1,1631.59871251061,590.4401731602029) translate(117.23888888888888 29.6125)"/><use xlink:href="#aj" transform="matrix(1,0,0,1,1631.59871251061,590.4401731602029) translate(146.12777777777777 29.6125)"/><use xlink:href="#J" transform="matrix(1,0,0,1,1631.59871251061,590.4401731602029) translate(215.31666666666666 29.6125)"/><use xlink:href="#K" transform="matrix(1,0,0,1,1631.59871251061,590.4401731602029) translate(268.6166666666667 29.6125)"/><use xlink:href="#f" transform="matrix(1,0,0,1,1631.59871251061,590.4401731602029) translate(332.1722222222222 29.6125)"/></g><path d="M1611.64 672.45a6 6 0 0 1 6-6h387.1a6 6 0 0 1 6 6v40.1a6 6 0 0 1-6 6h-387.1a6 6 0 0 1-6-6z" stroke="#3a414a" stroke-width="3" fill="#fff"/><g><use xlink:href="#G" transform="matrix(1,0,0,1,1631.59871251061,669.056313106749) translate(13.383333333333326 29.6125)"/><use xlink:href="#H" transform="matrix(1,0,0,1,1631.59871251061,669.056313106749) translate(117.23888888888888 29.6125)"/><use xlink:href="#aj" transform="matrix(1,0,0,1,1631.59871251061,669.056313106749) translate(146.12777777777777 29.6125)"/><use xlink:href="#J" transform="matrix(1,0,0,1,1631.59871251061,669.056313106749) translate(215.31666666666666 29.6125)"/><use xlink:href="#K" transform="matrix(1,0,0,1,1631.59871251061,669.056313106749) translate(268.6166666666667 29.6125)"/><use xlink:href="#ai" transform="matrix(1,0,0,1,1631.59871251061,669.056313106749) translate(332.1722222222222 29.6125)"/></g><path d="M1611.64 751.07a6 6 0 0 1 6-6h387.1a6 6 0 0 1 6 6v40.1a6 6 0 0 1-6 6h-387.1a6 6 0 0 1-6-6z" stroke="#3a414a" stroke-width="3" fill="#fff"/><g><use xlink:href="#G" transform="matrix(1,0,0,1,1631.59871251061,747.6724530532954) translate(13.383333333333326 29.6125)"/><use xlink:href="#H" transform="matrix(1,0,0,1,1631.59871251061,747.6724530532954) translate(117.23888888888888 29.6125)"/><use xlink:href="#aj" transform="matrix(1,0,0,1,1631.59871251061,747.6724530532954) translate(146.12777777777777 29.6125)"/><use xlink:href="#J" transform="matrix(1,0,0,1,1631.59871251061,747.6724530532954) translate(215.31666666666666 29.6125)"/><use xlink:href="#K" transform="matrix(1,0,0,1,1631.59871251061,747.6724530532954) translate(268.6166666666667 29.6125)"/><use xlink:href="#al" transform="matrix(1,0,0,1,1631.59871251061,747.6724530532954) translate(332.1722222222222 29.6125)"/></g><path d="M1560.94 561.77v185.35a24 24 0 0 0 24 24h14.1M1560.94 561.8v-1.53" stroke="#979ea8" stroke-width="3" fill="none"/><path d="M1607.2 771.12l-12.9 7.63v-15.27z" stroke="#979ea8" stroke-width="3" fill="#979ea8"/><path d="M1564.08 617.92l34.96-.57M1564.12 617.9l-1.54.04" stroke="#979ea8" stroke-width="3" fill="none"/><path d="M1607.2 617.2l-12.8 7.86-.24-15.27z" stroke="#979ea8" stroke-width="3" fill="#979ea8"/><path d="M1562.44 692.07l36.6-.46M1562.47 692.07l-1.53.02" stroke="#979ea8" stroke-width="3" fill="none"/><path d="M1607.2 691.5l-12.82 7.8-.2-15.26z" stroke="#979ea8" stroke-width="3" fill="#979ea8"/><path d="M1540.5 859.24a6 6 0 0 1 6-6h254.72a6 6 0 0 1 6 6v38.16a6 6 0 0 1-6 6H1546.5a6 6 0 0 1-6-6z" stroke="#3a414a" stroke-width="3" fill="#fff"/><g><use xlink:href="#d" transform="matrix(1,0,0,1,1553.8312304259662,855.7462097946013) translate(9.38611111111112 29.425)"/><use xlink:href="#H" transform="matrix(1,0,0,1,1553.8312304259662,855.7462097946013) translate(140.75833333333333 29.425)"/><use xlink:href="#am" transform="matrix(1,0,0,1,1553.8312304259662,855.7462097946013) translate(169.6472222222222 29.425)"/></g><path d="M1611.64 934.05a6 6 0 0 1 6-6h387.1a6 6 0 0 1 6 6v40.1a6 6 0 0 1-6 6h-387.1a6 6 0 0 1-6-6z" stroke="#3a414a" stroke-width="3" fill="#fff"/><g><use xlink:href="#G" transform="matrix(1,0,0,1,1631.5987125106103,930.6513429774559) translate(13.383333333333326 29.6125)"/><use xlink:href="#H" transform="matrix(1,0,0,1,1631.5987125106103,930.6513429774559) translate(117.23888888888888 29.6125)"/><use xlink:href="#I" transform="matrix(1,0,0,1,1631.5987125106103,930.6513429774559) translate(146.12777777777777 29.6125)"/><use xlink:href="#J" transform="matrix(1,0,0,1,1631.5987125106103,930.6513429774559) translate(215.31666666666666 29.6125)"/><use xlink:href="#K" transform="matrix(1,0,0,1,1631.5987125106103,930.6513429774559) translate(268.6166666666667 29.6125)"/><use xlink:href="#f" transform="matrix(1,0,0,1,1631.5987125106103,930.6513429774559) translate(332.1722222222222 29.6125)"/></g><path d="M1611.64 1012.66a6 6 0 0 1 6-6h387.1a6 6 0 0 1 6 6v40.1a6 6 0 0 1-6 6h-387.1a6 6 0 0 1-6-6z" stroke="#3a414a" stroke-width="3" fill="#fff"/><g><use xlink:href="#G" transform="matrix(1,0,0,1,1631.5987125106103,1009.267482924002) translate(13.383333333333326 29.6125)"/><use xlink:href="#H" transform="matrix(1,0,0,1,1631.5987125106103,1009.267482924002) translate(117.23888888888888 29.6125)"/><use xlink:href="#I" transform="matrix(1,0,0,1,1631.5987125106103,1009.267482924002) translate(146.12777777777777 29.6125)"/><use xlink:href="#J" transform="matrix(1,0,0,1,1631.5987125106103,1009.267482924002) translate(215.31666666666666 29.6125)"/><use xlink:href="#K" transform="matrix(1,0,0,1,1631.5987125106103,1009.267482924002) translate(268.6166666666667 29.6125)"/><use xlink:href="#ai" transform="matrix(1,0,0,1,1631.5987125106103,1009.267482924002) translate(332.1722222222222 29.6125)"/></g><path d="M1611.64 1091.28a6 6 0 0 1 6-6h387.1a6 6 0 0 1 6 6v40.1a6 6 0 0 1-6 6h-387.1a6 6 0 0 1-6-6z" stroke="#3a414a" stroke-width="3" fill="#fff"/><g><use xlink:href="#G" transform="matrix(1,0,0,1,1631.5987125106103,1087.8836228705486) translate(13.383333333333326 29.6125)"/><use xlink:href="#H" transform="matrix(1,0,0,1,1631.5987125106103,1087.8836228705486) translate(117.23888888888888 29.6125)"/><use xlink:href="#I" transform="matrix(1,0,0,1,1631.5987125106103,1087.8836228705486) translate(146.12777777777777 29.6125)"/><use xlink:href="#J" transform="matrix(1,0,0,1,1631.5987125106103,1087.8836228705486) translate(215.31666666666666 29.6125)"/><use xlink:href="#K" transform="matrix(1,0,0,1,1631.5987125106103,1087.8836228705486) translate(268.6166666666667 29.6125)"/><use xlink:href="#al" transform="matrix(1,0,0,1,1631.5987125106103,1087.8836228705486) translate(332.1722222222222 29.6125)"/></g><path d="M1560.94 904v183.33a24 24 0 0 0 24 24h14.1M1560.94 904.05v-1.54" stroke="#979ea8" stroke-width="3" fill="none"/><path d="M1607.2 1111.33l-12.9 7.63v-15.27z" stroke="#979ea8" stroke-width="3" fill="#979ea8"/><path d="M1564.08 960.15l34.96-.86M1564.12 960.15l-1.54.03" stroke="#979ea8" stroke-width="3" fill="none"/><path d="M1607.2 959.1l-12.72 7.94-.38-15.27z" stroke="#979ea8" stroke-width="3" fill="#979ea8"/><path d="M1562.43 1034.26l36.62-1.98M1562.47 1034.25l-1.53.1" stroke="#979ea8" stroke-width="3" fill="none"/><path d="M1607.2 1031.85l-12.48 8.3-.82-15.24z" stroke="#979ea8" stroke-width="3" fill="#979ea8"/><path d="M1540.5 1194.36a6 6 0 0 1 6-6h254.72a6 6 0 0 1 6 6v38.17a6 6 0 0 1-6 6H1546.5a6 6 0 0 1-6-6z" stroke="#3a414a" stroke-width="3" fill="#fff"/><g><use xlink:href="#d" transform="matrix(1,0,0,1,1553.8312304259666,1190.8675290498502) translate(9.38611111111112 29.425)"/><use xlink:href="#H" transform="matrix(1,0,0,1,1553.8312304259666,1190.8675290498502) translate(140.75833333333333 29.425)"/><use xlink:href="#an" transform="matrix(1,0,0,1,1553.8312304259666,1190.8675290498502) translate(169.6472222222222 29.425)"/></g><path d="M1611.64 1267.18a6 6 0 0 1 6-6h387.1a6 6 0 0 1 6 6v40.1a6 6 0 0 1-6 6h-387.1a6 6 0 0 1-6-6z" stroke="#3a414a" stroke-width="3" fill="#fff"/><g><use xlink:href="#G" transform="matrix(1,0,0,1,1631.5987125106108,1263.7822286898238) translate(13.383333333333326 29.6125)"/><use xlink:href="#H" transform="matrix(1,0,0,1,1631.5987125106108,1263.7822286898238) translate(117.23888888888888 29.6125)"/><use xlink:href="#L" transform="matrix(1,0,0,1,1631.5987125106108,1263.7822286898238) translate(146.12777777777777 29.6125)"/><use xlink:href="#J" transform="matrix(1,0,0,1,1631.5987125106108,1263.7822286898238) translate(215.31666666666666 29.6125)"/><use xlink:href="#K" transform="matrix(1,0,0,1,1631.5987125106108,1263.7822286898238) translate(268.6166666666667 29.6125)"/><use xlink:href="#f" transform="matrix(1,0,0,1,1631.5987125106108,1263.7822286898238) translate(332.1722222222222 29.6125)"/></g><path d="M1611.64 1345.8a6 6 0 0 1 6-6h387.1a6 6 0 0 1 6 6v40.1a6 6 0 0 1-6 6h-387.1a6 6 0 0 1-6-6z" stroke="#3a414a" stroke-width="3" fill="#fff"/><g><use xlink:href="#G" transform="matrix(1,0,0,1,1631.5987125106108,1342.3983686363697) translate(13.383333333333326 29.6125)"/><use xlink:href="#H" transform="matrix(1,0,0,1,1631.5987125106108,1342.3983686363697) translate(117.23888888888888 29.6125)"/><use xlink:href="#L" transform="matrix(1,0,0,1,1631.5987125106108,1342.3983686363697) translate(146.12777777777777 29.6125)"/><use xlink:href="#J" transform="matrix(1,0,0,1,1631.5987125106108,1342.3983686363697) translate(215.31666666666666 29.6125)"/><use xlink:href="#K" transform="matrix(1,0,0,1,1631.5987125106108,1342.3983686363697) translate(268.6166666666667 29.6125)"/><use xlink:href="#ai" transform="matrix(1,0,0,1,1631.5987125106108,1342.3983686363697) translate(332.1722222222222 29.6125)"/></g><path d="M1611.64 1424.4a6 6 0 0 1 6-6h387.1a6 6 0 0 1 6 6v40.1a6 6 0 0 1-6 6h-387.1a6 6 0 0 1-6-6z" stroke="#3a414a" stroke-width="3" fill="#fff"/><g><use xlink:href="#G" transform="matrix(1,0,0,1,1631.5987125106108,1421.0145085829163) translate(13.383333333333326 29.6125)"/><use xlink:href="#H" transform="matrix(1,0,0,1,1631.5987125106108,1421.0145085829163) translate(117.23888888888888 29.6125)"/><use xlink:href="#L" transform="matrix(1,0,0,1,1631.5987125106108,1421.0145085829163) translate(146.12777777777777 29.6125)"/><use xlink:href="#J" transform="matrix(1,0,0,1,1631.5987125106108,1421.0145085829163) translate(215.31666666666666 29.6125)"/><use xlink:href="#K" transform="matrix(1,0,0,1,1631.5987125106108,1421.0145085829163) translate(268.6166666666667 29.6125)"/><use xlink:href="#al" transform="matrix(1,0,0,1,1631.5987125106108,1421.0145085829163) translate(332.1722222222222 29.6125)"/></g><path d="M1560.94 1239.13v181.33a24 24 0 0 0 24 24h14.1M1560.94 1239.17v-1.54" stroke="#979ea8" stroke-width="3" fill="none"/><path d="M1607.2 1444.46l-12.9 7.63v-15.28z" stroke="#979ea8" stroke-width="3" fill="#979ea8"/><path d="M1564.08 1295.26l34.96-1.14M1564.12 1295.26l-1.54.05" stroke="#979ea8" stroke-width="3" fill="none"/><path d="M1607.2 1293.86l-12.66 8.05-.5-15.26z" stroke="#979ea8" stroke-width="3" fill="#979ea8"/><path d="M1562.43 1369.32l36.65-3.46M1562.47 1369.3l-1.53.16" stroke="#979ea8" stroke-width="3" fill="none"/><path d="M1607.2 1365.1l-12.13 8.8-1.43-15.2z" stroke="#979ea8" stroke-width="3" fill="#979ea8"/><path d="M1540.5 1532.5a6 6 0 0 1 6-6h254.72a6 6 0 0 1 6 6v38.16a6 6 0 0 1-6 6H1546.5a6 6 0 0 1-6-6z" stroke="#3a414a" stroke-width="3" fill="#fff"/><g><use xlink:href="#d" transform="matrix(1,0,0,1,1553.831230425967,1529.0043373539356) translate(9.38611111111112 29.425)"/><use xlink:href="#H" transform="matrix(1,0,0,1,1553.831230425967,1529.0043373539356) translate(140.75833333333333 29.425)"/><use xlink:href="#ao" transform="matrix(1,0,0,1,1553.831230425967,1529.0043373539356) translate(169.6472222222222 29.425)"/></g><path d="M1611.64 1603.3a6 6 0 0 1 6-6h387.1a6 6 0 0 1 6 6v40.1a6 6 0 0 1-6 6h-387.1a6 6 0 0 1-6-6z" stroke="#3a414a" stroke-width="3" fill="#fff"/><g><use xlink:href="#G" transform="matrix(1,0,0,1,1631.5987125106112,1599.910693129583) translate(13.383333333333326 29.6125)"/><use xlink:href="#H" transform="matrix(1,0,0,1,1631.5987125106112,1599.910693129583) translate(117.23888888888888 29.6125)"/><use xlink:href="#M" transform="matrix(1,0,0,1,1631.5987125106112,1599.910693129583) translate(146.12777777777777 29.6125)"/><use xlink:href="#J" transform="matrix(1,0,0,1,1631.5987125106112,1599.910693129583) translate(215.31666666666666 29.6125)"/><use xlink:href="#K" transform="matrix(1,0,0,1,1631.5987125106112,1599.910693129583) translate(268.6166666666667 29.6125)"/><use xlink:href="#f" transform="matrix(1,0,0,1,1631.5987125106112,1599.910693129583) translate(332.1722222222222 29.6125)"/></g><path d="M1611.64 1681.92a6 6 0 0 1 6-6h387.1a6 6 0 0 1 6 6v40.1a6 6 0 0 1-6 6h-387.1a6 6 0 0 1-6-6z" stroke="#3a414a" stroke-width="3" fill="#fff"/><g><use xlink:href="#G" transform="matrix(1,0,0,1,1631.5987125106112,1678.5268330761292) translate(13.383333333333326 29.6125)"/><use xlink:href="#H" transform="matrix(1,0,0,1,1631.5987125106112,1678.5268330761292) translate(117.23888888888888 29.6125)"/><use xlink:href="#ap" transform="matrix(1,0,0,1,1631.5987125106112,1678.5268330761292) translate(146.12777777777777 29.6125)"/><use xlink:href="#aq" transform="matrix(1,0,0,1,1631.5987125106112,1678.5268330761292) translate(215.31666666666666 29.6125)"/><use xlink:href="#K" transform="matrix(1,0,0,1,1631.5987125106112,1678.5268330761292) translate(268.6166666666667 29.6125)"/><use xlink:href="#ai" transform="matrix(1,0,0,1,1631.5987125106112,1678.5268330761292) translate(332.1722222222222 29.6125)"/></g><path d="M1611.64 1760.54a6 6 0 0 1 6-6h387.1a6 6 0 0 1 6 6v40.1a6 6 0 0 1-6 6h-387.1a6 6 0 0 1-6-6z" stroke="#3a414a" stroke-width="3" fill="#fff"/><g><use xlink:href="#G" transform="matrix(1,0,0,1,1631.5987125106112,1757.1429730226755) translate(13.383333333333326 29.6125)"/><use xlink:href="#H" transform="matrix(1,0,0,1,1631.5987125106112,1757.1429730226755) translate(117.23888888888888 29.6125)"/><use xlink:href="#M" transform="matrix(1,0,0,1,1631.5987125106112,1757.1429730226755) translate(146.12777777777777 29.6125)"/><use xlink:href="#J" transform="matrix(1,0,0,1,1631.5987125106112,1757.1429730226755) translate(215.31666666666666 29.6125)"/><use xlink:href="#K" transform="matrix(1,0,0,1,1631.5987125106112,1757.1429730226755) translate(268.6166666666667 29.6125)"/><use xlink:href="#al" transform="matrix(1,0,0,1,1631.5987125106112,1757.1429730226755) translate(332.1722222222222 29.6125)"/></g><path d="M1560.94 1577.27v179.32a24 24 0 0 0 24 24h14.1M1560.94 1577.3v-1.53" stroke="#979ea8" stroke-width="3" fill="none"/><path d="M1607.2 1780.6l-12.9 7.62v-15.27z" stroke="#979ea8" stroke-width="3" fill="#979ea8"/><path d="M1564.08 1633.38l34.96-1.42M1564.12 1633.38l-1.54.06" stroke="#979ea8" stroke-width="3" fill="none"/><path d="M1607.2 1631.63l-12.6 8.15-.6-15.25z" stroke="#979ea8" stroke-width="3" fill="#979ea8"/><path d="M1562.42 1707.4l36.7-4.97M1562.46 1707.4l-1.52.2" stroke="#979ea8" stroke-width="3" fill="none"/><path d="M1607.22 1701.34l-11.77 9.3-2.04-15.14z" stroke="#979ea8" stroke-width="3" fill="#979ea8"/><path d="M803.2 353.97v1017.68a24 24 0 0 0 24 24h64.9" stroke="#979ea8" stroke-width="3" fill="none"/><path d="M804.7 354h-3v-1.53h3z" stroke="#979ea8" stroke-width=".05" fill="#979ea8"/><path d="M900.25 1395.65l-12.9 7.64V1388z" stroke="#979ea8" stroke-width="3" fill="#979ea8"/><path d="M805.5 968h86.6M805.54 968H804" stroke="#979ea8" stroke-width="3" fill="none"/><path d="M900.25 968l-12.9 7.64v-15.28z" stroke="#979ea8" stroke-width="3" fill="#979ea8"/><path d="M803.5 532h88.6M803.54 532H802" stroke="#979ea8" stroke-width="3" fill="none"/><path d="M900.25 532l-12.9 7.64v-15.28z" stroke="#979ea8" stroke-width="3" fill="#979ea8"/><path d="M1450 353.97v1173.6a24 24 0 0 0 24 24h53.9" stroke="#979ea8" stroke-width="3" fill="none"/><path d="M1451.5 354h-3v-1.53h3z" stroke="#979ea8" stroke-width=".05" fill="#979ea8"/><path d="M1536.05 1551.58l-12.9 7.63v-15.26z" stroke="#979ea8" stroke-width="3" fill="#979ea8"/><path d="M1451.5 1210h76.4M1451.54 1210H1450" stroke="#979ea8" stroke-width="3" fill="none"/><path d="M1536.05 1210l-12.9 7.64v-15.28z" stroke="#979ea8" stroke-width="3" fill="#979ea8"/><path d="M1453.5 870h74.4M1453.54 870H1452" stroke="#979ea8" stroke-width="3" fill="none"/><path d="M1536.05 870l-12.9 7.64v-15.28z" stroke="#979ea8" stroke-width="3" fill="#979ea8"/><path d="M1451.5 534h76.4M1451.54 534H1450" stroke="#979ea8" stroke-width="3" fill="none"/><path d="M1536.05 534l-12.9 7.64v-15.28z" stroke="#979ea8" stroke-width="3" fill="#979ea8"/><g><path d="M1513.5 655.16a6 6 0 0 1-6-6v-70.24a6 6 0 0 1 6-6h29.22a6 6 0 0 1 6 6v70.24a6 6 0 0 1-6 6z" fill="none"/></g><g><use xlink:href="#ar" transform="matrix(6.123233995736766e-17,-1,1,6.123233995736766e-17,1512.5111111111114,650.156632322105) translate(0 21.2)"/><use xlink:href="#as" transform="matrix(6.123233995736766e-17,-1,1,6.123233995736766e-17,1512.5111111111114,650.156632322105) translate(50.55555555555555 21.2)"/></g><g><path d="M1513.5 1004.77a6 6 0 0 1-6-6v-70.24a6 6 0 0 1 6-6h29.22a6 6 0 0 1 6 6v70.24a6 6 0 0 1-6 6z" fill="none"/></g><g><use xlink:href="#ar" transform="matrix(6.123233995736766e-17,-1,1,6.123233995736766e-17,1512.5111111111114,999.7654432481709) translate(0 21.2)"/><use xlink:href="#as" transform="matrix(6.123233995736766e-17,-1,1,6.123233995736766e-17,1512.5111111111114,999.7654432481709) translate(50.55555555555555 21.2)"/></g><g><path d="M1513.5 1341.4a6 6 0 0 1-6-6v-70.24a6 6 0 0 1 6-6h29.22a6 6 0 0 1 6 6v70.23a6 6 0 0 1-6 6z" fill="none"/></g><g><use xlink:href="#ar" transform="matrix(6.123233995736766e-17,-1,1,6.123233995736766e-17,1512.5111111111112,1336.3945070278378) translate(0 21.2)"/><use xlink:href="#as" transform="matrix(6.123233995736766e-17,-1,1,6.123233995736766e-17,1512.5111111111112,1336.3945070278378) translate(50.55555555555555 21.2)"/></g><g><path d="M1513.5 1682.42a6 6 0 0 1-6-6v-70.23a6 6 0 0 1 6-6h29.22a6 6 0 0 1 6 6v70.22a6 6 0 0 1-6 6z" fill="none"/></g><g><use xlink:href="#ar" transform="matrix(6.123233995736766e-17,-1,1,6.123233995736766e-17,1512.5111111111112,1677.4231071026952) translate(0 21.2)"/><use xlink:href="#as" transform="matrix(6.123233995736766e-17,-1,1,6.123233995736766e-17,1512.5111111111112,1677.4231071026952) translate(50.55555555555555 21.2)"/></g><g><path d="M751.4 467.08a6 6 0 0 1-6-6v-70.23a6 6 0 0 1 6-6h29.2a6 6 0 0 1 6 6v70.23a6 6 0 0 1-6 6z" fill="none"/></g><g><use xlink:href="#ar" transform="matrix(6.123233995736766e-17,-1,1,6.123233995736766e-17,750.3949999999995,462.08398285022497) translate(0 21.2)"/><use xlink:href="#as" transform="matrix(6.123233995736766e-17,-1,1,6.123233995736766e-17,750.3949999999995,462.08398285022497) translate(50.55555555555555 21.2)"/></g><g><path d="M1397.4 412.04a6 6 0 0 1-6-6v-23.87a6 6 0 0 1 6-6h29.2a6 6 0 0 1 6 6v23.87a6 6 0 0 1-6 6z" fill="none"/></g><g><use xlink:href="#at" transform="matrix(6.123233995736766e-17,-1,1,6.123233995736766e-17,1396.3949999999995,407.03572180905144) translate(0 21.2)"/></g><g><path d="M869.5 623.7a6 6 0 0 1-6-6v-23.87a6 6 0 0 1 6-6h29.2a6 6 0 0 1 6 6v23.87a6 6 0 0 1-6 6z" fill="none"/></g><g><use xlink:href="#at" transform="matrix(6.123233995736766e-17,-1,1,6.123233995736766e-17,868.4919297159431,618.7007617036061) translate(0 21.2)"/></g><g><path d="M869.5 1045.03a6 6 0 0 1-6-6v-23.87a6 6 0 0 1 6-6h29.2a6 6 0 0 1 6 6v23.87a6 6 0 0 1-6 6z" fill="none"/></g><g><use xlink:href="#at" transform="matrix(6.123233995736766e-17,-1,1,6.123233995736766e-17,868.4919297159431,1040.030535098917) translate(0 21.2)"/></g><g><path d="M869.5 1484.24a6 6 0 0 1-6-6v-23.86a6 6 0 0 1 6-6h29.2a6 6 0 0 1 6 6v23.86a6 6 0 0 1-6 6z" fill="none"/></g><g><use xlink:href="#at" transform="matrix(6.123233995736766e-17,-1,1,6.123233995736766e-17,868.4919297159436,1479.242333656427) translate(0 21.2)"/></g><defs><path fill="#3a414a" d="M115-194c53 0 69 39 70 98 0 66-23 100-70 100C84 3 66-7 56-30L54 0H23l1-261h32v101c10-23 28-34 59-34zm-8 174c40 0 45-34 45-75 0-40-5-75-45-74-42 0-51 32-51 76 0 43 10 73 51 73" id="au"/><path fill="#3a414a" d="M179-190L93 31C79 59 56 82 12 73V49c39 6 53-20 64-50L1-190h34L92-34l54-156h33" id="av"/><g id="a"><use transform="matrix(0.08641975308641976,0,0,0.08641975308641976,0,0)" xlink:href="#au"/><use transform="matrix(0.08641975308641976,0,0,0.08641975308641976,17.283950617283953,0)" xlink:href="#av"/><path fill="#3a414a" d="M-1.56 2.16h44.6v2.28h-44.6z"/></g><path fill="#3a414a" d="M108 0H70L1-190h34L89-25l56-165h34" id="aw"/><path fill="#3a414a" d="M141-36C126-15 110 5 73 4 37 3 15-17 15-53c-1-64 63-63 125-63 3-35-9-54-41-54-24 1-41 7-42 31l-33-3c5-37 33-52 76-52 45 0 72 20 72 64v82c-1 20 7 32 28 27v20c-31 9-61-2-59-35zM48-53c0 20 12 33 32 33 41-3 63-29 60-74-43 2-92-5-92 41" id="ax"/><path fill="#3a414a" d="M114-163C36-179 61-72 57 0H25l-1-190h30c1 12-1 29 2 39 6-27 23-49 58-41v29" id="ay"/><path fill="#3a414a" d="M24-231v-30h32v30H24zM24 0v-190h32V0H24" id="az"/><path fill="#3a414a" d="M117-194c89-4 53 116 60 194h-32v-121c0-31-8-49-39-48C34-167 62-67 57 0H25l-1-190h30c1 10-1 24 2 32 11-22 29-35 61-36" id="aA"/><path fill="#3a414a" d="M59-47c-2 24 18 29 38 22v24C64 9 27 4 27-40v-127H5v-23h24l9-43h21v43h35v23H59v120" id="aB"/><path fill="#3a414a" d="M135-143c-3-34-86-38-87 0 15 53 115 12 119 90S17 21 10-45l28-5c4 36 97 45 98 0-10-56-113-15-118-90-4-57 82-63 122-42 12 7 21 19 24 35" id="aC"/><path fill="#3a414a" d="M33-154v-36h34v36H33zM33 0v-36h34V0H33" id="aD"/><g id="b"><use transform="matrix(0.08641975308641976,0,0,0.08641975308641976,0,0)" xlink:href="#aw"/><use transform="matrix(0.08641975308641976,0,0,0.08641975308641976,15.555555555555557,0)" xlink:href="#ax"/><use transform="matrix(0.08641975308641976,0,0,0.08641975308641976,32.839506172839506,0)" xlink:href="#ay"/><use transform="matrix(0.08641975308641976,0,0,0.08641975308641976,43.123456790123456,0)" xlink:href="#az"/><use transform="matrix(0.08641975308641976,0,0,0.08641975308641976,49.95061728395062,0)" xlink:href="#ax"/><use transform="matrix(0.08641975308641976,0,0,0.08641975308641976,67.23456790123457,0)" xlink:href="#aA"/><use transform="matrix(0.08641975308641976,0,0,0.08641975308641976,84.51851851851852,0)" xlink:href="#aB"/><use transform="matrix(0.08641975308641976,0,0,0.08641975308641976,93.16049382716048,0)" xlink:href="#aC"/><use transform="matrix(0.08641975308641976,0,0,0.08641975308641976,108.71604938271604,0)" xlink:href="#aD"/><path fill="#3a414a" d="M-1.56 2.16H118.9v2.28H-1.55z"/></g><path fill="#3a414a" d="M101-234c-31-9-42 10-38 44h38v23H63V0H32v-167H5v-23h27c-7-52 17-82 69-68v24" id="aE"/><path fill="#3a414a" d="M24 0v-261h32V0H24" id="aF"/><path fill="#3a414a" d="M100-194c63 0 86 42 84 106H49c0 40 14 67 53 68 26 1 43-12 49-29l28 8c-11 28-37 45-77 45C44 4 14-33 15-96c1-61 26-98 85-98zm52 81c6-60-76-77-97-28-3 7-6 17-6 28h103" id="aG"/><g id="c"><use transform="matrix(0.08641975308641976,0,0,0.08641975308641976,0,0)" xlink:href="#aE"/><use transform="matrix(0.08641975308641976,0,0,0.08641975308641976,8.641975308641976,0)" xlink:href="#az"/><use transform="matrix(0.08641975308641976,0,0,0.08641975308641976,15.469135802469138,0)" xlink:href="#aF"/><use transform="matrix(0.08641975308641976,0,0,0.08641975308641976,22.296296296296298,0)" xlink:href="#aG"/><use transform="matrix(0.08641975308641976,0,0,0.08641975308641976,39.580246913580254,0)" xlink:href="#aC"/><use transform="matrix(0.08641975308641976,0,0,0.08641975308641976,55.13580246913581,0)" xlink:href="#aD"/><path fill="#3a414a" d="M-1.56 2.16h66.9v2.28h-66.9z"/></g><path fill="#3a414a" d="M84 4C-5 8 30-112 23-190h32v120c0 31 7 50 39 49 72-2 45-101 50-169h31l1 190h-30c-1-10 1-25-2-33-11 22-28 36-60 37" id="aH"/><path fill="#3a414a" d="M96-169c-40 0-48 33-48 73s9 75 48 75c24 0 41-14 43-38l32 2c-6 37-31 61-74 61-59 0-76-41-82-99-10-93 101-131 147-64 4 7 5 14 7 22l-32 3c-4-21-16-35-41-35" id="aI"/><path fill="#3a414a" d="M100-194c62-1 85 37 85 99 1 63-27 99-86 99S16-35 15-95c0-66 28-99 85-99zM99-20c44 1 53-31 53-75 0-43-8-75-51-75s-53 32-53 75 10 74 51 75" id="aJ"/><g id="d"><use transform="matrix(0.07222222222222222,0,0,0.07222222222222222,0,0)" xlink:href="#aC"/><use transform="matrix(0.07222222222222222,0,0,0.07222222222222222,12.999999999999998,0)" xlink:href="#aH"/><use transform="matrix(0.07222222222222222,0,0,0.07222222222222222,27.444444444444443,0)" xlink:href="#au"/><use transform="matrix(0.07222222222222222,0,0,0.07222222222222222,41.888888888888886,0)" xlink:href="#aC"/><use transform="matrix(0.07222222222222222,0,0,0.07222222222222222,54.888888888888886,0)" xlink:href="#aG"/><use transform="matrix(0.07222222222222222,0,0,0.07222222222222222,69.33333333333333,0)" xlink:href="#aI"/><use transform="matrix(0.07222222222222222,0,0,0.07222222222222222,82.33333333333333,0)" xlink:href="#aB"/><use transform="matrix(0.07222222222222222,0,0,0.07222222222222222,89.55555555555554,0)" xlink:href="#az"/><use transform="matrix(0.07222222222222222,0,0,0.07222222222222222,95.26111111111109,0)" xlink:href="#aJ"/><use transform="matrix(0.07222222222222222,0,0,0.07222222222222222,109.70555555555553,0)" xlink:href="#aA"/></g><path fill="#3a414a" d="M137 0h-34L2-248h35l83 218 83-218h36" id="aK"/><g id="e"><use transform="matrix(0.07222222222222222,0,0,0.07222222222222222,0,0)" xlink:href="#aK"/><use transform="matrix(0.07222222222222222,0,0,0.07222222222222222,15.383333333333331,0)" xlink:href="#ax"/><use transform="matrix(0.07222222222222222,0,0,0.07222222222222222,29.827777777777776,0)" xlink:href="#ay"/><use transform="matrix(0.07222222222222222,0,0,0.07222222222222222,38.42222222222222,0)" xlink:href="#az"/><use transform="matrix(0.07222222222222222,0,0,0.07222222222222222,44.12777777777777,0)" xlink:href="#ax"/><use transform="matrix(0.07222222222222222,0,0,0.07222222222222222,58.572222222222216,0)" xlink:href="#aA"/><use transform="matrix(0.07222222222222222,0,0,0.07222222222222222,73.01666666666665,0)" xlink:href="#aB"/></g><path fill="#3a414a" d="M27 0v-27h64v-190l-56 39v-29l58-41h29v221h61V0H27" id="aL"/><use transform="matrix(0.07222222222222222,0,0,0.07222222222222222,0,0)" xlink:href="#aL" id="f"/><path fill="#3a414a" d="M135-150c-39-12-60 13-60 57V0H25l-1-190h47c2 13-1 29 3 40 6-28 27-53 61-41v41" id="aM"/><path fill="#3a414a" d="M110-194c64 0 96 36 96 99 0 64-35 99-97 99-61 0-95-36-95-99 0-62 34-99 96-99zm-1 164c35 0 45-28 45-65 0-40-10-65-43-65-34 0-45 26-45 65 0 36 10 65 43 65" id="aN"/><path fill="#3a414a" d="M115-3C79 11 28 4 28-45v-112H4v-33h27l15-45h31v45h36v33H77v99c-1 23 16 31 38 25v30" id="aO"/><g id="g"><use transform="matrix(0.07222222222222222,0,0,0.07222222222222222,0,0)" xlink:href="#aM"/><use transform="matrix(0.07222222222222222,0,0,0.07222222222222222,10.11111111111111,0)" xlink:href="#aN"/><use transform="matrix(0.07222222222222222,0,0,0.07222222222222222,25.927777777777774,0)" xlink:href="#aN"/><use transform="matrix(0.07222222222222222,0,0,0.07222222222222222,41.74444444444444,0)" xlink:href="#aO"/></g><path fill="#3a414a" d="M169-182c-1-43-94-46-97-3 18 66 151 10 154 114 3 95-165 93-204 36-6-8-10-19-12-30l50-8c3 46 112 56 116 5-17-69-150-10-154-114-4-87 153-88 188-35 5 8 8 18 10 28" id="aP"/><path fill="#3a414a" d="M185-48c-13 30-37 53-82 52C43 2 14-33 14-96s30-98 90-98c62 0 83 45 84 108H66c0 31 8 55 39 56 18 0 30-7 34-22zm-45-69c5-46-57-63-70-21-2 6-4 13-4 21h74" id="aQ"/><path fill="#3a414a" d="M190-63c-7 42-38 67-86 67-59 0-84-38-90-98-12-110 154-137 174-36l-49 2c-2-19-15-32-35-32-30 0-35 28-38 64-6 74 65 87 74 30" id="aR"/><path fill="#3a414a" d="M25-224v-37h50v37H25zM25 0v-190h50V0H25" id="aS"/><path fill="#3a414a" d="M135-194c87-1 58 113 63 194h-50c-7-57 23-157-34-157-59 0-34 97-39 157H25l-1-190h47c2 12-1 28 3 38 12-26 28-41 61-42" id="aT"/><g id="h"><use transform="matrix(0.07222222222222222,0,0,0.07222222222222222,0,0)" xlink:href="#aP"/><use transform="matrix(0.07222222222222222,0,0,0.07222222222222222,17.333333333333332,0)" xlink:href="#aQ"/><use transform="matrix(0.07222222222222222,0,0,0.07222222222222222,31.777777777777775,0)" xlink:href="#aR"/><use transform="matrix(0.07222222222222222,0,0,0.07222222222222222,46.222222222222214,0)" xlink:href="#aO"/><use transform="matrix(0.07222222222222222,0,0,0.07222222222222222,54.816666666666656,0)" xlink:href="#aS"/><use transform="matrix(0.07222222222222222,0,0,0.07222222222222222,62.03888888888888,0)" xlink:href="#aN"/><use transform="matrix(0.07222222222222222,0,0,0.07222222222222222,77.85555555555555,0)" xlink:href="#aT"/></g><path fill="#3a414a" d="M143 0L79-87 56-68V0H24v-261h32v163l83-92h37l-77 82L181 0h-38" id="aU"/><g id="i"><use transform="matrix(0.08641975308641976,0,0,0.08641975308641976,0,0)" xlink:href="#aB"/><use transform="matrix(0.08641975308641976,0,0,0.08641975308641976,8.641975308641976,0)" xlink:href="#ax"/><use transform="matrix(0.08641975308641976,0,0,0.08641975308641976,25.925925925925927,0)" xlink:href="#aU"/><use transform="matrix(0.08641975308641976,0,0,0.08641975308641976,41.48148148148149,0)" xlink:href="#aG"/><use transform="matrix(0.08641975308641976,0,0,0.08641975308641976,58.76543209876545,0)" xlink:href="#aC"/></g><g id="j"><use transform="matrix(0.08641975308641976,0,0,0.08641975308641976,0,0)" xlink:href="#aJ"/><use transform="matrix(0.08641975308641976,0,0,0.08641975308641976,17.283950617283953,0)" xlink:href="#aA"/><use transform="matrix(0.08641975308641976,0,0,0.08641975308641976,34.567901234567906,0)" xlink:href="#aG"/></g><g id="k"><use transform="matrix(0.08641975308641976,0,0,0.08641975308641976,0,0)" xlink:href="#aJ"/><use transform="matrix(0.08641975308641976,0,0,0.08641975308641976,17.283950617283953,0)" xlink:href="#aE"/></g><g id="l"><use transform="matrix(0.08641975308641976,0,0,0.08641975308641976,0,0)" xlink:href="#aC"/><use transform="matrix(0.08641975308641976,0,0,0.08641975308641976,15.555555555555557,0)" xlink:href="#aH"/><use transform="matrix(0.08641975308641976,0,0,0.08641975308641976,32.839506172839506,0)" xlink:href="#au"/><use transform="matrix(0.08641975308641976,0,0,0.08641975308641976,50.123456790123456,0)" xlink:href="#aC"/><use transform="matrix(0.08641975308641976,0,0,0.08641975308641976,65.67901234567901,0)" xlink:href="#aG"/><use transform="matrix(0.08641975308641976,0,0,0.08641975308641976,82.96296296296296,0)" xlink:href="#aI"/><use transform="matrix(0.08641975308641976,0,0,0.08641975308641976,98.5185185185185,0)" xlink:href="#aB"/><use transform="matrix(0.08641975308641976,0,0,0.08641975308641976,107.16049382716048,0)" xlink:href="#az"/><use transform="matrix(0.08641975308641976,0,0,0.08641975308641976,113.98765432098767,0)" xlink:href="#aJ"/><use transform="matrix(0.08641975308641976,0,0,0.08641975308641976,131.27160493827162,0)" xlink:href="#aA"/></g><path fill="#3a414a" d="M85-194c31 0 48 13 60 33l-1-100h32l1 261h-30c-2-10 0-23-3-31C134-8 116 4 85 4 32 4 16-35 15-94c0-66 23-100 70-100zm9 24c-40 0-46 34-46 75 0 40 6 74 45 74 42 0 51-32 51-76 0-42-9-74-50-73" id="aV"/><g id="m"><use transform="matrix(0.08641975308641976,0,0,0.08641975308641976,0,0)" xlink:href="#ax"/><use transform="matrix(0.08641975308641976,0,0,0.08641975308641976,17.283950617283953,0)" xlink:href="#aA"/><use transform="matrix(0.08641975308641976,0,0,0.08641975308641976,34.567901234567906,0)" xlink:href="#aV"/></g><g id="n"><use transform="matrix(0.08641975308641976,0,0,0.08641975308641976,0,0)" xlink:href="#ax"/><use transform="matrix(0.08641975308641976,0,0,0.08641975308641976,17.283950617283953,0)" xlink:href="#aF"/><use transform="matrix(0.08641975308641976,0,0,0.08641975308641976,24.111111111111114,0)" xlink:href="#aF"/></g><g id="o"><use transform="matrix(0.08641975308641976,0,0,0.08641975308641976,0,0)" xlink:href="#az"/><use transform="matrix(0.08641975308641976,0,0,0.08641975308641976,6.8271604938271615,0)" xlink:href="#aB"/><use transform="matrix(0.08641975308641976,0,0,0.08641975308641976,15.469135802469138,0)" xlink:href="#aC"/></g><path fill="#3a414a" d="M141 0L90-78 38 0H4l68-98-65-92h35l48 74 47-74h35l-64 92 68 98h-35" id="aW"/><g id="p"><use transform="matrix(0.08641975308641976,0,0,0.08641975308641976,0,0)" xlink:href="#aG"/><use transform="matrix(0.08641975308641976,0,0,0.08641975308641976,17.283950617283953,0)" xlink:href="#aW"/><use transform="matrix(0.08641975308641976,0,0,0.08641975308641976,32.839506172839506,0)" xlink:href="#aG"/><use transform="matrix(0.08641975308641976,0,0,0.08641975308641976,50.123456790123456,0)" xlink:href="#ay"/><use transform="matrix(0.08641975308641976,0,0,0.08641975308641976,60.407407407407405,0)" xlink:href="#aI"/><use transform="matrix(0.08641975308641976,0,0,0.08641975308641976,75.96296296296296,0)" xlink:href="#az"/><use transform="matrix(0.08641975308641976,0,0,0.08641975308641976,82.79012345679013,0)" xlink:href="#aC"/><use transform="matrix(0.08641975308641976,0,0,0.08641975308641976,98.34567901234568,0)" xlink:href="#aG"/><use transform="matrix(0.08641975308641976,0,0,0.08641975308641976,115.62962962962965,0)" xlink:href="#aC"/><use transform="matrix(0.08641975308641976,0,0,0.08641975308641976,131.1851851851852,0)" xlink:href="#aD"/></g><path fill="#3a414a" d="M277-555c0 244 77 420 297 424 127 2 249-93 255-210h175C980-127 805 20 574 20 258 20 81-222 92-562c11-319 164-533 481-540 237-5 426 165 431 392H829c-7-133-115-242-256-240-209 4-296 166-296 395" id="aX"/><path fill="#3a414a" d="M584 20C278 26 81-227 91-551c10-320 175-545 491-551 308-5 503 247 494 573-9 322-175 543-492 549zm-2-970c-208 0-305 185-305 421 0 216 106 398 307 398 211 0 307-186 307-420 0-214-109-399-309-399" id="aY"/><path fill="#3a414a" d="M341 0H156v-1536h185V0" id="aZ"/><path fill="#3a414a" d="M599-131c141 0 220-65 285-146l113 88C906-50 770 20 589 20 281 21 93-214 93-545c0-223 93-397 233-485 74-48 154-72 240-72 300 2 449 218 445 537v77H278c0 197 129 357 321 357zm227-509c-3-180-88-310-260-310-170 0-264 140-282 310h542" id="ba"/><path fill="#3a414a" d="M456 20C285 20 205-92 206-268v-671H9v-143h197v-262h185v262h202v143H391v671c-9 125 92 149 207 118V0c-49 13-96 20-142 20" id="bb"/><path fill="#3a414a" d="M538-131c121 0 232-49 232-156 0-50-20-88-56-117-73-60-334-92-420-143-92-55-162-110-162-238 0-190 192-317 400-317 223 0 414 129 413 338H759c0-108-110-186-227-186-119 0-215 53-215 159 0 45 18 78 53 101 76 52 331 90 416 139 98 57 169 115 169 251C955-92 760 20 538 20c-176 0-314-68-386-174-38-55-57-115-57-179h185c6 129 116 202 258 202" id="bc"/><g id="q"><use transform="matrix(0.015190972222222224,0,0,0.015190972222222224,0,0)" xlink:href="#aX"/><use transform="matrix(0.015190972222222224,0,0,0.015190972222222224,16.284722222222225,0)" xlink:href="#aY"/><use transform="matrix(0.015190972222222224,0,0,0.015190972222222224,34.027777777777786,0)" xlink:href="#aZ"/><use transform="matrix(0.015190972222222224,0,0,0.015190972222222224,41.57769097222223,0)" xlink:href="#aZ"/><use transform="matrix(0.015190972222222224,0,0,0.015190972222222224,49.12760416666667,0)" xlink:href="#ba"/><use transform="matrix(0.015190972222222224,0,0,0.015190972222222224,65.60980902777779,0)" xlink:href="#aX"/><use transform="matrix(0.015190972222222224,0,0,0.015190972222222224,81.89453125000001,0)" xlink:href="#bb"/><use transform="matrix(0.015190972222222224,0,0,0.015190972222222224,92.05729166666669,0)" xlink:href="#bc"/></g><path fill="#3a414a" d="M561-1102c238-4 403 126 403 351v498c0 99 13 178 38 237V0H808c-11-21-19-59-26-114C696-25 593 20 474 20c-199 0-368-130-365-320 4-251 214-359 490-356h180v-85c-1-135-86-212-229-212-115 0-232 67-233 171H131c20-205 206-316 430-320zM294-326c0 117 90 185 207 185 122 0 239-75 278-162v-222H634c-227 0-340 66-340 199" id="bd"/><g id="r"><use transform="matrix(0.015190972222222224,0,0,0.015190972222222224,0,0)" xlink:href="#bd"/><use transform="matrix(0.015190972222222224,0,0,0.015190972222222224,16.922743055555557,0)" xlink:href="#aZ"/><use transform="matrix(0.015190972222222224,0,0,0.015190972222222224,24.472656250000004,0)" xlink:href="#aZ"/></g><path fill="#3a414a" d="M491 20c-241-1-355-148-355-398v-704h185v699c0 164 67 246 200 246 141 0 235-53 282-158v-787h185V0H812l-4-107C736-22 630 20 491 20" id="be"/><path fill="#3a414a" d="M634-1102c292 0 422 254 422 573 0 298-143 547-420 549-137 0-242-48-317-145L310 0H140v-1536h185v573c75-93 178-139 309-139zm-44 965c207 0 281-175 281-413 0-224-79-395-283-395-122 0-210 57-263 170v468c57 113 145 170 265 170" id="bf"/><path fill="#3a414a" d="M341 0H156v-1082h185V0zm-91-1264c-68 0-108-42-109-105 0-62 41-107 109-107s110 44 110 107-42 105-110 105" id="bg"/><path fill="#3a414a" d="M589-945c-131 0-219 81-264 174V0H140v-1082h175l6 136c83-104 191-156 324-156 229 0 346 129 346 387V0H806v-716c-2-153-65-229-217-229" id="bh"/><path fill="#3a414a" d="M134 290L29 218c97-132 105-239 98-437h181c1 144 5 239-50 347-34 67-74 121-124 162" id="bi"/><g id="s"><use transform="matrix(0.015190972222222224,0,0,0.015190972222222224,0,0)" xlink:href="#bc"/><use transform="matrix(0.015190972222222224,0,0,0.015190972222222224,16.041666666666668,0)" xlink:href="#be"/><use transform="matrix(0.015190972222222224,0,0,0.015190972222222224,33.19227430555556,0)" xlink:href="#bf"/><use transform="matrix(0.015190972222222224,0,0,0.015190972222222224,50.64670138888889,0)" xlink:href="#bc"/><use transform="matrix(0.015190972222222224,0,0,0.015190972222222224,66.68836805555556,0)" xlink:href="#ba"/><use transform="matrix(0.015190972222222224,0,0,0.015190972222222224,83.17057291666667,0)" xlink:href="#aX"/><use transform="matrix(0.015190972222222224,0,0,0.015190972222222224,99.4552951388889,0)" xlink:href="#bb"/><use transform="matrix(0.015190972222222224,0,0,0.015190972222222224,109.61805555555557,0)" xlink:href="#bg"/><use transform="matrix(0.015190972222222224,0,0,0.015190972222222224,117.16796875000001,0)" xlink:href="#aY"/><use transform="matrix(0.015190972222222224,0,0,0.015190972222222224,134.91102430555557,0)" xlink:href="#bh"/><use transform="matrix(0.015190972222222224,0,0,0.015190972222222224,152.07682291666669,0)" xlink:href="#bc"/><use transform="matrix(0.015190972222222224,0,0,0.015190972222222224,168.11848958333334,0)" xlink:href="#bi"/></g><path fill="#3a414a" d="M589-945c-131 0-219 81-264 174V0H140v-1536h185v585c82-101 189-151 320-151 229 0 346 129 346 387V0H806v-716c-2-153-65-229-217-229" id="bj"/><g id="t"><use transform="matrix(0.015190972222222224,0,0,0.015190972222222224,0,0)" xlink:href="#ba"/><use transform="matrix(0.015190972222222224,0,0,0.015190972222222224,16.482204861111114,0)" xlink:href="#bd"/><use transform="matrix(0.015190972222222224,0,0,0.015190972222222224,33.40494791666667,0)" xlink:href="#aX"/><use transform="matrix(0.015190972222222224,0,0,0.015190972222222224,49.6896701388889,0)" xlink:href="#bj"/></g><path fill="#3a414a" d="M704-1390c-164-38-297 28-288 194v114h231v143H416V0H231v-939H60v-143h171v-111c-12-274 208-416 483-347" id="bk"/><g id="u"><use transform="matrix(0.015190972222222224,0,0,0.015190972222222224,0,0)" xlink:href="#aY"/><use transform="matrix(0.015190972222222224,0,0,0.015190972222222224,17.743055555555557,0)" xlink:href="#bk"/></g><path fill="#3a414a" d="M1098-255l208-827h185L1176 0h-150L763-820 507 0H357L43-1082h184l213 810 252-810h149" id="bl"/><g id="v"><use transform="matrix(0.015190972222222224,0,0,0.015190972222222224,0,0)" xlink:href="#bl"/><use transform="matrix(0.015190972222222224,0,0,0.015190972222222224,23.378906250000004,0)" xlink:href="#bj"/><use transform="matrix(0.015190972222222224,0,0,0.015190972222222224,40.51432291666667,0)" xlink:href="#bg"/><use transform="matrix(0.015190972222222224,0,0,0.015190972222222224,48.064236111111114,0)" xlink:href="#aX"/><use transform="matrix(0.015190972222222224,0,0,0.015190972222222224,64.34895833333334,0)" xlink:href="#bj"/></g><path fill="#3a414a" d="M632-1102c291 0 422 251 422 573 0 297-141 548-419 549-131 0-235-42-310-125v521H140v-1498h169l9 120c75-93 180-140 314-140zm-53 971c207 0 290-180 290-419 0-218-92-395-292-395-112 0-196 50-252 149v517c55 99 140 148 254 148" id="bm"/><path fill="#3a414a" d="M663-916c-163-27-288 18-338 148V0H140v-1082h180l3 125c61-97 147-145 258-145 36 0 63 5 82 14v172" id="bn"/><path fill="#3a414a" d="M497-251l268-831h189L566 0H425L33-1082h189" id="bo"/><path fill="#3a414a" d="M520 20C244 20 95-247 95-550c0-298 151-550 427-552 127 0 227 43 301 130v-564h185V0H838l-9-116C755-25 652 20 520 20zm48-965c-210 0-288 177-288 416 0 218 87 392 286 392 117 0 203-53 257-158v-497c-55-102-140-153-255-153" id="bp"/><g id="w"><use transform="matrix(0.015190972222222224,0,0,0.015190972222222224,0,0)" xlink:href="#bm"/><use transform="matrix(0.015190972222222224,0,0,0.015190972222222224,17.454427083333336,0)" xlink:href="#bn"/><use transform="matrix(0.015190972222222224,0,0,0.015190972222222224,27.677951388888893,0)" xlink:href="#aY"/><use transform="matrix(0.015190972222222224,0,0,0.015190972222222224,45.193142361111114,0)" xlink:href="#bo"/><use transform="matrix(0.015190972222222224,0,0,0.015190972222222224,60.26258680555556,0)" xlink:href="#bg"/><use transform="matrix(0.015190972222222224,0,0,0.015190972222222224,67.8125,0)" xlink:href="#bp"/><use transform="matrix(0.015190972222222224,0,0,0.015190972222222224,85.35807291666667,0)" xlink:href="#ba"/><use transform="matrix(0.015190972222222224,0,0,0.015190972222222224,101.84027777777779,0)" xlink:href="#bc"/></g><use transform="matrix(0.015190972222222224,0,0,0.015190972222222224,0,0)" xlink:href="#bd" id="x"/><path fill="#3a414a" d="M521 20C240 20 96-239 96-550c0-303 147-552 427-552 132 0 235 47 309 140l9-120h169V-26c4 277-183 454-459 452-165-1-334-81-400-187l96-111c79 98 176 147 291 147 180 1 288-109 286-290v-93C750-23 649 20 521 20zm48-965c-209 0-287 178-287 416 0 217 86 392 285 392 117 0 202-53 257-159v-494c-57-103-142-155-255-155" id="bq"/><g id="y"><use transform="matrix(0.015190972222222224,0,0,0.015190972222222224,0,0)" xlink:href="#bc"/><use transform="matrix(0.015190972222222224,0,0,0.015190972222222224,16.041666666666668,0)" xlink:href="#bg"/><use transform="matrix(0.015190972222222224,0,0,0.015190972222222224,23.591579861111114,0)" xlink:href="#bh"/><use transform="matrix(0.015190972222222224,0,0,0.015190972222222224,40.75737847222223,0)" xlink:href="#bq"/><use transform="matrix(0.015190972222222224,0,0,0.015190972222222224,58.211805555555564,0)" xlink:href="#aZ"/><use transform="matrix(0.015190972222222224,0,0,0.015190972222222224,65.76171875000001,0)" xlink:href="#ba"/></g><path fill="#3a414a" d="M503-687l240-395h216L605-547 970 0H756L506-405 256 0H41l365-547-354-535h214" id="br"/><g id="z"><use transform="matrix(0.015190972222222224,0,0,0.015190972222222224,0,0)" xlink:href="#ba"/><use transform="matrix(0.015190972222222224,0,0,0.015190972222222224,16.482204861111114,0)" xlink:href="#br"/><use transform="matrix(0.015190972222222224,0,0,0.015190972222222224,31.597222222222225,0)" xlink:href="#ba"/><use transform="matrix(0.015190972222222224,0,0,0.015190972222222224,48.07942708333334,0)" xlink:href="#bn"/><use transform="matrix(0.015190972222222224,0,0,0.015190972222222224,58.31814236111112,0)" xlink:href="#aX"/><use transform="matrix(0.015190972222222224,0,0,0.015190972222222224,74.60286458333334,0)" xlink:href="#bg"/><use transform="matrix(0.015190972222222224,0,0,0.015190972222222224,82.15277777777779,0)" xlink:href="#bc"/><use transform="matrix(0.015190972222222224,0,0,0.015190972222222224,98.19444444444446,0)" xlink:href="#ba"/></g><g id="A"><use transform="matrix(0.07222222222222222,0,0,0.07222222222222222,0,0)" xlink:href="#aG"/><use transform="matrix(0.07222222222222222,0,0,0.07222222222222222,14.444444444444443,0)" xlink:href="#aW"/><use transform="matrix(0.07222222222222222,0,0,0.07222222222222222,27.444444444444443,0)" xlink:href="#aG"/><use transform="matrix(0.07222222222222222,0,0,0.07222222222222222,41.888888888888886,0)" xlink:href="#ay"/><use transform="matrix(0.07222222222222222,0,0,0.07222222222222222,50.48333333333333,0)" xlink:href="#aI"/><use transform="matrix(0.07222222222222222,0,0,0.07222222222222222,63.48333333333333,0)" xlink:href="#az"/><use transform="matrix(0.07222222222222222,0,0,0.07222222222222222,69.18888888888888,0)" xlink:href="#aC"/><use transform="matrix(0.07222222222222222,0,0,0.07222222222222222,82.18888888888888,0)" xlink:href="#aG"/></g><g id="B"><use transform="matrix(0.07222222222222222,0,0,0.07222222222222222,0,0)" xlink:href="#aJ"/><use transform="matrix(0.07222222222222222,0,0,0.07222222222222222,14.444444444444443,0)" xlink:href="#aE"/></g><path fill="#e81313" d="M101-234c-31-9-42 10-38 44h38v23H63V0H32v-167H5v-23h27c-7-52 17-82 69-68v24" id="bs"/><path fill="#e81313" d="M24-231v-30h32v30H24zM24 0v-190h32V0H24" id="bt"/><path fill="#e81313" d="M24 0v-261h32V0H24" id="bu"/><path fill="#e81313" d="M100-194c63 0 86 42 84 106H49c0 40 14 67 53 68 26 1 43-12 49-29l28 8c-11 28-37 45-77 45C44 4 14-33 15-96c1-61 26-98 85-98zm52 81c6-60-76-77-97-28-3 7-6 17-6 28h103" id="bv"/><path fill="#e81313" d="M-5 72V49h209v23H-5" id="bw"/><path fill="#e81313" d="M27 0v-27h64v-190l-56 39v-29l58-41h29v221h61V0H27" id="bx"/><g id="C"><use transform="matrix(0.07222222222222222,0,0,0.07222222222222222,0,0)" xlink:href="#bs"/><use transform="matrix(0.07222222222222222,0,0,0.07222222222222222,7.222222222222221,0)" xlink:href="#bt"/><use transform="matrix(0.07222222222222222,0,0,0.07222222222222222,12.927777777777777,0)" xlink:href="#bu"/><use transform="matrix(0.07222222222222222,0,0,0.07222222222222222,18.633333333333333,0)" xlink:href="#bv"/><use transform="matrix(0.07222222222222222,0,0,0.07222222222222222,33.077777777777776,0)" xlink:href="#bw"/><use transform="matrix(0.07222222222222222,0,0,0.07222222222222222,47.52222222222222,0)" xlink:href="#bx"/></g><path fill="#3a414a" d="M206 0h-36l-40-164L89 0H53L-1-190h32L70-26l43-164h34l41 164 42-164h31" id="by"/><path fill="#3a414a" d="M106-169C34-169 62-67 57 0H25v-261h32l-1 103c12-21 28-36 61-36 89 0 53 116 60 194h-32v-121c2-32-8-49-39-48" id="bz"/><g id="D"><use transform="matrix(0.07222222222222222,0,0,0.07222222222222222,0,0)" xlink:href="#by"/><use transform="matrix(0.07222222222222222,0,0,0.07222222222222222,18.705555555555552,0)" xlink:href="#az"/><use transform="matrix(0.07222222222222222,0,0,0.07222222222222222,24.411111111111108,0)" xlink:href="#aB"/><use transform="matrix(0.07222222222222222,0,0,0.07222222222222222,31.63333333333333,0)" xlink:href="#bz"/></g><g id="E"><use transform="matrix(0.07222222222222222,0,0,0.07222222222222222,0,0)" xlink:href="#aC"/><use transform="matrix(0.07222222222222222,0,0,0.07222222222222222,12.999999999999998,0)" xlink:href="#aG"/><use transform="matrix(0.07222222222222222,0,0,0.07222222222222222,27.444444444444443,0)" xlink:href="#aG"/><use transform="matrix(0.07222222222222222,0,0,0.07222222222222222,41.888888888888886,0)" xlink:href="#aV"/></g><use transform="matrix(0.07222222222222222,0,0,0.07222222222222222,0,0)" xlink:href="#aL" id="F"/><g id="G"><use transform="matrix(0.07222222222222222,0,0,0.07222222222222222,0,0)" xlink:href="#aG"/><use transform="matrix(0.07222222222222222,0,0,0.07222222222222222,14.444444444444443,0)" xlink:href="#aW"/><use transform="matrix(0.07222222222222222,0,0,0.07222222222222222,27.444444444444443,0)" xlink:href="#aG"/><use transform="matrix(0.07222222222222222,0,0,0.07222222222222222,41.888888888888886,0)" xlink:href="#ay"/><use transform="matrix(0.07222222222222222,0,0,0.07222222222222222,50.48333333333333,0)" xlink:href="#aI"/><use transform="matrix(0.07222222222222222,0,0,0.07222222222222222,63.48333333333333,0)" xlink:href="#az"/><use transform="matrix(0.07222222222222222,0,0,0.07222222222222222,69.18888888888888,0)" xlink:href="#aC"/><use transform="matrix(0.07222222222222222,0,0,0.07222222222222222,82.18888888888888,0)" xlink:href="#aG"/></g><g id="H"><use transform="matrix(0.07222222222222222,0,0,0.07222222222222222,0,0)" xlink:href="#aJ"/><use transform="matrix(0.07222222222222222,0,0,0.07222222222222222,14.444444444444443,0)" xlink:href="#aE"/></g><path fill="#008a0e" d="M101-234c-31-9-42 10-38 44h38v23H63V0H32v-167H5v-23h27c-7-52 17-82 69-68v24" id="bA"/><path fill="#008a0e" d="M24-231v-30h32v30H24zM24 0v-190h32V0H24" id="bB"/><path fill="#008a0e" d="M24 0v-261h32V0H24" id="bC"/><path fill="#008a0e" d="M100-194c63 0 86 42 84 106H49c0 40 14 67 53 68 26 1 43-12 49-29l28 8c-11 28-37 45-77 45C44 4 14-33 15-96c1-61 26-98 85-98zm52 81c6-60-76-77-97-28-3 7-6 17-6 28h103" id="bD"/><path fill="#008a0e" d="M-5 72V49h209v23H-5" id="bE"/><path fill="#008a0e" d="M101-251c82-7 93 87 43 132L82-64C71-53 59-42 53-27h129V0H18c2-99 128-94 128-182 0-28-16-43-45-43s-46 15-49 41l-32-3c6-41 34-60 81-64" id="bF"/><g id="I"><use transform="matrix(0.07222222222222222,0,0,0.07222222222222222,0,0)" xlink:href="#bA"/><use transform="matrix(0.07222222222222222,0,0,0.07222222222222222,7.222222222222221,0)" xlink:href="#bB"/><use transform="matrix(0.07222222222222222,0,0,0.07222222222222222,12.927777777777777,0)" xlink:href="#bC"/><use transform="matrix(0.07222222222222222,0,0,0.07222222222222222,18.633333333333333,0)" xlink:href="#bD"/><use transform="matrix(0.07222222222222222,0,0,0.07222222222222222,33.077777777777776,0)" xlink:href="#bE"/><use transform="matrix(0.07222222222222222,0,0,0.07222222222222222,47.52222222222222,0)" xlink:href="#bF"/></g><g id="J"><use transform="matrix(0.07222222222222222,0,0,0.07222222222222222,0,0)" xlink:href="#by"/><use transform="matrix(0.07222222222222222,0,0,0.07222222222222222,18.705555555555552,0)" xlink:href="#az"/><use transform="matrix(0.07222222222222222,0,0,0.07222222222222222,24.411111111111108,0)" xlink:href="#aB"/><use transform="matrix(0.07222222222222222,0,0,0.07222222222222222,31.63333333333333,0)" xlink:href="#bz"/></g><g id="K"><use transform="matrix(0.07222222222222222,0,0,0.07222222222222222,0,0)" xlink:href="#aC"/><use transform="matrix(0.07222222222222222,0,0,0.07222222222222222,12.999999999999998,0)" xlink:href="#aG"/><use transform="matrix(0.07222222222222222,0,0,0.07222222222222222,27.444444444444443,0)" xlink:href="#aG"/><use transform="matrix(0.07222222222222222,0,0,0.07222222222222222,41.888888888888886,0)" xlink:href="#aV"/></g><path fill="#1071e5" d="M101-234c-31-9-42 10-38 44h38v23H63V0H32v-167H5v-23h27c-7-52 17-82 69-68v24" id="bG"/><path fill="#1071e5" d="M24-231v-30h32v30H24zM24 0v-190h32V0H24" id="bH"/><path fill="#1071e5" d="M24 0v-261h32V0H24" id="bI"/><path fill="#1071e5" d="M100-194c63 0 86 42 84 106H49c0 40 14 67 53 68 26 1 43-12 49-29l28 8c-11 28-37 45-77 45C44 4 14-33 15-96c1-61 26-98 85-98zm52 81c6-60-76-77-97-28-3 7-6 17-6 28h103" id="bJ"/><path fill="#1071e5" d="M-5 72V49h209v23H-5" id="bK"/><path fill="#1071e5" d="M126-127c33 6 58 20 58 59 0 88-139 92-164 29-3-8-5-16-6-25l32-3c6 27 21 44 54 44 32 0 52-15 52-46 0-38-36-46-79-43v-28c39 1 72-4 72-42 0-27-17-43-46-43-28 0-47 15-49 41l-32-3c6-42 35-63 81-64 48-1 79 21 79 65 0 36-21 52-52 59" id="bL"/><g id="L"><use transform="matrix(0.07222222222222222,0,0,0.07222222222222222,0,0)" xlink:href="#bG"/><use transform="matrix(0.07222222222222222,0,0,0.07222222222222222,7.222222222222221,0)" xlink:href="#bH"/><use transform="matrix(0.07222222222222222,0,0,0.07222222222222222,12.927777777777777,0)" xlink:href="#bI"/><use transform="matrix(0.07222222222222222,0,0,0.07222222222222222,18.633333333333333,0)" xlink:href="#bJ"/><use transform="matrix(0.07222222222222222,0,0,0.07222222222222222,33.077777777777776,0)" xlink:href="#bK"/><use transform="matrix(0.07222222222222222,0,0,0.07222222222222222,47.52222222222222,0)" xlink:href="#bL"/></g><path fill="#cc4e00" d="M101-234c-31-9-42 10-38 44h38v23H63V0H32v-167H5v-23h27c-7-52 17-82 69-68v24" id="bM"/><path fill="#cc4e00" d="M24-231v-30h32v30H24zM24 0v-190h32V0H24" id="bN"/><path fill="#cc4e00" d="M24 0v-261h32V0H24" id="bO"/><path fill="#cc4e00" d="M100-194c63 0 86 42 84 106H49c0 40 14 67 53 68 26 1 43-12 49-29l28 8c-11 28-37 45-77 45C44 4 14-33 15-96c1-61 26-98 85-98zm52 81c6-60-76-77-97-28-3 7-6 17-6 28h103" id="bP"/><path fill="#cc4e00" d="M-5 72V49h209v23H-5" id="bQ"/><path fill="#cc4e00" d="M155-56V0h-30v-56H8v-25l114-167h33v167h35v25h-35zm-30-156c-27 46-58 90-88 131h88v-131" id="bR"/><g id="M"><use transform="matrix(0.07222222222222222,0,0,0.07222222222222222,0,0)" xlink:href="#bM"/><use transform="matrix(0.07222222222222222,0,0,0.07222222222222222,7.222222222222221,0)" xlink:href="#bN"/><use transform="matrix(0.07222222222222222,0,0,0.07222222222222222,12.927777777777777,0)" xlink:href="#bO"/><use transform="matrix(0.07222222222222222,0,0,0.07222222222222222,18.633333333333333,0)" xlink:href="#bP"/><use transform="matrix(0.07222222222222222,0,0,0.07222222222222222,33.077777777777776,0)" xlink:href="#bQ"/><use transform="matrix(0.07222222222222222,0,0,0.07222222222222222,47.52222222222222,0)" xlink:href="#bR"/></g><g id="N"><use transform="matrix(0.08641975308641976,0,0,0.08641975308641976,0,0)" xlink:href="#by"/><use transform="matrix(0.08641975308641976,0,0,0.08641975308641976,22.38271604938272,0)" xlink:href="#aG"/></g><g id="O"><use transform="matrix(0.08641975308641976,0,0,0.08641975308641976,0,0)" xlink:href="#ax"/><use transform="matrix(0.08641975308641976,0,0,0.08641975308641976,17.283950617283953,0)" xlink:href="#ay"/><use transform="matrix(0.08641975308641976,0,0,0.08641975308641976,27.567901234567906,0)" xlink:href="#aG"/></g><path fill="#3a414a" d="M177-190C167-65 218 103 67 71c-23-6-38-20-44-43l32-5c15 47 100 32 89-28v-30C133-14 115 1 83 1 29 1 15-40 15-95c0-56 16-97 71-98 29-1 48 16 59 35 1-10 0-23 2-32h30zM94-22c36 0 50-32 50-73 0-42-14-75-50-75-39 0-46 34-46 75s6 73 46 73" id="bS"/><g id="P"><use transform="matrix(0.08641975308641976,0,0,0.08641975308641976,0,0)" xlink:href="#bS"/><use transform="matrix(0.08641975308641976,0,0,0.08641975308641976,17.283950617283953,0)" xlink:href="#aJ"/><use transform="matrix(0.08641975308641976,0,0,0.08641975308641976,34.567901234567906,0)" xlink:href="#az"/><use transform="matrix(0.08641975308641976,0,0,0.08641975308641976,41.39506172839506,0)" xlink:href="#aA"/><use transform="matrix(0.08641975308641976,0,0,0.08641975308641976,58.679012345679006,0)" xlink:href="#bS"/></g><g id="Q"><use transform="matrix(0.08641975308641976,0,0,0.08641975308641976,0,0)" xlink:href="#aB"/><use transform="matrix(0.08641975308641976,0,0,0.08641975308641976,8.641975308641976,0)" xlink:href="#aJ"/></g><path fill="#3a414a" d="M210-169c-67 3-38 105-44 169h-31v-121c0-29-5-50-35-48C34-165 62-65 56 0H25l-1-190h30c1 10-1 24 2 32 10-44 99-50 107 0 11-21 27-35 58-36 85-2 47 119 55 194h-31v-121c0-29-5-49-35-48" id="bT"/><g id="R"><use transform="matrix(0.08641975308641976,0,0,0.08641975308641976,0,0)" xlink:href="#aI"/><use transform="matrix(0.08641975308641976,0,0,0.08641975308641976,15.555555555555557,0)" xlink:href="#aJ"/><use transform="matrix(0.08641975308641976,0,0,0.08641975308641976,32.839506172839506,0)" xlink:href="#bT"/><use transform="matrix(0.08641975308641976,0,0,0.08641975308641976,58.679012345679006,0)" xlink:href="#au"/><use transform="matrix(0.08641975308641976,0,0,0.08641975308641976,75.96296296296296,0)" xlink:href="#az"/><use transform="matrix(0.08641975308641976,0,0,0.08641975308641976,82.79012345679013,0)" xlink:href="#aA"/><use transform="matrix(0.08641975308641976,0,0,0.08641975308641976,100.07407407407409,0)" xlink:href="#aG"/></g><use transform="matrix(0.08641975308641976,0,0,0.08641975308641976,0,0)" xlink:href="#ax" id="S"/><g id="T"><use transform="matrix(0.08641975308641976,0,0,0.08641975308641976,0,0)" xlink:href="#ay"/><use transform="matrix(0.08641975308641976,0,0,0.08641975308641976,10.283950617283951,0)" xlink:href="#aJ"/><use transform="matrix(0.08641975308641976,0,0,0.08641975308641976,27.567901234567906,0)" xlink:href="#aJ"/><use transform="matrix(0.08641975308641976,0,0,0.08641975308641976,44.85185185185187,0)" xlink:href="#aB"/></g><g id="U"><use transform="matrix(0.08641975308641976,0,0,0.08641975308641976,0,0)" xlink:href="#aC"/><use transform="matrix(0.08641975308641976,0,0,0.08641975308641976,15.555555555555557,0)" xlink:href="#aG"/><use transform="matrix(0.08641975308641976,0,0,0.08641975308641976,32.839506172839506,0)" xlink:href="#aI"/><use transform="matrix(0.08641975308641976,0,0,0.08641975308641976,48.39506172839506,0)" xlink:href="#aB"/><use transform="matrix(0.08641975308641976,0,0,0.08641975308641976,57.03703703703703,0)" xlink:href="#az"/><use transform="matrix(0.08641975308641976,0,0,0.08641975308641976,63.8641975308642,0)" xlink:href="#aJ"/><use transform="matrix(0.08641975308641976,0,0,0.08641975308641976,81.14814814814815,0)" xlink:href="#aA"/></g><g id="V"><use transform="matrix(0.08641975308641976,0,0,0.08641975308641976,0,0)" xlink:href="#aE"/><use transform="matrix(0.08641975308641976,0,0,0.08641975308641976,8.641975308641976,0)" xlink:href="#aJ"/><use transform="matrix(0.08641975308641976,0,0,0.08641975308641976,25.925925925925927,0)" xlink:href="#ay"/></g><path fill="#3a414a" d="M127-220V0H93v-220H8v-28h204v28h-85" id="bU"/><g id="W"><use transform="matrix(0.08641975308641976,0,0,0.08641975308641976,0,0)" xlink:href="#bU"/><use transform="matrix(0.08641975308641976,0,0,0.08641975308641976,15.469135802469134,0)" xlink:href="#aG"/><use transform="matrix(0.08641975308641976,0,0,0.08641975308641976,32.75308641975309,0)" xlink:href="#aC"/><use transform="matrix(0.08641975308641976,0,0,0.08641975308641976,48.308641975308646,0)" xlink:href="#aB"/></g><g id="X"><use transform="matrix(0.08641975308641976,0,0,0.08641975308641976,0,0)" xlink:href="#by"/><use transform="matrix(0.08641975308641976,0,0,0.08641975308641976,22.38271604938272,0)" xlink:href="#az"/><use transform="matrix(0.08641975308641976,0,0,0.08641975308641976,29.20987654320988,0)" xlink:href="#aB"/><use transform="matrix(0.08641975308641976,0,0,0.08641975308641976,37.851851851851855,0)" xlink:href="#bz"/></g><path fill="#3a414a" d="M128-127c34 4 56 21 59 58 7 91-148 94-172 28-4-9-6-17-7-26l51-5c1 24 16 35 40 36 23 0 39-12 38-36-1-31-31-36-65-34v-40c32 2 59-3 59-33 0-20-13-33-34-33s-33 13-35 32l-50-3c6-44 37-68 86-68 50 0 83 20 83 66 0 35-22 52-53 58" id="bV"/><use transform="matrix(0.08641975308641976,0,0,0.08641975308641976,0,0)" xlink:href="#bV" id="Y"/><path fill="#3a414a" d="M128 0H69L1-190h53L99-40l48-150h52" id="bW"/><path fill="#3a414a" d="M133-34C117-15 103 5 69 4 32 3 11-16 11-54c-1-60 55-63 116-61 1-26-3-47-28-47-18 1-26 9-28 27l-52-2c7-38 36-58 82-57s74 22 75 68l1 82c-1 14 12 18 25 15v27c-30 8-71 5-69-32zm-48 3c29 0 43-24 42-57-32 0-66-3-65 30 0 17 8 27 23 27" id="bX"/><path fill="#3a414a" d="M137-138c1-29-70-34-71-4 15 46 118 7 119 86 1 83-164 76-172 9l43-7c4 19 20 25 44 25 33 8 57-30 24-41C81-84 22-81 20-136c-2-80 154-74 161-7" id="bY"/><g id="Z"><use transform="matrix(0.08641975308641976,0,0,0.08641975308641976,0,0)" xlink:href="#bW"/><use transform="matrix(0.08641975308641976,0,0,0.08641975308641976,17.283950617283953,0)" xlink:href="#bX"/><use transform="matrix(0.08641975308641976,0,0,0.08641975308641976,34.567901234567906,0)" xlink:href="#aM"/><use transform="matrix(0.08641975308641976,0,0,0.08641975308641976,46.66666666666667,0)" xlink:href="#aS"/><use transform="matrix(0.08641975308641976,0,0,0.08641975308641976,55.308641975308646,0)" xlink:href="#bX"/><use transform="matrix(0.08641975308641976,0,0,0.08641975308641976,72.5925925925926,0)" xlink:href="#aT"/><use transform="matrix(0.08641975308641976,0,0,0.08641975308641976,91.51851851851853,0)" xlink:href="#aO"/><use transform="matrix(0.08641975308641976,0,0,0.08641975308641976,101.80246913580245,0)" xlink:href="#bY"/></g><g id="aa"><use transform="matrix(0.08641975308641976,0,0,0.08641975308641976,0,0)" xlink:href="#aE"/><use transform="matrix(0.08641975308641976,0,0,0.08641975308641976,8.641975308641976,0)" xlink:href="#ay"/><use transform="matrix(0.08641975308641976,0,0,0.08641975308641976,18.925925925925927,0)" xlink:href="#aJ"/><use transform="matrix(0.08641975308641976,0,0,0.08641975308641976,36.20987654320988,0)" xlink:href="#bT"/></g><path fill="#3a414a" d="M155-56V0h-30v-56H8v-25l114-167h33v167h35v25h-35zm-30-156c-27 46-58 90-88 131h88v-131" id="bZ"/><use transform="matrix(0.08641975308641976,0,0,0.08641975308641976,0,0)" xlink:href="#bZ" id="ab"/><g id="ac"><use transform="matrix(0.08641975308641976,0,0,0.08641975308641976,0,0)" xlink:href="#aG"/><use transform="matrix(0.08641975308641976,0,0,0.08641975308641976,17.283950617283953,0)" xlink:href="#aW"/><use transform="matrix(0.08641975308641976,0,0,0.08641975308641976,32.839506172839506,0)" xlink:href="#aG"/><use transform="matrix(0.08641975308641976,0,0,0.08641975308641976,50.123456790123456,0)" xlink:href="#ay"/><use transform="matrix(0.08641975308641976,0,0,0.08641975308641976,60.407407407407405,0)" xlink:href="#aI"/><use transform="matrix(0.08641975308641976,0,0,0.08641975308641976,75.96296296296296,0)" xlink:href="#az"/><use transform="matrix(0.08641975308641976,0,0,0.08641975308641976,82.79012345679013,0)" xlink:href="#aC"/><use transform="matrix(0.08641975308641976,0,0,0.08641975308641976,98.34567901234568,0)" xlink:href="#aG"/></g><g id="ad"><use transform="matrix(0.08641975308641976,0,0,0.08641975308641976,0,0)" xlink:href="#aE"/><use transform="matrix(0.08641975308641976,0,0,0.08641975308641976,8.641975308641976,0)" xlink:href="#az"/><use transform="matrix(0.08641975308641976,0,0,0.08641975308641976,15.469135802469138,0)" xlink:href="#aF"/><use transform="matrix(0.08641975308641976,0,0,0.08641975308641976,22.296296296296298,0)" xlink:href="#aG"/><use transform="matrix(0.08641975308641976,0,0,0.08641975308641976,39.580246913580254,0)" xlink:href="#aC"/><use transform="matrix(0.08641975308641976,0,0,0.08641975308641976,55.13580246913581,0)" xlink:href="#aD"/></g><path fill="#3a414a" d="M68-38c1 34 0 65-14 84H32c9-13 17-26 17-46H33v-38h35" id="ca"/><g id="ae"><use transform="matrix(0.08641975308641976,0,0,0.08641975308641976,0,0)" xlink:href="#bs"/><use transform="matrix(0.08641975308641976,0,0,0.08641975308641976,8.641975308641976,0)" xlink:href="#bt"/><use transform="matrix(0.08641975308641976,0,0,0.08641975308641976,15.469135802469138,0)" xlink:href="#bu"/><use transform="matrix(0.08641975308641976,0,0,0.08641975308641976,22.296296296296298,0)" xlink:href="#bv"/><use transform="matrix(0.08641975308641976,0,0,0.08641975308641976,39.580246913580254,0)" xlink:href="#bw"/><use transform="matrix(0.08641975308641976,0,0,0.08641975308641976,56.8641975308642,0)" xlink:href="#bx"/><use transform="matrix(0.08641975308641976,0,0,0.08641975308641976,74.14814814814815,0)" xlink:href="#ca"/></g><g id="af"><use transform="matrix(0.08641975308641976,0,0,0.08641975308641976,0,0)" xlink:href="#bA"/><use transform="matrix(0.08641975308641976,0,0,0.08641975308641976,8.641975308641976,0)" xlink:href="#bB"/><use transform="matrix(0.08641975308641976,0,0,0.08641975308641976,15.469135802469138,0)" xlink:href="#bC"/><use transform="matrix(0.08641975308641976,0,0,0.08641975308641976,22.296296296296298,0)" xlink:href="#bD"/><use transform="matrix(0.08641975308641976,0,0,0.08641975308641976,39.580246913580254,0)" xlink:href="#bE"/><use transform="matrix(0.08641975308641976,0,0,0.08641975308641976,56.8641975308642,0)" xlink:href="#bF"/><use transform="matrix(0.08641975308641976,0,0,0.08641975308641976,74.14814814814815,0)" xlink:href="#ca"/></g><g id="ag"><use transform="matrix(0.08641975308641976,0,0,0.08641975308641976,0,0)" xlink:href="#bG"/><use transform="matrix(0.08641975308641976,0,0,0.08641975308641976,8.641975308641976,0)" xlink:href="#bH"/><use transform="matrix(0.08641975308641976,0,0,0.08641975308641976,15.469135802469138,0)" xlink:href="#bI"/><use transform="matrix(0.08641975308641976,0,0,0.08641975308641976,22.296296296296298,0)" xlink:href="#bJ"/><use transform="matrix(0.08641975308641976,0,0,0.08641975308641976,39.580246913580254,0)" xlink:href="#bK"/><use transform="matrix(0.08641975308641976,0,0,0.08641975308641976,56.8641975308642,0)" xlink:href="#bL"/><use transform="matrix(0.08641975308641976,0,0,0.08641975308641976,74.14814814814815,0)" xlink:href="#ca"/></g><g id="ah"><use transform="matrix(0.08641975308641976,0,0,0.08641975308641976,0,0)" xlink:href="#bM"/><use transform="matrix(0.08641975308641976,0,0,0.08641975308641976,8.641975308641976,0)" xlink:href="#bN"/><use transform="matrix(0.08641975308641976,0,0,0.08641975308641976,15.469135802469138,0)" xlink:href="#bO"/><use transform="matrix(0.08641975308641976,0,0,0.08641975308641976,22.296296296296298,0)" xlink:href="#bP"/><use transform="matrix(0.08641975308641976,0,0,0.08641975308641976,39.580246913580254,0)" xlink:href="#bQ"/><use transform="matrix(0.08641975308641976,0,0,0.08641975308641976,56.8641975308642,0)" xlink:href="#bR"/></g><path fill="#3a414a" d="M101-251c82-7 93 87 43 132L82-64C71-53 59-42 53-27h129V0H18c2-99 128-94 128-182 0-28-16-43-45-43s-46 15-49 41l-32-3c6-41 34-60 81-64" id="cb"/><use transform="matrix(0.07222222222222222,0,0,0.07222222222222222,0,0)" xlink:href="#cb" id="ai"/><g id="aj"><use transform="matrix(0.07222222222222222,0,0,0.07222222222222222,0,0)" xlink:href="#bs"/><use transform="matrix(0.07222222222222222,0,0,0.07222222222222222,7.222222222222221,0)" xlink:href="#bt"/><use transform="matrix(0.07222222222222222,0,0,0.07222222222222222,12.927777777777777,0)" xlink:href="#bu"/><use transform="matrix(0.07222222222222222,0,0,0.07222222222222222,18.633333333333333,0)" xlink:href="#bv"/><use transform="matrix(0.07222222222222222,0,0,0.07222222222222222,33.077777777777776,0)" xlink:href="#bw"/><use transform="matrix(0.07222222222222222,0,0,0.07222222222222222,47.52222222222222,0)" xlink:href="#bx"/></g><g id="ak"><use transform="matrix(0.07222222222222222,0,0,0.07222222222222222,0,0)" xlink:href="#bs"/><use transform="matrix(0.07222222222222222,0,0,0.07222222222222222,7.222222222222221,0)" xlink:href="#bt"/><use transform="matrix(0.07222222222222222,0,0,0.07222222222222222,12.927777777777777,0)" xlink:href="#bu"/><use transform="matrix(0.07222222222222222,0,0,0.07222222222222222,18.633333333333333,0)" xlink:href="#bv"/><use transform="matrix(0.07222222222222222,0,0,0.07222222222222222,33.077777777777776,0)" xlink:href="#bw"/><use transform="matrix(0.07222222222222222,0,0,0.07222222222222222,47.52222222222222,0)" xlink:href="#bx"/></g><path fill="#3a414a" d="M126-127c33 6 58 20 58 59 0 88-139 92-164 29-3-8-5-16-6-25l32-3c6 27 21 44 54 44 32 0 52-15 52-46 0-38-36-46-79-43v-28c39 1 72-4 72-42 0-27-17-43-46-43-28 0-47 15-49 41l-32-3c6-42 35-63 81-64 48-1 79 21 79 65 0 36-21 52-52 59" id="cc"/><use transform="matrix(0.07222222222222222,0,0,0.07222222222222222,0,0)" xlink:href="#cc" id="al"/><g id="am"><use transform="matrix(0.07222222222222222,0,0,0.07222222222222222,0,0)" xlink:href="#bA"/><use transform="matrix(0.07222222222222222,0,0,0.07222222222222222,7.222222222222221,0)" xlink:href="#bB"/><use transform="matrix(0.07222222222222222,0,0,0.07222222222222222,12.927777777777777,0)" xlink:href="#bC"/><use transform="matrix(0.07222222222222222,0,0,0.07222222222222222,18.633333333333333,0)" xlink:href="#bD"/><use transform="matrix(0.07222222222222222,0,0,0.07222222222222222,33.077777777777776,0)" xlink:href="#bE"/><use transform="matrix(0.07222222222222222,0,0,0.07222222222222222,47.52222222222222,0)" xlink:href="#bF"/></g><g id="an"><use transform="matrix(0.07222222222222222,0,0,0.07222222222222222,0,0)" xlink:href="#bG"/><use transform="matrix(0.07222222222222222,0,0,0.07222222222222222,7.222222222222221,0)" xlink:href="#bH"/><use transform="matrix(0.07222222222222222,0,0,0.07222222222222222,12.927777777777777,0)" xlink:href="#bI"/><use transform="matrix(0.07222222222222222,0,0,0.07222222222222222,18.633333333333333,0)" xlink:href="#bJ"/><use transform="matrix(0.07222222222222222,0,0,0.07222222222222222,33.077777777777776,0)" xlink:href="#bK"/><use transform="matrix(0.07222222222222222,0,0,0.07222222222222222,47.52222222222222,0)" xlink:href="#bL"/></g><g id="ao"><use transform="matrix(0.07222222222222222,0,0,0.07222222222222222,0,0)" xlink:href="#bM"/><use transform="matrix(0.07222222222222222,0,0,0.07222222222222222,7.222222222222221,0)" xlink:href="#bN"/><use transform="matrix(0.07222222222222222,0,0,0.07222222222222222,12.927777777777777,0)" xlink:href="#bO"/><use transform="matrix(0.07222222222222222,0,0,0.07222222222222222,18.633333333333333,0)" xlink:href="#bP"/><use transform="matrix(0.07222222222222222,0,0,0.07222222222222222,33.077777777777776,0)" xlink:href="#bQ"/><use transform="matrix(0.07222222222222222,0,0,0.07222222222222222,47.52222222222222,0)" xlink:href="#bR"/></g><g id="ap"><use transform="matrix(0.07222222222222222,0,0,0.07222222222222222,0,0)" xlink:href="#bM"/><use transform="matrix(0.07222222222222222,0,0,0.07222222222222222,7.222222222222221,0)" xlink:href="#bN"/><use transform="matrix(0.07222222222222222,0,0,0.07222222222222222,12.927777777777777,0)" xlink:href="#bO"/><use transform="matrix(0.07222222222222222,0,0,0.07222222222222222,18.633333333333333,0)" xlink:href="#bP"/><use transform="matrix(0.07222222222222222,0,0,0.07222222222222222,33.077777777777776,0)" xlink:href="#bQ"/><use transform="matrix(0.07222222222222222,0,0,0.07222222222222222,47.52222222222222,0)" xlink:href="#bR"/></g><g id="aq"><use transform="matrix(0.07222222222222222,0,0,0.07222222222222222,0,0)" xlink:href="#by"/><use transform="matrix(0.07222222222222222,0,0,0.07222222222222222,18.705555555555552,0)" xlink:href="#az"/><use transform="matrix(0.07222222222222222,0,0,0.07222222222222222,24.411111111111108,0)" xlink:href="#aB"/><use transform="matrix(0.07222222222222222,0,0,0.07222222222222222,31.63333333333333,0)" xlink:href="#bz"/></g><g id="ar"><use transform="matrix(0.07222222222222222,0,0,0.07222222222222222,0,0)" xlink:href="#aJ"/><use transform="matrix(0.07222222222222222,0,0,0.07222222222222222,14.444444444444443,0)" xlink:href="#aA"/><use transform="matrix(0.07222222222222222,0,0,0.07222222222222222,28.888888888888886,0)" xlink:href="#aG"/></g><g id="as"><use transform="matrix(0.07222222222222222,0,0,0.07222222222222222,0,0)" xlink:href="#aJ"/><use transform="matrix(0.07222222222222222,0,0,0.07222222222222222,14.444444444444443,0)" xlink:href="#aE"/></g><g id="at"><use transform="matrix(0.07222222222222222,0,0,0.07222222222222222,0,0)" xlink:href="#ax"/><use transform="matrix(0.07222222222222222,0,0,0.07222222222222222,14.444444444444443,0)" xlink:href="#aF"/><use transform="matrix(0.07222222222222222,0,0,0.07222222222222222,20.15,0)" xlink:href="#aF"/></g></defs></g></svg>