<svg xmlns="http://www.w3.org/2000/svg" xmlns:xlink="http://www.w3.org/1999/xlink" xmlns:lucid="lucid" width="1217.19" height="1509.21"><g transform="translate(740.4957515151102 268.9765688587622)" lucid:page-tab-id="0_0"><path d="M-730.78 397.2H465.35M-730.73 397.2h-2.05M465.3 397.2h2.05" stroke="#979ea8" stroke-width="4" fill="none"/><path d="M-339.43-97.3a6 6 0 0 1 6-6H-31.4a6 6 0 0 1 6 6v44.25a6 6 0 0 1-6 6h-302.03a6 6 0 0 1-6-6z" stroke="#3a414a" stroke-width="3" fill="#fff"/><path d="M-321.8-89.78a6 6 0 0 1 6-6h266.78a6 6 0 0 1 6 6v29.2a6 6 0 0 1-6 6h-266.8a6 6 0 0 1-6-6z" fill="none"/><use xlink:href="#a" transform="matrix(1,0,0,1,-316.811231895981,-90.77661776271454) translate(18.47500000000001 21.2)"/><use xlink:href="#b" transform="matrix(1,0,0,1,-316.811231895981,-90.77661776271454) translate(106.44166666666668 21.2)"/><use xlink:href="#c" transform="matrix(1,0,0,1,-316.811231895981,-90.77661776271454) translate(139.5916666666667 21.2)"/><use xlink:href="#d" transform="matrix(1,0,0,1,-316.811231895981,-90.77661776271454) translate(192.89166666666665 21.2)"/><path d="M-339.43 3.3a6 6 0 0 1 6-6h308a6 6 0 0 1 6 6v43a6 6 0 0 1-6 6h-308a6 6 0 0 1-6-6z" stroke="#3a414a" stroke-width="3" fill="#fff"/><use xlink:href="#e" transform="matrix(1,0,0,1,-323.43203968588114,0.04999999999984084) translate(8.00555555555556 30.175)"/><use xlink:href="#f" transform="matrix(1,0,0,1,-323.43203968588114,0.04999999999984084) translate(125.8722222222222 30.175)"/><use xlink:href="#g" transform="matrix(1,0,0,1,-323.43203968588114,0.04999999999984084) translate(171.95 30.175)"/><path d="M-451.13 3.57h7.6m15.16 0h7.6l3.74-.3.92-.2m8.62-3.6l.8-.48 2.87-2.46 2.44-2.86.5-.8m3.56-8.64l.22-.92.3-3.75v-7.68m0-15.4v-7.67l.3-3.76.22-.9m3.57-8.65l.5-.8 2.45-2.86 2.86-2.45.82-.48m8.63-3.58l.9-.22 3.77-.3h7.28m14.56 0h7.28" stroke="#3a414a" stroke-width="3" fill="none"/><path d="M-451.1 5.07h-1.58l.05-1.5-.02-1.5h1.56z" stroke="#3a414a" stroke-width=".05" fill="#3a414a"/><path d="M-361.1-65l17.22-10.17-17.2-10.18" stroke="#3a414a" stroke-width="3" fill="none"/><path d="M-525.8-68.1c39.58 0 71.67 32.1 71.67 71.67 0 39.58-32.1 71.67-71.67 71.67h-102.92c-39.58 0-71.67-32.1-71.67-71.67 0-39.58 32.1-71.67 71.68-71.67z" stroke="#3a414a" stroke-width="3" fill="#fff"/><path d="M-666.7-62.1a6 6 0 0 1 6-6h166.9a6 6 0 0 1 6 6V69.24a6 6 0 0 1-6 6h-166.9a6 6 0 0 1-6-6z" fill="none"/><use xlink:href="#h" transform="matrix(1,0,0,1,-661.7129670791728,-63.10084805452907) translate(17.956790123456784 23.444444444444443)"/><use xlink:href="#i" transform="matrix(1,0,0,1,-661.7129670791728,-63.10084805452907) translate(64.80864197530863 23.444444444444443)"/><use xlink:href="#j" transform="matrix(1,0,0,1,-661.7129670791728,-63.10084805452907) translate(9.5 48.33333333333333)"/><use xlink:href="#k" transform="matrix(1,0,0,1,-661.7129670791728,-63.10084805452907) translate(26 48.33333333333333)"/><use xlink:href="#j" transform="matrix(1,0,0,1,-661.7129670791728,-63.10084805452907) translate(9.5 72.33333333333334)"/><use xlink:href="#l" transform="matrix(1,0,0,1,-661.7129670791728,-63.10084805452907) translate(26 72.33333333333334)"/><use xlink:href="#j" transform="matrix(1,0,0,1,-661.7129670791728,-63.10084805452907) translate(9.5 96.33333333333334)"/><use xlink:href="#m" transform="matrix(1,0,0,1,-661.7129670791728,-63.10084805452907) translate(26 96.33333333333334)"/><use xlink:href="#j" transform="matrix(1,0,0,1,-661.7129670791728,-63.10084805452907) translate(9.5 120.33333333333334)"/><use xlink:href="#n" transform="matrix(1,0,0,1,-661.7129670791728,-63.10084805452907) translate(26 120.33333333333334)"/><path d="M-509.44-186.16c29 0 52.5 23.5 52.5 52.5s-23.5 52.5-52.5 52.5H-650.7c-29 0-52.5-23.5-52.5-52.5s23.5-52.5 52.5-52.5z" stroke="#3a414a" stroke-width="3" fill="#fff"/><path d="M-669.53-168.62a6 6 0 0 1 6-6h166.9a6 6 0 0 1 6 6v78a6 6 0 0 1-6 6h-166.9a6 6 0 0 1-6-6z" fill="none"/><use xlink:href="#h" transform="matrix(1,0,0,1,-664.5267242788518,-169.62066007302192) translate(36.44444444444444 18.27777777777778)"/><use xlink:href="#o" transform="matrix(1,0,0,1,-664.5267242788518,-169.62066007302192) translate(83.2962962962963 18.27777777777778)"/><use xlink:href="#p" transform="matrix(1,0,0,1,-664.5267242788518,-169.62066007302192) translate(32.74074074074073 44.94444444444444)"/><use xlink:href="#q" transform="matrix(1,0,0,1,-664.5267242788518,-169.62066007302192) translate(8.851851851851848 71.61111111111111)"/><use xlink:href="#r" transform="matrix(1,0,0,1,-664.5267242788518,-169.62066007302192) translate(54.407407407407405 71.61111111111111)"/><use xlink:href="#s" transform="matrix(1,0,0,1,-664.5267242788518,-169.62066007302192) translate(105.95061728395062 71.61111111111111)"/><path d="M-453.94-133.66h7.94m15.87 0h7.94l3.77.3.9.22m8.65 3.57l.8.5 2.86 2.44 2.45 2.86.5.8m3.57 8.64l.22.92.3 3.74v10.5l.3 3.74.2.92m3.58 8.63l.5.8 2.44 2.87 2.87 2.45.8.5m8.64 3.56l.92.23 3.75.3h7.64m15.27 0h7.64" stroke="#3a414a" stroke-width="3" fill="none"/><path d="M-453.9-132.16h-1.6l.06-1.48-.04-1.52h1.58z" stroke="#3a414a" stroke-width=".05" fill="#3a414a"/><path d="M-361.1-65l17.22-10.17-17.2-10.18" stroke="#3a414a" stroke-width="3" fill="none"/><path d="M-561.9 107.19c67.42-.02 122.08 54.65 122.08 122.08s-54.66 122.1-122.1 122.1h-34.98c-67.43 0-122.1-54.67-122.1-122.1 0-67.43 54.67-122.1 122.1-122.1z" stroke="#3a414a" stroke-width="3" fill="#fff"/><path d="M-708 129.64a6 6 0 0 1 6-6h245.18a6 6 0 0 1 6 6V328.9a6 6 0 0 1-6 6H-702a6 6 0 0 1-6-6z" fill="none"/><use xlink:href="#t" transform="matrix(1,0,0,1,-702.9957515151102,128.64373494080738) translate(14.848765432098745 61.888888888888886)"/><use xlink:href="#u" transform="matrix(1,0,0,1,-702.9957515151102,128.64373494080738) translate(65.02777777777777 61.888888888888886)"/><use xlink:href="#v" transform="matrix(1,0,0,1,-702.9957515151102,128.64373494080738) translate(90.76234567901234 61.888888888888886)"/><use xlink:href="#w" transform="matrix(1,0,0,1,-702.9957515151102,128.64373494080738) translate(149.0216049382716 61.888888888888886)"/><use xlink:href="#x" transform="matrix(1,0,0,1,-702.9957515151102,128.64373494080738) translate(2.1512345679011986 91.22222222222221)"/><use xlink:href="#y" transform="matrix(1,0,0,1,-702.9957515151102,128.64373494080738) translate(60.34259259259257 91.22222222222221)"/><use xlink:href="#z" transform="matrix(1,0,0,1,-702.9957515151102,128.64373494080738) translate(113.16975308641975 120.55555555555556)"/><use xlink:href="#x" transform="matrix(1,0,0,1,-702.9957515151102,128.64373494080738) translate(2.1512345679011986 149.88888888888886)"/><use xlink:href="#A" transform="matrix(1,0,0,1,-702.9957515151102,128.64373494080738) translate(60.34259259259257 149.88888888888886)"/><path d="M-438.54 208.8h6.02m12.02 0h6.02l3.75-.3.92-.22m8.62-3.58l.8-.5 2.87-2.44 2.43-2.86.5-.8m3.57-8.64l.22-.9.3-3.77v-5.68m0-11.33v-11.34m0-11.33V133.8m0-11.34v-11.33m0-11.33V88.46m0-11.33V65.8m0-11.33V48.8l.3-3.75.2-.92m3.6-8.63l.48-.8 2.44-2.87 2.87-2.45.8-.5m8.65-3.56l.9-.23 3.77-.3h5.7m11.4 0h5.72" stroke="#3a414a" stroke-width="3" fill="none"/><path d="M-438.5 210.3h-1.28l-.5-3h1.78z" stroke="#3a414a" stroke-width=".05" fill="#3a414a"/><path d="M-361.1 34.98l17.22-10.18-17.2-10.18" stroke="#3a414a" stroke-width="3" fill="none"/><path d="M-184.36 102.6a8.62 8.62 0 0 1 9.85 0l80.9 56.33a4.18 4.18 0 0 1 0 6.85l-80.9 56.32a8.62 8.62 0 0 1-9.86 0l-80.92-56.31a4.18 4.18 0 0 1 0-6.87z" stroke="#3a414a" stroke-width="3" fill="#fff"/><use xlink:href="#B" transform="matrix(1,0,0,1,-261.12557509159666,105.50261048152471) translate(43.835555555555565 45.7375)"/><use xlink:href="#C" transform="matrix(1,0,0,1,-261.12557509159666,105.50261048152471) translate(34.055 76.9375)"/><path d="M-88.8 162.36H45.08a24 24 0 0 0 24-24V-51.17a24 24 0 0 0-24-24H-12.8" stroke="#3a414a" stroke-width="3" fill="none"/><path d="M-88.75 163.86h-1.77l.13-.42.1-1.08-.1-1.1-.12-.4h1.77z" stroke="#3a414a" stroke-width=".05" fill="#3a414a"/><path d="M-20.95-75.17l12.9-7.64v15.26z" stroke="#3a414a" stroke-width="3" fill="#3a414a"/><use xlink:href="#D" transform="matrix(1,0,0,1,-87.49096597282173,137.02467704166415) translate(0 14.222222222222223)"/><use xlink:href="#E" transform="matrix(1,0,0,1,-87.49096597282173,137.02467704166415) translate(34.41975308641976 14.222222222222223)"/><path d="M-179.43 226.65v45.95" stroke="#3a414a" stroke-width="3" fill="none"/><path d="M-180.66 225.08l1.23.07 1.23-.07.27-.05v1.66h-3v-1.67z" stroke="#3a414a" stroke-width=".05" fill="#3a414a"/><path d="M-179.43 280.76l-7.64-12.9h15.27z" stroke="#3a414a" stroke-width="3" fill="#3a414a"/><use xlink:href="#F" transform="matrix(1,0,0,1,-171.4320396858812,240.57006187856703) translate(0 14.222222222222223)"/><path d="M-179.43 55.3v33.16" stroke="#3a414a" stroke-width="3" fill="none"/><path d="M-177.93 55.34h-3V53.8h3z" stroke="#3a414a" stroke-width=".05" fill="#3a414a"/><path d="M-179.43 96.62l-7.64-12.9h15.27z" stroke="#3a414a" stroke-width="3" fill="#3a414a"/><path d="M-68.95 358.16c0 4.47-49.46 8.1-110.48 8.1s-110.5-3.63-110.5-8.1v-64.84c0-4.48 49.48-8.1 110.5-8.1s110.48 3.62 110.48 8.1z" stroke="#3a414a" stroke-width="3" fill="#fff"/><path d="M-68.95 293.32c0 4.47-49.46 8.1-110.48 8.1s-110.5-3.63-110.5-8.1" stroke="#3a414a" stroke-width="3" fill="none"/><use xlink:href="#G" transform="matrix(1,0,0,1,-284.91544054321804,306.421834202332) translate(39.92222222222223 31.1125)"/><use xlink:href="#H" transform="matrix(1,0,0,1,-284.91544054321804,306.421834202332) translate(113.44444444444444 31.1125)"/><path d="M-339.43 418.77a6 6 0 0 1 6-6h308a6 6 0 0 1 6 6v43a6 6 0 0 1-6 6h-308a6 6 0 0 1-6-6z" stroke="#3a414a" stroke-width="3" fill="#fff"/><use xlink:href="#a" transform="matrix(1,0,0,1,-323.43203968588114,415.5166666666664) translate(45.95833333333334 30.175)"/><use xlink:href="#I" transform="matrix(1,0,0,1,-323.43203968588114,415.5166666666664) translate(133.925 30.175)"/><path d="M-179.43 369.26v30.9" stroke="#3a414a" stroke-width="3" fill="none"/><path d="M-179.44 367.76l1.5-.02v1.56h-3v-1.57z" stroke="#3a414a" stroke-width=".05" fill="#3a414a"/><path d="M-179.43 408.32l-7.64-12.9h15.27z" stroke="#3a414a" stroke-width="3" fill="#3a414a"/><use xlink:href="#J" transform="matrix(1,0,0,1,-166.79678471399706,373.59999995931486) translate(0 14.222222222222223)"/><use xlink:href="#K" transform="matrix(1,0,0,1,-166.79678471399706,373.59999995931486) translate(44.345679012345684 14.222222222222223)"/><path d="M-483.88 411.55c14.88 0 26.94 12.06 26.94 26.94 0 14.87-12.06 26.93-26.94 26.93h-192.38c-14.88 0-26.94-12.06-26.94-26.94 0-14.9 12.06-26.95 26.94-26.95z" stroke="#3a414a" stroke-width="3" fill="#fff"/><path d="M-669.53 423.47a6 6 0 0 1 6-6h166.9a6 6 0 0 1 6 6v38.3a6 6 0 0 1-6 6h-166.9a6 6 0 0 1-6-6z" fill="none"/><use xlink:href="#L" transform="matrix(1,0,0,1,-664.5267242788518,422.47286582956355) translate(7.975308641975289 25.38888888888889)"/><use xlink:href="#M" transform="matrix(1,0,0,1,-664.5267242788518,422.47286582956355) translate(59.512345679012334 25.38888888888889)"/><path d="M-454 439.2h5.52m11.03 0h11.03m11.04 0h11.03m11.04 0h11.02m11.03 0h11.04m11.02 0h5.52" stroke="#3a414a" stroke-width="3" fill="none"/><path d="M-453.96 440.7h-1.68l.2-2.17-.04-.83h1.52z" stroke="#3a414a" stroke-width=".05" fill="#3a414a"/><path d="M-361.1 449.38l17.22-10.18-17.2-10.18" stroke="#3a414a" stroke-width="3" fill="none"/><path d="M-339.43 530.7a6 6 0 0 1 6-6h308a6 6 0 0 1 6 6v43a6 6 0 0 1-6 6h-308a6 6 0 0 1-6-6z" stroke="#3a414a" stroke-width="3" fill="#fff"/><use xlink:href="#a" transform="matrix(1,0,0,1,-323.43203968588114,527.4554010280476) translate(74.34166666666667 30.175)"/><use xlink:href="#N" transform="matrix(1,0,0,1,-323.43203968588114,527.4554010280476) translate(162.30833333333334 30.175)"/><path d="M-494.48 513.74c20.73 0 37.54 16.8 37.54 37.54 0 20.73-16.8 37.54-37.54 37.54h-171.18c-20.73 0-37.54-16.8-37.54-37.54 0-20.73 16.8-37.54 37.54-37.54z" stroke="#3a414a" stroke-width="3" fill="#fff"/><path d="M-669.53 528a6 6 0 0 1 6-6h166.9a6 6 0 0 1 6 6v56.67a6 6 0 0 1-6 6h-166.9a6 6 0 0 1-6-6z" fill="none"/><use xlink:href="#L" transform="matrix(1,0,0,1,-664.5267242788518,526.9916673852824) translate(13.40740740740739 19.72222222222222)"/><use xlink:href="#O" transform="matrix(1,0,0,1,-664.5267242788518,526.9916673852824) translate(64.94444444444443 19.72222222222222)"/><use xlink:href="#P" transform="matrix(1,0,0,1,-664.5267242788518,526.9916673852824) translate(131.21604938271605 19.72222222222222)"/><use xlink:href="#Q" transform="matrix(1,0,0,1,-664.5267242788518,526.9916673852824) translate(22.91358024691357 49.05555555555556)"/><path d="M-454 552.26h5.6m11.17.02h11.2m11.17 0l11.2.02m11.17 0l11.2.02m11.18 0l11.18.02m11.2 0h5.58" stroke="#3a414a" stroke-width="3" fill="none"/><path d="M-453.96 550.76v3h-1.64l.16-2.47-.03-.54z" stroke="#3a414a" stroke-width=".05" fill="#3a414a"/><path d="M-359.6 562.52l17.22-10.17-17.2-10.2M-179.43 470.77v41.33" stroke="#3a414a" stroke-width="3" fill="none"/><path d="M-177.93 470.8h-3v-1.53h3z" stroke="#3a414a" stroke-width=".05" fill="#3a414a"/><path d="M-179.43 520.26l-7.64-12.9h15.27z" stroke="#3a414a" stroke-width="3" fill="#3a414a"/><path d="M-339.43 627.8a6 6 0 0 1 6-6h308a6 6 0 0 1 6 6v72.68a6 6 0 0 1-6 6h-308a6 6 0 0 1-6-6z" stroke="#3a414a" stroke-width="3" fill="#fff"/><use xlink:href="#R" transform="matrix(1,0,0,1,-323.4320396858812,626.0441353894288) translate(26.703703703703695 28.552083333333336)"/><use xlink:href="#S" transform="matrix(1,0,0,1,-323.4320396858812,626.0441353894288) translate(100.11111111111111 28.552083333333336)"/><use xlink:href="#T" transform="matrix(1,0,0,1,-323.4320396858812,626.0441353894288) translate(154.77777777777777 28.552083333333336)"/><use xlink:href="#U" transform="matrix(1,0,0,1,-323.4320396858812,626.0441353894288) translate(91.48148148148147 60.552083333333336)"/><use xlink:href="#V" transform="matrix(1,0,0,1,-323.4320396858812,626.0441353894288) translate(143.25925925925924 60.552083333333336)"/><path d="M-492.33 625.68c20.73 0 37.54 16.8 37.54 37.54 0 20.73-16.8 37.53-37.53 37.53H-663.5c-20.74 0-37.55-16.8-37.55-37.53s16.8-37.54 37.54-37.54z" stroke="#3a414a" stroke-width="3" fill="#fff"/><path d="M-667.38 639.93a6 6 0 0 1 6-6h168.24a6 6 0 0 1 6 6v56.68a6 6 0 0 1-6 6h-168.24a6 6 0 0 1-6-6z" fill="none"/><use xlink:href="#W" transform="matrix(1,0,0,1,-662.3765473260864,638.9304017466636) translate(63.126543209876544 19.72222222222222)"/><use xlink:href="#X" transform="matrix(1,0,0,1,-662.3765473260864,638.9304017466636) translate(0.38580246913576843 49.05555555555556)"/><path d="M-451.8 663.2h5.42m10.8-.06l10.82-.05m10.82-.06l10.8-.05m10.82-.05l10.8-.05m10.83-.05l10.82-.05m10.8-.05l5.42-.02" stroke="#3a414a" stroke-width="3" fill="none"/><path d="M-451.75 664.7l-1.64.02.1-1.5-.07-1.5h1.6z" stroke="#3a414a" stroke-width=".05" fill="#3a414a"/><path d="M-361.05 673l17.17-10.27-17.26-10.1M-179.43 582.7v26.5" stroke="#3a414a" stroke-width="3" fill="none"/><path d="M-177.93 582.74h-3v-1.53h3z" stroke="#3a414a" stroke-width=".05" fill="#3a414a"/><path d="M-179.43 617.36l-7.64-12.9h15.27z" stroke="#3a414a" stroke-width="3" fill="#3a414a"/><path d="M-339.43 744.9a6 6 0 0 1 6-6h308a6 6 0 0 1 6 6v43a6 6 0 0 1-6 6h-308a6 6 0 0 1-6-6z" stroke="#3a414a" stroke-width="3" fill="#fff"/><use xlink:href="#Y" transform="matrix(1,0,0,1,-323.43203968588114,741.6499999999996) translate(53.288888888888906 30.175)"/><use xlink:href="#Z" transform="matrix(1,0,0,1,-323.43203968588114,741.6499999999996) translate(148.33333333333331 30.175)"/><use xlink:href="#aa" transform="matrix(1,0,0,1,-323.43203968588114,741.6499999999996) translate(179.96666666666664 30.175)"/><path d="M-494.48 727.94c20.73 0 37.54 16.8 37.54 37.53S-473.74 803-494.48 803h-171.18c-20.73 0-37.54-16.8-37.54-37.53s16.8-37.53 37.54-37.53z" stroke="#3a414a" stroke-width="3" fill="#fff"/><path d="M-669.53 742.2a6 6 0 0 1 6-6h168.24a6 6 0 0 1 6 6v56.66a6 6 0 0 1-6 6h-168.23a6 6 0 0 1-6-6z" fill="none"/><use xlink:href="#W" transform="matrix(1,0,0,1,-664.5267242788518,741.1862663572344) translate(63.126543209876544 19.72222222222222)"/><use xlink:href="#ab" transform="matrix(1,0,0,1,-664.5267242788518,741.1862663572344) translate(5.648148148148138 49.05555555555556)"/><path d="M-453.94 765.47h5.4m10.82 0h10.8m10.83 0h10.82m10.8 0h10.83m10.8 0h10.82m10.8 0h5.42" stroke="#3a414a" stroke-width="3" fill="none"/><path d="M-453.9 766.97h-1.64l.1-1.5-.08-1.5h1.62z" stroke="#3a414a" stroke-width=".05" fill="#3a414a"/><path d="M-363.24 775.65l17.2-10.18-17.2-10.18M-179.43 709.48v16.8" stroke="#3a414a" stroke-width="3" fill="none"/><path d="M-177.93 709.52h-3v-1.54h3z" stroke="#3a414a" stroke-width=".05" fill="#3a414a"/><path d="M-179.43 734.45l-7.64-12.9h15.27z" stroke="#3a414a" stroke-width="3" fill="#3a414a"/><path d="M-179.6-243.7a3.2 3.2 0 0 0-5.65 0l-10.2 19.1a12.04 12.04 0 0 1-8.76 6.2l-22.38 3.5a3 3 0 0 0-1.62 5.1l15.8 15.34a11.53 11.53 0 0 1 3.37 10.1l-3.4 21.12a3.12 3.12 0 0 0 4.46 3.3l20.16-9.78a12.36 12.36 0 0 1 10.78 0l20.16 9.78a3.12 3.12 0 0 0 4.45-3.3l-3.4-21.12a11.53 11.53 0 0 1 3.36-10.1l15.8-15.33a3 3 0 0 0-1.6-5.1l-22.38-3.5a12.04 12.04 0 0 1-8.76-6.2z" stroke="#e81313" stroke-width="3" fill="#fff"/><g><use xlink:href="#ac" transform="matrix(1,0,0,1,-229.81456522931438,-243.90990219209553) translate(17.961111111111112 51.2)"/></g><path d="M-182.4-146.14V-115.9" stroke="#3a414a" stroke-width="3" fill="none"/><path d="M-180.9-146.1h-3v-4.54h3z" stroke="#3a414a" stroke-width=".05" fill="#3a414a"/><path d="M-182.4-107.74l-7.65-12.9h15.27z" stroke="#3a414a" stroke-width="3" fill="#3a414a"/><path d="M-169 1124.2a3.2 3.2 0 0 0-5.68 0l-10.2 19.07a12.04 12.04 0 0 1-8.76 6.22L-216 1153a3 3 0 0 0-1.63 5.1l15.8 15.32a11.53 11.53 0 0 1 3.37 10.1l-3.4 21.12a3.12 3.12 0 0 0 4.46 3.3l20.16-9.78a12.36 12.36 0 0 1 10.8 0l20.15 9.78a3.12 3.12 0 0 0 4.46-3.3l-3.38-21.12a11.53 11.53 0 0 1 3.35-10.1l15.8-15.33a3 3 0 0 0-1.6-5.1l-22.38-3.5a12.04 12.04 0 0 1-8.76-6.23z" stroke="#635dff" stroke-width="3" fill="#fff"/><g><use xlink:href="#ad" transform="matrix(1,0,0,1,-219.24460493399764,1123.9706485637373) translate(23.021666666666672 52.425)"/></g><path d="M-176.8-44.9v29.6M-176.8-44.86v-1.54" stroke="#3a414a" stroke-width="3" fill="none"/><path d="M-176.8-7.15l-7.64-12.9h15.28z" stroke="#3a414a" stroke-width="3" fill="#3a414a"/><path d="M-286.47 931.13c-27.13 0-49.12-12.68-49.12-28.33 0-12.5 13.3-23.07 33.95-26.94-1.2-36.8 80.68-43.88 113.43-29.7 16.38-21.26 98.25-14.18 98.25 7.07 49.12-7.08 98.25 21.25 65.5 56.66 32.75 28.32 0 63.73-65.5 49.56-16.38 18.42-81.88 18.42-98.25 0-32.75 14.17-98.25 7.08-98.25-28.33z" stroke="#3a414a" stroke-width="3" fill="#fff"/><g><use xlink:href="#ae" transform="matrix(1,0,0,1,-319.2159136573024,839.0652138585232) translate(49.81981481481479 37.333333333333336)"/><use xlink:href="#af" transform="matrix(1,0,0,1,-319.2159136573024,839.0652138585232) translate(106.04203703703702 37.333333333333336)"/><use xlink:href="#ag" transform="matrix(1,0,0,1,-319.2159136573024,839.0652138585232) translate(22.42592592592591 69.33333333333334)"/><use xlink:href="#ah" transform="matrix(1,0,0,1,-319.2159136573024,839.0652138585232) translate(74.27777777777777 69.33333333333334)"/><use xlink:href="#ai" transform="matrix(1,0,0,1,-319.2159136573024,839.0652138585232) translate(157.0925925925926 69.33333333333334)"/><use xlink:href="#aj" transform="matrix(1,0,0,1,-319.2159136573024,839.0652138585232) translate(107.06055555555554 101.33333333333334)"/></g><path d="M-178.97 797.16l-.32 29.63M-178.97 797.2l.02-1.54" stroke="#3a414a" stroke-width="3" fill="none"/><path d="M-179.38 834.95l-7.5-13 15.27.17z" stroke="#3a414a" stroke-width="3" fill="#3a414a"/><path d="M-338.45 1017.7a6 6 0 0 1 6-6h308a6 6 0 0 1 6 6v60.4a6 6 0 0 1-6 6h-308a6 6 0 0 1-6-6z" stroke="#3a414a" stroke-width="3" fill="#fff"/><g><use xlink:href="#ak" transform="matrix(1,0,0,1,-322.4461731909831,1015.3294923109364) translate(29.407407407407405 23.395833333333336)"/><use xlink:href="#al" transform="matrix(1,0,0,1,-322.4461731909831,1015.3294923109364) translate(101.85185185185185 23.395833333333336)"/><use xlink:href="#am" transform="matrix(1,0,0,1,-322.4461731909831,1015.3294923109364) translate(171.33333333333331 23.395833333333336)"/><use xlink:href="#an" transform="matrix(1,0,0,1,-322.4461731909831,1015.3294923109364) translate(43.85185185185182 55.395833333333336)"/><use xlink:href="#U" transform="matrix(1,0,0,1,-322.4461731909831,1015.3294923109364) translate(110.37037037037035 55.395833333333336)"/><use xlink:href="#ao" transform="matrix(1,0,0,1,-322.4461731909831,1015.3294923109364) translate(162.14814814814815 55.395833333333336)"/></g><path d="M-175.84 970.47l-.64 28.63" stroke="#3a414a" stroke-width="3" fill="none"/><path d="M-176.4 968.75l2.08.76-.02 1.04-3-.07.05-2.1z" stroke="#3a414a" stroke-width=".05" fill="#3a414a"/><path d="M-176.66 1007.26l-7.35-13.08 15.26.35z" stroke="#3a414a" stroke-width="3" fill="#3a414a"/><path d="M-177.93 1086.8v29.2M-177.93 1086.85v-1.54" stroke="#3a414a" stroke-width="3" fill="none"/><path d="M-177.93 1124.15l-7.64-12.9h15.28z" stroke="#3a414a" stroke-width="3" fill="#3a414a"/><path d="M-491.15 1011.7c20.73 0 37.54 16.82 37.54 37.55 0 20.73-16.82 37.53-37.55 37.53h-171.2c-20.72 0-37.52-16.8-37.52-37.53s16.8-37.54 37.53-37.54z" stroke="#3a414a" stroke-width="3" fill="#fff"/><path d="M-666.2 1025.96a6 6 0 0 1 6-6h187.73a6 6 0 0 1 6 6v56.67a6 6 0 0 1-6 6H-660.2a6 6 0 0 1-6-6z" fill="none"/><g><use xlink:href="#W" transform="matrix(1,0,0,1,-661.1981962566907,1024.9586916920728) translate(72.62654320987654 19.72222222222222)"/><use xlink:href="#ap" transform="matrix(1,0,0,1,-661.1981962566907,1024.9586916920728) translate(0.14197530864193197 49.05555555555556)"/></g><path d="M-450.63 1048.8h6.74m13.5 0h13.5m13.5 0h13.5m13.5 0h13.48m13.5 0h6.75" stroke="#3a414a" stroke-width="3" fill="none"/><path d="M-450.6 1050.3h-1.58l.07-1.04-.1-1.95h1.6z" stroke="#3a414a" stroke-width=".05" fill="#3a414a"/><path d="M-360.1 1059l17.2-10.2-17.2-10.17" stroke="#3a414a" stroke-width="3" fill="none"/><path d="M-726.43 598.84H469.7M-726.38 598.84h-2.05M469.64 598.84h2.05M-729.74 982.25H466.38M-729.7 982.25h-2.04M466.33 982.25h2.05" stroke="#979ea8" stroke-width="4" fill="none"/><path d="M194.37 58.3a6 6 0 0 1 6-6h72.08a6 6 0 0 1 6 6v158a6 6 0 0 1-6 6h-72.08a6 6 0 0 1-6-6z" fill="none"/><g><use xlink:href="#aq" transform="matrix(1,0,0,1,199.36574511731493,57.29999999999984) translate(0 107.16666666666667)"/></g><path d="M194.37 1025.96a6 6 0 0 1 6-6h72.08a6 6 0 0 1 6 6v158a6 6 0 0 1-6 6h-72.08a6 6 0 0 1-6-6z" fill="none"/><g><use xlink:href="#ar" transform="matrix(1,0,0,1,199.3657451173149,1024.9586916920725) translate(0 107.16666666666667)"/></g><path d="M194.37 719.27a6 6 0 0 1 6-6h72.08a6 6 0 0 1 6 6v158a6 6 0 0 1-6 6h-72.08a6 6 0 0 1-6-6z" fill="none"/><g><use xlink:href="#as" transform="matrix(1,0,0,1,199.36574511731493,718.2737350799971) translate(0 107.16666666666667)"/></g><path d="M194.37 426.66a6 6 0 0 1 6-6h72.08a6 6 0 0 1 6 6v158a6 6 0 0 1-6 6h-72.08a6 6 0 0 1-6-6z" fill="none"/><g><use xlink:href="#at" transform="matrix(1,0,0,1,199.3657451173149,425.65833405194917) translate(0 107.16666666666667)"/></g><defs><path fill="#3a414a" d="M67-125c0 53 21 87 73 88 37 1 54-22 65-47l45 17C233-25 199 4 140 4 58 4 20-42 15-125 8-235 124-281 211-232c18 10 29 29 36 50l-46 12c-8-25-30-41-62-41-52 0-71 34-72 86" id="au"/><path fill="#3a414a" d="M135-150c-39-12-60 13-60 57V0H25l-1-190h47c2 13-1 29 3 40 6-28 27-53 61-41v41" id="av"/><path fill="#3a414a" d="M185-48c-13 30-37 53-82 52C43 2 14-33 14-96s30-98 90-98c62 0 83 45 84 108H66c0 31 8 55 39 56 18 0 30-7 34-22zm-45-69c5-46-57-63-70-21-2 6-4 13-4 21h74" id="aw"/><path fill="#3a414a" d="M133-34C117-15 103 5 69 4 32 3 11-16 11-54c-1-60 55-63 116-61 1-26-3-47-28-47-18 1-26 9-28 27l-52-2c7-38 36-58 82-57s74 22 75 68l1 82c-1 14 12 18 25 15v27c-30 8-71 5-69-32zm-48 3c29 0 43-24 42-57-32 0-66-3-65 30 0 17 8 27 23 27" id="ax"/><path fill="#3a414a" d="M115-3C79 11 28 4 28-45v-112H4v-33h27l15-45h31v45h36v33H77v99c-1 23 16 31 38 25v30" id="ay"/><g id="a"><use transform="matrix(0.07222222222222222,0,0,0.07222222222222222,0,0)" xlink:href="#au"/><use transform="matrix(0.07222222222222222,0,0,0.07222222222222222,18.705555555555552,0)" xlink:href="#av"/><use transform="matrix(0.07222222222222222,0,0,0.07222222222222222,28.816666666666663,0)" xlink:href="#aw"/><use transform="matrix(0.07222222222222222,0,0,0.07222222222222222,43.261111111111106,0)" xlink:href="#ax"/><use transform="matrix(0.07222222222222222,0,0,0.07222222222222222,57.70555555555555,0)" xlink:href="#ay"/><use transform="matrix(0.07222222222222222,0,0,0.07222222222222222,66.3,0)" xlink:href="#aw"/></g><path fill="#3a414a" d="M110-194c64 0 96 36 96 99 0 64-35 99-97 99-61 0-95-36-95-99 0-62 34-99 96-99zm-1 164c35 0 45-28 45-65 0-40-10-65-43-65-34 0-45 26-45 65 0 36 10 65 43 65" id="az"/><g id="b"><use transform="matrix(0.07222222222222222,0,0,0.07222222222222222,0,0)" xlink:href="#az"/><use transform="matrix(0.07222222222222222,0,0,0.07222222222222222,15.816666666666665,0)" xlink:href="#av"/></g><path fill="#3a414a" d="M88-194c31-1 46 15 58 34l-1-101h50l1 261h-48c-2-10 0-23-3-31C134-8 116 4 84 4 32 4 16-41 15-95c0-56 19-97 73-99zm17 164c33 0 40-30 41-66 1-37-9-64-41-64s-38 30-39 65c0 43 13 65 39 65" id="aA"/><path fill="#3a414a" d="M25-224v-37h50v37H25zM25 0v-190h50V0H25" id="aB"/><g id="c"><use transform="matrix(0.07222222222222222,0,0,0.07222222222222222,0,0)" xlink:href="#aw"/><use transform="matrix(0.07222222222222222,0,0,0.07222222222222222,14.444444444444443,0)" xlink:href="#aA"/><use transform="matrix(0.07222222222222222,0,0,0.07222222222222222,30.261111111111106,0)" xlink:href="#aB"/><use transform="matrix(0.07222222222222222,0,0,0.07222222222222222,37.48333333333333,0)" xlink:href="#ay"/></g><path fill="#3a414a" d="M240-174c0 40-23 61-54 70L253 0h-59l-57-94H76V0H24v-248c93 4 217-23 216 74zM76-134c48-2 112 12 112-38 0-48-66-32-112-35v73" id="aC"/><path fill="#3a414a" d="M220-157c-53 9-28 100-34 157h-49v-107c1-27-5-49-29-50C55-147 81-57 75 0H25l-1-190h47c2 12-1 28 3 38 10-53 101-56 108 0 13-22 24-43 59-42 82 1 51 116 57 194h-49v-107c-1-25-5-48-29-50" id="aD"/><g id="d"><use transform="matrix(0.07222222222222222,0,0,0.07222222222222222,0,0)" xlink:href="#aC"/><use transform="matrix(0.07222222222222222,0,0,0.07222222222222222,18.705555555555552,0)" xlink:href="#aD"/><use transform="matrix(0.07222222222222222,0,0,0.07222222222222222,41.81666666666666,0)" xlink:href="#aA"/></g><path fill="#3a414a" d="M147 0H94L2-248h55l64 206c17-72 42-137 63-206h54" id="aE"/><path fill="#3a414a" d="M137-138c1-29-70-34-71-4 15 46 118 7 119 86 1 83-164 76-172 9l43-7c4 19 20 25 44 25 33 8 57-30 24-41C81-84 22-81 20-136c-2-80 154-74 161-7" id="aF"/><path fill="#3a414a" d="M85 4C-2 5 27-109 22-190h50c7 57-23 150 33 157 60-5 35-97 40-157h50l1 190h-47c-2-12 1-28-3-38-12 25-28 42-61 42" id="aG"/><path fill="#3a414a" d="M25 0v-261h50V0H25" id="aH"/><path fill="#3a414a" d="M12 0v-35l95-120H19v-35h142v35L67-36h103V0H12" id="aI"/><g id="e"><use transform="matrix(0.07222222222222222,0,0,0.07222222222222222,0,0)" xlink:href="#aE"/><use transform="matrix(0.07222222222222222,0,0,0.07222222222222222,16.827777777777776,0)" xlink:href="#aB"/><use transform="matrix(0.07222222222222222,0,0,0.07222222222222222,24.049999999999997,0)" xlink:href="#aF"/><use transform="matrix(0.07222222222222222,0,0,0.07222222222222222,38.49444444444444,0)" xlink:href="#aG"/><use transform="matrix(0.07222222222222222,0,0,0.07222222222222222,54.3111111111111,0)" xlink:href="#ax"/><use transform="matrix(0.07222222222222222,0,0,0.07222222222222222,68.75555555555555,0)" xlink:href="#aH"/><use transform="matrix(0.07222222222222222,0,0,0.07222222222222222,75.97777777777776,0)" xlink:href="#aB"/><use transform="matrix(0.07222222222222222,0,0,0.07222222222222222,83.19999999999999,0)" xlink:href="#aI"/><use transform="matrix(0.07222222222222222,0,0,0.07222222222222222,96.19999999999999,0)" xlink:href="#aw"/></g><path fill="#3a414a" d="M114-157C55-157 80-60 75 0H25v-261h50l-1 109c12-26 28-41 61-42 86-1 58 113 63 194h-50c-7-57 23-157-34-157" id="aJ"/><g id="f"><use transform="matrix(0.07222222222222222,0,0,0.07222222222222222,0,0)" xlink:href="#ay"/><use transform="matrix(0.07222222222222222,0,0,0.07222222222222222,8.594444444444443,0)" xlink:href="#aJ"/><use transform="matrix(0.07222222222222222,0,0,0.07222222222222222,24.411111111111108,0)" xlink:href="#aw"/></g><path fill="#3a414a" d="M190-63c-7 42-38 67-86 67-59 0-84-38-90-98-12-110 154-137 174-36l-49 2c-2-19-15-32-35-32-30 0-35 28-38 64-6 74 65 87 74 30" id="aK"/><g id="g"><use transform="matrix(0.07222222222222222,0,0,0.07222222222222222,0,0)" xlink:href="#az"/><use transform="matrix(0.07222222222222222,0,0,0.07222222222222222,15.816666666666665,0)" xlink:href="#aG"/><use transform="matrix(0.07222222222222222,0,0,0.07222222222222222,31.63333333333333,0)" xlink:href="#ay"/><use transform="matrix(0.07222222222222222,0,0,0.07222222222222222,40.227777777777774,0)" xlink:href="#aK"/><use transform="matrix(0.07222222222222222,0,0,0.07222222222222222,54.67222222222222,0)" xlink:href="#az"/><use transform="matrix(0.07222222222222222,0,0,0.07222222222222222,70.48888888888888,0)" xlink:href="#aD"/><use transform="matrix(0.07222222222222222,0,0,0.07222222222222222,93.6,0)" xlink:href="#aw"/></g><path fill="#3a414a" d="M238-95c0 69-44 99-111 99C63 4 22-25 22-93v-155h51v151c-1 38 19 59 55 60 90 1 49-130 58-211h52v153" id="aL"/><g id="h"><use transform="matrix(0.06172839506172839,0,0,0.06172839506172839,0,0)" xlink:href="#aL"/><use transform="matrix(0.06172839506172839,0,0,0.06172839506172839,15.987654320987653,0)" xlink:href="#aF"/><use transform="matrix(0.06172839506172839,0,0,0.06172839506172839,28.333333333333332,0)" xlink:href="#aw"/></g><path fill="#3a414a" d="M135-194c53 0 70 44 70 98 0 56-19 98-73 100-31 1-45-17-59-34 3 33 2 69 2 105H25l-1-265h48c2 10 0 23 3 31 11-24 29-35 60-35zM114-30c33 0 39-31 40-66 0-38-9-64-40-64-56 0-55 130 0 130" id="aM"/><path fill="#3a414a" d="M35-132v-50h50v50H35zM35 0v-49h50V0H35" id="aN"/><g id="i"><use transform="matrix(0.06172839506172839,0,0,0.06172839506172839,0,0)" xlink:href="#aJ"/><use transform="matrix(0.06172839506172839,0,0,0.06172839506172839,13.518518518518517,0)" xlink:href="#aw"/><use transform="matrix(0.06172839506172839,0,0,0.06172839506172839,25.864197530864196,0)" xlink:href="#aH"/><use transform="matrix(0.06172839506172839,0,0,0.06172839506172839,32.03703703703704,0)" xlink:href="#aM"/><use transform="matrix(0.06172839506172839,0,0,0.06172839506172839,45.55555555555556,0)" xlink:href="#aw"/><use transform="matrix(0.06172839506172839,0,0,0.06172839506172839,57.901234567901234,0)" xlink:href="#av"/><use transform="matrix(0.06172839506172839,0,0,0.06172839506172839,66.54320987654322,0)" xlink:href="#aF"/><use transform="matrix(0.06172839506172839,0,0,0.06172839506172839,78.8888888888889,0)" xlink:href="#aN"/></g><path fill="#3a414a" d="M62-168c30 0 50 19 50 48S92-70 62-70c-29 0-48-21-48-50s20-48 48-48" id="aO"/><use transform="matrix(0.05555555555555555,0,0,0.05555555555555555,0,0)" xlink:href="#aO" id="j"/><path fill="#3a414a" d="M177-190C167-65 218 103 67 71c-23-6-38-20-44-43l32-5c15 47 100 32 89-28v-30C133-14 115 1 83 1 29 1 15-40 15-95c0-56 16-97 71-98 29-1 48 16 59 35 1-10 0-23 2-32h30zM94-22c36 0 50-32 50-73 0-42-14-75-50-75-39 0-46 34-46 75s6 73 46 73" id="aP"/><path fill="#3a414a" d="M141-36C126-15 110 5 73 4 37 3 15-17 15-53c-1-64 63-63 125-63 3-35-9-54-41-54-24 1-41 7-42 31l-33-3c5-37 33-52 76-52 45 0 72 20 72 64v82c-1 20 7 32 28 27v20c-31 9-61-2-59-35zM48-53c0 20 12 33 32 33 41-3 63-29 60-74-43 2-92-5-92 41" id="aQ"/><path fill="#3a414a" d="M115-194c55 1 70 41 70 98S169 2 115 4C84 4 66-9 55-30l1 105H24l-1-265h31l2 30c10-21 28-34 59-34zm-8 174c40 0 45-34 45-75s-6-73-45-74c-42 0-51 32-51 76 0 43 10 73 51 73" id="aR"/><path fill="#3a414a" d="M-5 72V49h209v23H-5" id="aS"/><path fill="#3a414a" d="M59-47c-2 24 18 29 38 22v24C64 9 27 4 27-40v-127H5v-23h24l9-43h21v43h35v23H59v120" id="aT"/><path fill="#3a414a" d="M100-194c63 0 86 42 84 106H49c0 40 14 67 53 68 26 1 43-12 49-29l28 8c-11 28-37 45-77 45C44 4 14-33 15-96c1-61 26-98 85-98zm52 81c6-60-76-77-97-28-3 7-6 17-6 28h103" id="aU"/><path fill="#3a414a" d="M141 0L90-78 38 0H4l68-98-65-92h35l48 74 47-74h35l-64 92 68 98h-35" id="aV"/><path fill="#3a414a" d="M87 75C49 33 22-17 22-94c0-76 28-126 65-167h31c-38 41-64 92-64 168S80 34 118 75H87" id="aW"/><path fill="#3a414a" d="M33-261c38 41 65 92 65 168S71 34 33 75H2C39 34 66-17 66-93S39-220 2-261h31" id="aX"/><g id="k"><use transform="matrix(0.05555555555555555,0,0,0.05555555555555555,0,0)" xlink:href="#aP"/><use transform="matrix(0.05555555555555555,0,0,0.05555555555555555,11.11111111111111,0)" xlink:href="#aQ"/><use transform="matrix(0.05555555555555555,0,0,0.05555555555555555,22.22222222222222,0)" xlink:href="#aR"/><use transform="matrix(0.05555555555555555,0,0,0.05555555555555555,33.33333333333333,0)" xlink:href="#aS"/><use transform="matrix(0.05555555555555555,0,0,0.05555555555555555,44.44444444444444,0)" xlink:href="#aT"/><use transform="matrix(0.05555555555555555,0,0,0.05555555555555555,50,0)" xlink:href="#aU"/><use transform="matrix(0.05555555555555555,0,0,0.05555555555555555,61.11111111111112,0)" xlink:href="#aV"/><use transform="matrix(0.05555555555555555,0,0,0.05555555555555555,71.11111111111111,0)" xlink:href="#aT"/><use transform="matrix(0.05555555555555555,0,0,0.05555555555555555,76.66666666666667,0)" xlink:href="#aW"/><use transform="matrix(0.05555555555555555,0,0,0.05555555555555555,83.27777777777779,0)" xlink:href="#aX"/></g><path fill="#3a414a" d="M117-194c89-4 53 116 60 194h-32v-121c0-31-8-49-39-48C34-167 62-67 57 0H25l-1-190h30c1 10-1 24 2 32 11-22 29-35 61-36" id="aY"/><path fill="#3a414a" d="M84 4C-5 8 30-112 23-190h32v120c0 31 7 50 39 49 72-2 45-101 50-169h31l1 190h-30c-1-10 1-25-2-33-11 22-28 36-60 37" id="aZ"/><path fill="#3a414a" d="M210-169c-67 3-38 105-44 169h-31v-121c0-29-5-50-35-48C34-165 62-65 56 0H25l-1-190h30c1 10-1 24 2 32 10-44 99-50 107 0 11-21 27-35 58-36 85-2 47 119 55 194h-31v-121c0-29-5-49-35-48" id="ba"/><path fill="#3a414a" d="M114-163C36-179 61-72 57 0H25l-1-190h30c1 12-1 29 2 39 6-27 23-49 58-41v29" id="bb"/><path fill="#3a414a" d="M24-231v-30h32v30H24zM24 0v-190h32V0H24" id="bc"/><path fill="#3a414a" d="M96-169c-40 0-48 33-48 73s9 75 48 75c24 0 41-14 43-38l32 2c-6 37-31 61-74 61-59 0-76-41-82-99-10-93 101-131 147-64 4 7 5 14 7 22l-32 3c-4-21-16-35-41-35" id="bd"/><g id="l"><use transform="matrix(0.05555555555555555,0,0,0.05555555555555555,0,0)" xlink:href="#aP"/><use transform="matrix(0.05555555555555555,0,0,0.05555555555555555,11.11111111111111,0)" xlink:href="#aQ"/><use transform="matrix(0.05555555555555555,0,0,0.05555555555555555,22.22222222222222,0)" xlink:href="#aR"/><use transform="matrix(0.05555555555555555,0,0,0.05555555555555555,33.33333333333333,0)" xlink:href="#aS"/><use transform="matrix(0.05555555555555555,0,0,0.05555555555555555,44.44444444444444,0)" xlink:href="#aY"/><use transform="matrix(0.05555555555555555,0,0,0.05555555555555555,55.55555555555556,0)" xlink:href="#aZ"/><use transform="matrix(0.05555555555555555,0,0,0.05555555555555555,66.66666666666667,0)" xlink:href="#ba"/><use transform="matrix(0.05555555555555555,0,0,0.05555555555555555,83.27777777777779,0)" xlink:href="#aU"/><use transform="matrix(0.05555555555555555,0,0,0.05555555555555555,94.3888888888889,0)" xlink:href="#bb"/><use transform="matrix(0.05555555555555555,0,0,0.05555555555555555,101.00000000000001,0)" xlink:href="#bc"/><use transform="matrix(0.05555555555555555,0,0,0.05555555555555555,105.3888888888889,0)" xlink:href="#bd"/><use transform="matrix(0.05555555555555555,0,0,0.05555555555555555,115.38888888888891,0)" xlink:href="#aW"/><use transform="matrix(0.05555555555555555,0,0,0.05555555555555555,122.00000000000001,0)" xlink:href="#aX"/></g><path fill="#3a414a" d="M85-194c31 0 48 13 60 33l-1-100h32l1 261h-30c-2-10 0-23-3-31C134-8 116 4 85 4 32 4 16-35 15-94c0-66 23-100 70-100zm9 24c-40 0-46 34-46 75 0 40 6 74 45 74 42 0 51-32 51-76 0-42-9-74-50-73" id="be"/><path fill="#3a414a" d="M100-194c62-1 85 37 85 99 1 63-27 99-86 99S16-35 15-95c0-66 28-99 85-99zM99-20c44 1 53-31 53-75 0-43-8-75-51-75s-53 32-53 75 10 74 51 75" id="bf"/><path fill="#3a414a" d="M206 0h-36l-40-164L89 0H53L-1-190h32L70-26l43-164h34l41 164 42-164h31" id="bg"/><g id="m"><use transform="matrix(0.05555555555555555,0,0,0.05555555555555555,0,0)" xlink:href="#be"/><use transform="matrix(0.05555555555555555,0,0,0.05555555555555555,11.11111111111111,0)" xlink:href="#bb"/><use transform="matrix(0.05555555555555555,0,0,0.05555555555555555,17.72222222222222,0)" xlink:href="#bf"/><use transform="matrix(0.05555555555555555,0,0,0.05555555555555555,28.833333333333332,0)" xlink:href="#aR"/><use transform="matrix(0.05555555555555555,0,0,0.05555555555555555,39.94444444444444,0)" xlink:href="#be"/><use transform="matrix(0.05555555555555555,0,0,0.05555555555555555,51.05555555555556,0)" xlink:href="#bf"/><use transform="matrix(0.05555555555555555,0,0,0.05555555555555555,62.16666666666668,0)" xlink:href="#bg"/><use transform="matrix(0.05555555555555555,0,0,0.05555555555555555,76.55555555555556,0)" xlink:href="#aY"/><use transform="matrix(0.05555555555555555,0,0,0.05555555555555555,87.66666666666667,0)" xlink:href="#aW"/><use transform="matrix(0.05555555555555555,0,0,0.05555555555555555,94.27777777777779,0)" xlink:href="#aX"/></g><path fill="#3a414a" d="M24 0v-261h32V0H24" id="bh"/><path fill="#3a414a" d="M135-143c-3-34-86-38-87 0 15 53 115 12 119 90S17 21 10-45l28-5c4 36 97 45 98 0-10-56-113-15-118-90-4-57 82-63 122-42 12 7 21 19 24 35" id="bi"/><g id="n"><use transform="matrix(0.05555555555555555,0,0,0.05555555555555555,0,0)" xlink:href="#ba"/><use transform="matrix(0.05555555555555555,0,0,0.05555555555555555,16.61111111111111,0)" xlink:href="#be"/><use transform="matrix(0.05555555555555555,0,0,0.05555555555555555,27.72222222222222,0)" xlink:href="#aS"/><use transform="matrix(0.05555555555555555,0,0,0.05555555555555555,38.83333333333333,0)" xlink:href="#bh"/><use transform="matrix(0.05555555555555555,0,0,0.05555555555555555,43.222222222222214,0)" xlink:href="#bc"/><use transform="matrix(0.05555555555555555,0,0,0.05555555555555555,47.6111111111111,0)" xlink:href="#bi"/><use transform="matrix(0.05555555555555555,0,0,0.05555555555555555,57.61111111111109,0)" xlink:href="#aT"/><use transform="matrix(0.05555555555555555,0,0,0.05555555555555555,63.166666666666664,0)" xlink:href="#aW"/><use transform="matrix(0.05555555555555555,0,0,0.05555555555555555,69.77777777777777,0)" xlink:href="#aX"/></g><g id="o"><use transform="matrix(0.06172839506172839,0,0,0.06172839506172839,0,0)" xlink:href="#aC"/><use transform="matrix(0.06172839506172839,0,0,0.06172839506172839,15.987654320987653,0)" xlink:href="#aD"/><use transform="matrix(0.06172839506172839,0,0,0.06172839506172839,35.74074074074074,0)" xlink:href="#aA"/></g><g id="p"><use transform="matrix(0.06172839506172839,0,0,0.06172839506172839,0,0)" xlink:href="#ay"/><use transform="matrix(0.06172839506172839,0,0,0.06172839506172839,7.345679012345679,0)" xlink:href="#aw"/><use transform="matrix(0.06172839506172839,0,0,0.06172839506172839,19.691358024691358,0)" xlink:href="#aD"/><use transform="matrix(0.06172839506172839,0,0,0.06172839506172839,39.44444444444444,0)" xlink:href="#aM"/><use transform="matrix(0.06172839506172839,0,0,0.06172839506172839,52.96296296296296,0)" xlink:href="#aH"/><use transform="matrix(0.06172839506172839,0,0,0.06172839506172839,59.135802469135804,0)" xlink:href="#ax"/><use transform="matrix(0.06172839506172839,0,0,0.06172839506172839,71.48148148148148,0)" xlink:href="#ay"/><use transform="matrix(0.06172839506172839,0,0,0.06172839506172839,78.82716049382717,0)" xlink:href="#aw"/><use transform="matrix(0.06172839506172839,0,0,0.06172839506172839,91.17283950617285,0)" xlink:href="#aF"/></g><path fill="#3a414a" d="M106-169C34-169 62-67 57 0H25v-261h32l-1 103c12-21 28-36 61-36 89 0 53 116 60 194h-32v-121c2-32-8-49-39-48" id="bj"/><g id="q"><use transform="matrix(0.06172839506172839,0,0,0.06172839506172839,0,0)" xlink:href="#bg"/><use transform="matrix(0.06172839506172839,0,0,0.06172839506172839,15.987654320987653,0)" xlink:href="#bc"/><use transform="matrix(0.06172839506172839,0,0,0.06172839506172839,20.864197530864196,0)" xlink:href="#aT"/><use transform="matrix(0.06172839506172839,0,0,0.06172839506172839,27.037037037037035,0)" xlink:href="#bj"/></g><path fill="#3a414a" d="M47-170H22l-4-78h33" id="bk"/><path fill="#3a414a" d="M140-251c81 0 123 46 123 126C263-53 228-8 163 1c7 30 30 48 69 40v23c-55 16-95-15-103-61C56-3 17-48 17-125c0-80 42-126 123-126zm0 227c63 0 89-41 89-101s-29-99-89-99c-61 0-89 39-89 99S79-25 140-24" id="bl"/><path fill="#3a414a" d="M127-220V0H93v-220H8v-28h204v28h-85" id="bm"/><path fill="#3a414a" d="M33 0v-248h34V0H33" id="bn"/><g id="r"><use transform="matrix(0.06172839506172839,0,0,0.06172839506172839,0,0)" xlink:href="#bk"/><use transform="matrix(0.06172839506172839,0,0,0.06172839506172839,4.197530864197531,0)" xlink:href="#bl"/><use transform="matrix(0.06172839506172839,0,0,0.06172839506172839,21.48148148148148,0)" xlink:href="#bm"/><use transform="matrix(0.06172839506172839,0,0,0.06172839506172839,35,0)" xlink:href="#bn"/><use transform="matrix(0.06172839506172839,0,0,0.06172839506172839,41.17283950617284,0)" xlink:href="#bk"/></g><path fill="#3a414a" d="M101-234c-31-9-42 10-38 44h38v23H63V0H32v-167H5v-23h27c-7-52 17-82 69-68v24" id="bo"/><g id="s"><use transform="matrix(0.06172839506172839,0,0,0.06172839506172839,0,0)" xlink:href="#aR"/><use transform="matrix(0.06172839506172839,0,0,0.06172839506172839,12.345679012345679,0)" xlink:href="#bb"/><use transform="matrix(0.06172839506172839,0,0,0.06172839506172839,19.691358024691358,0)" xlink:href="#aU"/><use transform="matrix(0.06172839506172839,0,0,0.06172839506172839,32.03703703703704,0)" xlink:href="#bo"/><use transform="matrix(0.06172839506172839,0,0,0.06172839506172839,38.20987654320988,0)" xlink:href="#bc"/><use transform="matrix(0.06172839506172839,0,0,0.06172839506172839,43.086419753086425,0)" xlink:href="#aV"/></g><path fill="#3a414a" d="M232-93c-1 65-40 97-104 97C67 4 28-28 28-90v-158h33c8 89-33 224 67 224 102 0 64-133 71-224h33v155" id="bp"/><g id="t"><use transform="matrix(0.06790123456790124,0,0,0.06790123456790124,0,0)" xlink:href="#bp"/><use transform="matrix(0.06790123456790124,0,0,0.06790123456790124,17.58641975308642,0)" xlink:href="#bi"/><use transform="matrix(0.06790123456790124,0,0,0.06790123456790124,29.808641975308646,0)" xlink:href="#aU"/></g><g id="u"><use transform="matrix(0.06790123456790124,0,0,0.06790123456790124,0,0)" xlink:href="#bc"/><use transform="matrix(0.06790123456790124,0,0,0.06790123456790124,5.364197530864199,0)" xlink:href="#aY"/></g><path fill="#3a414a" d="M179-190L93 31C79 59 56 82 12 73V49c39 6 53-20 64-50L1-190h34L92-34l54-156h33" id="bq"/><g id="v"><use transform="matrix(0.06790123456790124,0,0,0.06790123456790124,0,0)" xlink:href="#bq"/><use transform="matrix(0.06790123456790124,0,0,0.06790123456790124,12.222222222222223,0)" xlink:href="#aQ"/><use transform="matrix(0.06790123456790124,0,0,0.06790123456790124,25.802469135802472,0)" xlink:href="#ba"/><use transform="matrix(0.06790123456790124,0,0,0.06790123456790124,46.104938271604944,0)" xlink:href="#bh"/></g><path fill="#3a414a" d="M33-154v-36h34v36H33zM33 0v-36h34V0H33" id="br"/><g id="w"><use transform="matrix(0.06790123456790124,0,0,0.06790123456790124,0,0)" xlink:href="#bi"/><use transform="matrix(0.06790123456790124,0,0,0.06790123456790124,12.222222222222223,0)" xlink:href="#aU"/><use transform="matrix(0.06790123456790124,0,0,0.06790123456790124,25.802469135802472,0)" xlink:href="#bd"/><use transform="matrix(0.06790123456790124,0,0,0.06790123456790124,38.0246913580247,0)" xlink:href="#aT"/><use transform="matrix(0.06790123456790124,0,0,0.06790123456790124,44.814814814814824,0)" xlink:href="#bc"/><use transform="matrix(0.06790123456790124,0,0,0.06790123456790124,50.17901234567902,0)" xlink:href="#bf"/><use transform="matrix(0.06790123456790124,0,0,0.06790123456790124,63.75925925925927,0)" xlink:href="#aY"/><use transform="matrix(0.06790123456790124,0,0,0.06790123456790124,77.33950617283952,0)" xlink:href="#br"/></g><path fill="#3a414a" d="M147 0L96-86 75-71V0H25v-261h50v150l67-79h53l-66 74L201 0h-54" id="bs"/><path fill="#3a414a" d="M135-194c87-1 58 113 63 194h-50c-7-57 23-157-34-157-59 0-34 97-39 157H25l-1-190h47c2 12-1 28 3 38 12-26 28-41 61-42" id="bt"/><g id="x"><use transform="matrix(0.06790123456790124,0,0,0.06790123456790124,0,0)" xlink:href="#bs"/><use transform="matrix(0.06790123456790124,0,0,0.06790123456790124,13.580246913580249,0)" xlink:href="#bt"/><use transform="matrix(0.06790123456790124,0,0,0.06790123456790124,28.45061728395062,0)" xlink:href="#aB"/><use transform="matrix(0.06790123456790124,0,0,0.06790123456790124,35.24074074074075,0)" xlink:href="#ay"/><use transform="matrix(0.06790123456790124,0,0,0.06790123456790124,43.320987654320994,0)" xlink:href="#aN"/></g><path fill="#3a414a" d="M84 4C32 4 15-41 15-95c0-55 18-99 73-99 29 0 47 12 58 34l2-30h48l-1 265h-49V-32C136-9 114 4 84 4zm21-34c32 0 41-29 41-66 0-36-9-64-40-64-33 0-39 30-40 65 0 43 13 65 39 65" id="bu"/><path fill="#3a414a" d="M-4 44V30h207v14H-4" id="bv"/><path fill="#3a414a" d="M25-224v-37h50v37H25zM75 22c2 45-34 59-81 51V38c22 5 31-5 31-27v-201h50V22" id="bw"/><g id="y"><use transform="matrix(0.06790123456790124,0,0,0.06790123456790124,0,0)" xlink:href="#bu"/><use transform="matrix(0.06790123456790124,0,0,0.06790123456790124,14.870370370370372,0)" xlink:href="#ay"/><use transform="matrix(0.06790123456790124,0,0,0.06790123456790124,22.95061728395062,0)" xlink:href="#aB"/><use transform="matrix(0.06790123456790124,0,0,0.06790123456790124,29.740740740740744,0)" xlink:href="#aN"/><use transform="matrix(0.06790123456790124,0,0,0.06790123456790124,37.820987654320994,0)" xlink:href="#aN"/><use transform="matrix(0.06790123456790124,0,0,0.06790123456790124,45.90123456790124,0)" xlink:href="#av"/><use transform="matrix(0.06790123456790124,0,0,0.06790123456790124,55.40740740740742,0)" xlink:href="#aw"/><use transform="matrix(0.06790123456790124,0,0,0.06790123456790124,68.98765432098767,0)" xlink:href="#bt"/><use transform="matrix(0.06790123456790124,0,0,0.06790123456790124,83.85802469135804,0)" xlink:href="#aA"/><use transform="matrix(0.06790123456790124,0,0,0.06790123456790124,98.7283950617284,0)" xlink:href="#aw"/><use transform="matrix(0.06790123456790124,0,0,0.06790123456790124,112.30864197530866,0)" xlink:href="#av"/><use transform="matrix(0.06790123456790124,0,0,0.06790123456790124,121.81481481481484,0)" xlink:href="#bv"/><use transform="matrix(0.06790123456790124,0,0,0.06790123456790124,135.3950617283951,0)" xlink:href="#bu"/><use transform="matrix(0.06790123456790124,0,0,0.06790123456790124,150.26543209876547,0)" xlink:href="#ay"/><use transform="matrix(0.06790123456790124,0,0,0.06790123456790124,158.34567901234573,0)" xlink:href="#aB"/><use transform="matrix(0.06790123456790124,0,0,0.06790123456790124,165.13580246913585,0)" xlink:href="#bw"/><use transform="matrix(0.06790123456790124,0,0,0.06790123456790124,171.92592592592598,0)" xlink:href="#aF"/></g><g id="z"><use transform="matrix(0.06790123456790124,0,0,0.06790123456790124,0,0)" xlink:href="#bf"/><use transform="matrix(0.06790123456790124,0,0,0.06790123456790124,13.580246913580249,0)" xlink:href="#bb"/></g><g id="A"><use transform="matrix(0.06790123456790124,0,0,0.06790123456790124,0,0)" xlink:href="#bu"/><use transform="matrix(0.06790123456790124,0,0,0.06790123456790124,14.870370370370372,0)" xlink:href="#ay"/><use transform="matrix(0.06790123456790124,0,0,0.06790123456790124,22.95061728395062,0)" xlink:href="#aB"/><use transform="matrix(0.06790123456790124,0,0,0.06790123456790124,29.740740740740744,0)" xlink:href="#aN"/><use transform="matrix(0.06790123456790124,0,0,0.06790123456790124,37.820987654320994,0)" xlink:href="#aN"/><use transform="matrix(0.06790123456790124,0,0,0.06790123456790124,45.90123456790124,0)" xlink:href="#av"/><use transform="matrix(0.06790123456790124,0,0,0.06790123456790124,55.40740740740742,0)" xlink:href="#aw"/><use transform="matrix(0.06790123456790124,0,0,0.06790123456790124,68.98765432098767,0)" xlink:href="#bt"/><use transform="matrix(0.06790123456790124,0,0,0.06790123456790124,83.85802469135804,0)" xlink:href="#aA"/><use transform="matrix(0.06790123456790124,0,0,0.06790123456790124,98.7283950617284,0)" xlink:href="#aw"/><use transform="matrix(0.06790123456790124,0,0,0.06790123456790124,112.30864197530866,0)" xlink:href="#av"/><use transform="matrix(0.06790123456790124,0,0,0.06790123456790124,121.81481481481484,0)" xlink:href="#bv"/><use transform="matrix(0.06790123456790124,0,0,0.06790123456790124,135.3950617283951,0)" xlink:href="#az"/><use transform="matrix(0.06790123456790124,0,0,0.06790123456790124,150.26543209876547,0)" xlink:href="#aM"/><use transform="matrix(0.06790123456790124,0,0,0.06790123456790124,165.13580246913585,0)" xlink:href="#ax"/><use transform="matrix(0.06790123456790124,0,0,0.06790123456790124,178.7160493827161,0)" xlink:href="#aH"/></g><path fill="#3a414a" d="M24 0v-248h52v208h133V0H24" id="bx"/><g id="B"><use transform="matrix(0.07222222222222222,0,0,0.07222222222222222,0,0)" xlink:href="#bx"/><use transform="matrix(0.07222222222222222,0,0,0.07222222222222222,15.816666666666665,0)" xlink:href="#az"/><use transform="matrix(0.07222222222222222,0,0,0.07222222222222222,31.63333333333333,0)" xlink:href="#az"/><use transform="matrix(0.07222222222222222,0,0,0.07222222222222222,47.449999999999996,0)" xlink:href="#bs"/><use transform="matrix(0.07222222222222222,0,0,0.07222222222222222,61.89444444444444,0)" xlink:href="#aF"/></g><path fill="#3a414a" d="M195-6C206 82 75 100 31 46c-4-6-6-13-8-21l49-6c3 16 16 24 34 25 40 0 42-37 40-79-11 22-30 35-61 35-53 0-70-43-70-97 0-56 18-96 73-97 30 0 46 14 59 34l2-30h47zm-90-29c32 0 41-27 41-63 0-35-9-62-40-62-32 0-39 29-40 63 0 36 9 62 39 62" id="by"/><path fill="#3a414a" d="M110-251c83-7 118 89 53 130-17 10-36 21-38 46H78c2-56 65-53 71-103 2-21-15-35-38-34-25 1-41 14-44 38l-50-2c6-48 39-70 93-75zM77 0v-47h51V0H77" id="bz"/><g id="C"><use transform="matrix(0.07222222222222222,0,0,0.07222222222222222,0,0)" xlink:href="#by"/><use transform="matrix(0.07222222222222222,0,0,0.07222222222222222,15.816666666666665,0)" xlink:href="#az"/><use transform="matrix(0.07222222222222222,0,0,0.07222222222222222,31.63333333333333,0)" xlink:href="#az"/><use transform="matrix(0.07222222222222222,0,0,0.07222222222222222,47.449999999999996,0)" xlink:href="#az"/><use transform="matrix(0.07222222222222222,0,0,0.07222222222222222,63.26666666666666,0)" xlink:href="#aA"/><use transform="matrix(0.07222222222222222,0,0,0.07222222222222222,79.08333333333333,0)" xlink:href="#bz"/></g><path fill="#333" d="M175 0L67-191c6 58 2 128 3 191H24v-248h59L193-55c-6-58-2-129-3-193h46V0h-61" id="bA"/><path fill="#333" d="M110-194c64 0 96 36 96 99 0 64-35 99-97 99-61 0-95-36-95-99 0-62 34-99 96-99zm-1 164c35 0 45-28 45-65 0-40-10-65-43-65-34 0-45 26-45 65 0 36 10 65 43 65" id="bB"/><path fill="#333" d="M115-3C79 11 28 4 28-45v-112H4v-33h27l15-45h31v45h36v33H77v99c-1 23 16 31 38 25v30" id="bC"/><g id="D"><use transform="matrix(0.04938271604938272,0,0,0.04938271604938272,0,0)" xlink:href="#bA"/><use transform="matrix(0.04938271604938272,0,0,0.04938271604938272,12.790123456790125,0)" xlink:href="#bB"/><use transform="matrix(0.04938271604938272,0,0,0.04938271604938272,23.60493827160494,0)" xlink:href="#bC"/></g><path fill="#333" d="M123 10C108 53 80 86 19 72V37c35 8 53-11 59-39L3-190h52l48 148c12-52 28-100 44-148h51" id="bD"/><path fill="#333" d="M185-48c-13 30-37 53-82 52C43 2 14-33 14-96s30-98 90-98c62 0 83 45 84 108H66c0 31 8 55 39 56 18 0 30-7 34-22zm-45-69c5-46-57-63-70-21-2 6-4 13-4 21h74" id="bE"/><g id="E"><use transform="matrix(0.04938271604938272,0,0,0.04938271604938272,0,0)" xlink:href="#bD"/><use transform="matrix(0.04938271604938272,0,0,0.04938271604938272,9.876543209876544,0)" xlink:href="#bE"/><use transform="matrix(0.04938271604938272,0,0,0.04938271604938272,19.75308641975309,0)" xlink:href="#bC"/></g><path fill="#333" d="M146-102V0H94v-102L6-248h54l60 105 60-105h54" id="bF"/><path fill="#333" d="M137-138c1-29-70-34-71-4 15 46 118 7 119 86 1 83-164 76-172 9l43-7c4 19 20 25 44 25 33 8 57-30 24-41C81-84 22-81 20-136c-2-80 154-74 161-7" id="bG"/><g id="F"><use transform="matrix(0.04938271604938272,0,0,0.04938271604938272,0,0)" xlink:href="#bF"/><use transform="matrix(0.04938271604938272,0,0,0.04938271604938272,10.864197530864198,0)" xlink:href="#bE"/><use transform="matrix(0.04938271604938272,0,0,0.04938271604938272,20.74074074074074,0)" xlink:href="#bG"/></g><path fill="#3a414a" d="M169-182c-1-43-94-46-97-3 18 66 151 10 154 114 3 95-165 93-204 36-6-8-10-19-12-30l50-8c3 46 112 56 116 5-17-69-150-10-154-114-4-87 153-88 188-35 5 8 8 18 10 28" id="bH"/><g id="G"><use transform="matrix(0.07222222222222222,0,0,0.07222222222222222,0,0)" xlink:href="#bH"/><use transform="matrix(0.07222222222222222,0,0,0.07222222222222222,17.333333333333332,0)" xlink:href="#ay"/><use transform="matrix(0.07222222222222222,0,0,0.07222222222222222,25.927777777777774,0)" xlink:href="#az"/><use transform="matrix(0.07222222222222222,0,0,0.07222222222222222,41.74444444444444,0)" xlink:href="#av"/><use transform="matrix(0.07222222222222222,0,0,0.07222222222222222,51.85555555555555,0)" xlink:href="#aw"/></g><g id="H"><use transform="matrix(0.07222222222222222,0,0,0.07222222222222222,0,0)" xlink:href="#aC"/><use transform="matrix(0.07222222222222222,0,0,0.07222222222222222,18.705555555555552,0)" xlink:href="#aD"/><use transform="matrix(0.07222222222222222,0,0,0.07222222222222222,41.81666666666666,0)" xlink:href="#aA"/></g><g id="I"><use transform="matrix(0.07222222222222222,0,0,0.07222222222222222,0,0)" xlink:href="#bH"/><use transform="matrix(0.07222222222222222,0,0,0.07222222222222222,17.333333333333332,0)" xlink:href="#aw"/><use transform="matrix(0.07222222222222222,0,0,0.07222222222222222,31.777777777777775,0)" xlink:href="#aK"/><use transform="matrix(0.07222222222222222,0,0,0.07222222222222222,46.222222222222214,0)" xlink:href="#ay"/><use transform="matrix(0.07222222222222222,0,0,0.07222222222222222,54.816666666666656,0)" xlink:href="#aB"/><use transform="matrix(0.07222222222222222,0,0,0.07222222222222222,62.03888888888888,0)" xlink:href="#az"/><use transform="matrix(0.07222222222222222,0,0,0.07222222222222222,77.85555555555555,0)" xlink:href="#bt"/><use transform="matrix(0.07222222222222222,0,0,0.07222222222222222,93.6722222222222,0)" xlink:href="#aF"/></g><path fill="#333" d="M240-174c0 40-23 61-54 70L253 0h-59l-57-94H76V0H24v-248c93 4 217-23 216 74zM76-134c48-2 112 12 112-38 0-48-66-32-112-35v73" id="bI"/><path fill="#333" d="M220-157c-53 9-28 100-34 157h-49v-107c1-27-5-49-29-50C55-147 81-57 75 0H25l-1-190h47c2 12-1 28 3 38 10-53 101-56 108 0 13-22 24-43 59-42 82 1 51 116 57 194h-49v-107c-1-25-5-48-29-50" id="bJ"/><path fill="#333" d="M88-194c31-1 46 15 58 34l-1-101h50l1 261h-48c-2-10 0-23-3-31C134-8 116 4 84 4 32 4 16-41 15-95c0-56 19-97 73-99zm17 164c33 0 40-30 41-66 1-37-9-64-41-64s-38 30-39 65c0 43 13 65 39 65" id="bK"/><g id="J"><use transform="matrix(0.04938271604938272,0,0,0.04938271604938272,0,0)" xlink:href="#bI"/><use transform="matrix(0.04938271604938272,0,0,0.04938271604938272,12.790123456790125,0)" xlink:href="#bJ"/><use transform="matrix(0.04938271604938272,0,0,0.04938271604938272,28.592592592592595,0)" xlink:href="#bK"/></g><path fill="#333" d="M121-226c-27-7-43 5-38 36h38v33H83V0H34v-157H6v-33h28c-9-59 32-81 87-68v32" id="bL"/><path fill="#333" d="M25-224v-37h50v37H25zM25 0v-190h50V0H25" id="bM"/><path fill="#333" d="M25 0v-261h50V0H25" id="bN"/><g id="K"><use transform="matrix(0.04938271604938272,0,0,0.04938271604938272,0,0)" xlink:href="#bL"/><use transform="matrix(0.04938271604938272,0,0,0.04938271604938272,5.8765432098765435,0)" xlink:href="#bM"/><use transform="matrix(0.04938271604938272,0,0,0.04938271604938272,10.814814814814817,0)" xlink:href="#bN"/><use transform="matrix(0.04938271604938272,0,0,0.04938271604938272,15.753086419753087,0)" xlink:href="#bE"/><use transform="matrix(0.04938271604938272,0,0,0.04938271604938272,25.629629629629633,0)" xlink:href="#bG"/></g><g id="L"><use transform="matrix(0.06790123456790124,0,0,0.06790123456790124,0,0)" xlink:href="#aL"/><use transform="matrix(0.06790123456790124,0,0,0.06790123456790124,17.58641975308642,0)" xlink:href="#aF"/><use transform="matrix(0.06790123456790124,0,0,0.06790123456790124,31.16666666666667,0)" xlink:href="#aw"/></g><path fill="#3a414a" d="M67-93c0 74 22 123 53 168H70C40 30 18-18 18-93s22-123 52-168h50c-32 44-53 94-53 168" id="bO"/><path fill="#3a414a" d="M102-93c0 74-22 123-52 168H0C30 29 54-18 53-93c0-74-22-123-53-168h50c30 45 52 94 52 168" id="bP"/><g id="M"><use transform="matrix(0.06790123456790124,0,0,0.06790123456790124,0,0)" xlink:href="#aF"/><use transform="matrix(0.06790123456790124,0,0,0.06790123456790124,13.580246913580249,0)" xlink:href="#aw"/><use transform="matrix(0.06790123456790124,0,0,0.06790123456790124,27.160493827160497,0)" xlink:href="#aK"/><use transform="matrix(0.06790123456790124,0,0,0.06790123456790124,40.74074074074075,0)" xlink:href="#ay"/><use transform="matrix(0.06790123456790124,0,0,0.06790123456790124,48.820987654320994,0)" xlink:href="#aB"/><use transform="matrix(0.06790123456790124,0,0,0.06790123456790124,55.61111111111112,0)" xlink:href="#az"/><use transform="matrix(0.06790123456790124,0,0,0.06790123456790124,70.4814814814815,0)" xlink:href="#bt"/><use transform="matrix(0.06790123456790124,0,0,0.06790123456790124,85.35185185185186,0)" xlink:href="#bO"/><use transform="matrix(0.06790123456790124,0,0,0.06790123456790124,93.43209876543212,0)" xlink:href="#bP"/></g><path fill="#3a414a" d="M136-208V0H84v-208H4v-40h212v40h-80" id="bQ"/><g id="N"><use transform="matrix(0.07222222222222222,0,0,0.07222222222222222,0,0)" xlink:href="#bQ"/><use transform="matrix(0.07222222222222222,0,0,0.07222222222222222,13.866666666666665,0)" xlink:href="#aw"/><use transform="matrix(0.07222222222222222,0,0,0.07222222222222222,28.31111111111111,0)" xlink:href="#aF"/><use transform="matrix(0.07222222222222222,0,0,0.07222222222222222,42.75555555555555,0)" xlink:href="#ay"/></g><g id="O"><use transform="matrix(0.06790123456790124,0,0,0.06790123456790124,0,0)" xlink:href="#ay"/><use transform="matrix(0.06790123456790124,0,0,0.06790123456790124,8.080246913580249,0)" xlink:href="#aw"/><use transform="matrix(0.06790123456790124,0,0,0.06790123456790124,21.660493827160497,0)" xlink:href="#aF"/><use transform="matrix(0.06790123456790124,0,0,0.06790123456790124,35.24074074074075,0)" xlink:href="#ay"/><use transform="matrix(0.06790123456790124,0,0,0.06790123456790124,43.320987654320994,0)" xlink:href="#bO"/><use transform="matrix(0.06790123456790124,0,0,0.06790123456790124,51.40123456790124,0)" xlink:href="#bP"/></g><g id="P"><use transform="matrix(0.06790123456790124,0,0,0.06790123456790124,0,0)" xlink:href="#az"/><use transform="matrix(0.06790123456790124,0,0,0.06790123456790124,14.870370370370372,0)" xlink:href="#av"/></g><path fill="#3a414a" d="M165-50V0h-47v-50H5v-38l105-160h55v161h33v37h-33zm-47-37l2-116L46-87h72" id="bR"/><g id="Q"><use transform="matrix(0.06790123456790124,0,0,0.06790123456790124,0,0)" xlink:href="#ay"/><use transform="matrix(0.06790123456790124,0,0,0.06790123456790124,8.080246913580249,0)" xlink:href="#aw"/><use transform="matrix(0.06790123456790124,0,0,0.06790123456790124,21.660493827160497,0)" xlink:href="#aF"/><use transform="matrix(0.06790123456790124,0,0,0.06790123456790124,35.24074074074075,0)" xlink:href="#ay"/><use transform="matrix(0.06790123456790124,0,0,0.06790123456790124,43.320987654320994,0)" xlink:href="#bR"/><use transform="matrix(0.06790123456790124,0,0,0.06790123456790124,56.90123456790124,0)" xlink:href="#az"/><use transform="matrix(0.06790123456790124,0,0,0.06790123456790124,71.77160493827162,0)" xlink:href="#aM"/><use transform="matrix(0.06790123456790124,0,0,0.06790123456790124,86.64197530864197,0)" xlink:href="#ax"/><use transform="matrix(0.06790123456790124,0,0,0.06790123456790124,100.22222222222223,0)" xlink:href="#aH"/><use transform="matrix(0.06790123456790124,0,0,0.06790123456790124,107.01234567901236,0)" xlink:href="#bO"/><use transform="matrix(0.06790123456790124,0,0,0.06790123456790124,115.09259259259261,0)" xlink:href="#bP"/></g><path fill="#333" d="M275 0h-61l-44-196L126 0H64L0-248h53L97-49l45-199h58l43 199 44-199h52" id="bS"/><path fill="#333" d="M135-150c-39-12-60 13-60 57V0H25l-1-190h47c2 13-1 29 3 40 6-28 27-53 61-41v41" id="bT"/><g id="R"><use transform="matrix(0.07407407407407408,0,0,0.07407407407407408,0,0)" xlink:href="#bS"/><use transform="matrix(0.07407407407407408,0,0,0.07407407407407408,24.592592592592595,0)" xlink:href="#bT"/><use transform="matrix(0.07407407407407408,0,0,0.07407407407407408,34.96296296296297,0)" xlink:href="#bM"/><use transform="matrix(0.07407407407407408,0,0,0.07407407407407408,42.37037037037038,0)" xlink:href="#bC"/><use transform="matrix(0.07407407407407408,0,0,0.07407407407407408,51.1851851851852,0)" xlink:href="#bE"/></g><path fill="#333" d="M133-34C117-15 103 5 69 4 32 3 11-16 11-54c-1-60 55-63 116-61 1-26-3-47-28-47-18 1-26 9-28 27l-52-2c7-38 36-58 82-57s74 22 75 68l1 82c-1 14 12 18 25 15v27c-30 8-71 5-69-32zm-48 3c29 0 43-24 42-57-32 0-66-3-65 30 0 17 8 27 23 27" id="bU"/><path fill="#333" d="M135-194c87-1 58 113 63 194h-50c-7-57 23-157-34-157-59 0-34 97-39 157H25l-1-190h47c2 12-1 28 3 38 12-26 28-41 61-42" id="bV"/><g id="S"><use transform="matrix(0.07407407407407408,0,0,0.07407407407407408,0,0)" xlink:href="#bU"/><use transform="matrix(0.07407407407407408,0,0,0.07407407407407408,14.814814814814817,0)" xlink:href="#bV"/><use transform="matrix(0.07407407407407408,0,0,0.07407407407407408,31.03703703703704,0)" xlink:href="#bK"/></g><path fill="#333" d="M135-194c53 0 70 44 70 98 0 56-19 98-73 100-31 1-45-17-59-34 3 33 2 69 2 105H25l-1-265h48c2 10 0 23 3 31 11-24 29-35 60-35zM114-30c33 0 39-31 40-66 0-38-9-64-40-64-56 0-55 130 0 130" id="bW"/><path fill="#333" d="M190-63c-7 42-38 67-86 67-59 0-84-38-90-98-12-110 154-137 174-36l-49 2c-2-19-15-32-35-32-30 0-35 28-38 64-6 74 65 87 74 30" id="bX"/><path fill="#333" d="M147 0L96-86 75-71V0H25v-261h50v150l67-79h53l-66 74L201 0h-54" id="bY"/><path fill="#333" d="M195-6C206 82 75 100 31 46c-4-6-6-13-8-21l49-6c3 16 16 24 34 25 40 0 42-37 40-79-11 22-30 35-61 35-53 0-70-43-70-97 0-56 18-96 73-97 30 0 46 14 59 34l2-30h47zm-90-29c32 0 41-27 41-63 0-35-9-62-40-62-32 0-39 29-40 63 0 36 9 62 39 62" id="bZ"/><g id="T"><use transform="matrix(0.07407407407407408,0,0,0.07407407407407408,0,0)" xlink:href="#bW"/><use transform="matrix(0.07407407407407408,0,0,0.07407407407407408,16.222222222222225,0)" xlink:href="#bU"/><use transform="matrix(0.07407407407407408,0,0,0.07407407407407408,31.03703703703704,0)" xlink:href="#bX"/><use transform="matrix(0.07407407407407408,0,0,0.07407407407407408,45.851851851851855,0)" xlink:href="#bY"/><use transform="matrix(0.07407407407407408,0,0,0.07407407407407408,60.66666666666667,0)" xlink:href="#bU"/><use transform="matrix(0.07407407407407408,0,0,0.07407407407407408,75.4814814814815,0)" xlink:href="#bZ"/><use transform="matrix(0.07407407407407408,0,0,0.07407407407407408,91.70370370370371,0)" xlink:href="#bE"/></g><path fill="#333" d="M140-251c80 0 125 45 125 126 0 70-33 111-92 124 6 28 34 38 68 31l-1 36C177 83 129 55 120 2 51-6 15-50 15-125c0-81 44-126 125-126zm-1 214c52 0 73-35 73-88 0-50-21-86-72-86-52 0-73 35-73 86s22 88 72 88" id="ca"/><path fill="#333" d="M136-208V0H84v-208H4v-40h212v40h-80" id="cb"/><path fill="#333" d="M24 0v-248h52V0H24" id="cc"/><g id="U"><use transform="matrix(0.07407407407407408,0,0,0.07407407407407408,0,0)" xlink:href="#ca"/><use transform="matrix(0.07407407407407408,0,0,0.07407407407407408,20.740740740740744,0)" xlink:href="#cb"/><use transform="matrix(0.07407407407407408,0,0,0.07407407407407408,36.96296296296297,0)" xlink:href="#cc"/></g><g id="V"><use transform="matrix(0.07407407407407408,0,0,0.07407407407407408,0,0)" xlink:href="#bL"/><use transform="matrix(0.07407407407407408,0,0,0.07407407407407408,8.814814814814817,0)" xlink:href="#bM"/><use transform="matrix(0.07407407407407408,0,0,0.07407407407407408,16.222222222222225,0)" xlink:href="#bN"/><use transform="matrix(0.07407407407407408,0,0,0.07407407407407408,23.629629629629633,0)" xlink:href="#bE"/><use transform="matrix(0.07407407407407408,0,0,0.07407407407407408,38.44444444444445,0)" xlink:href="#bG"/></g><g id="W"><use transform="matrix(0.06790123456790124,0,0,0.06790123456790124,0,0)" xlink:href="#aL"/><use transform="matrix(0.06790123456790124,0,0,0.06790123456790124,17.58641975308642,0)" xlink:href="#aF"/><use transform="matrix(0.06790123456790124,0,0,0.06790123456790124,31.16666666666667,0)" xlink:href="#aw"/></g><path fill="#3a414a" d="M140-251c80 0 125 45 125 126 0 70-33 111-92 124 6 28 34 38 68 31l-1 36C177 83 129 55 120 2 51-6 15-50 15-125c0-81 44-126 125-126zm-1 214c52 0 73-35 73-88 0-50-21-86-72-86-52 0-73 35-73 86s22 88 72 88" id="cd"/><g id="X"><use transform="matrix(0.06790123456790124,0,0,0.06790123456790124,0,0)" xlink:href="#aK"/><use transform="matrix(0.06790123456790124,0,0,0.06790123456790124,13.580246913580249,0)" xlink:href="#av"/><use transform="matrix(0.06790123456790124,0,0,0.06790123456790124,23.086419753086425,0)" xlink:href="#aw"/><use transform="matrix(0.06790123456790124,0,0,0.06790123456790124,36.66666666666667,0)" xlink:href="#ax"/><use transform="matrix(0.06790123456790124,0,0,0.06790123456790124,50.24691358024692,0)" xlink:href="#ay"/><use transform="matrix(0.06790123456790124,0,0,0.06790123456790124,58.32716049382716,0)" xlink:href="#aw"/><use transform="matrix(0.06790123456790124,0,0,0.06790123456790124,71.90740740740742,0)" xlink:href="#cd"/><use transform="matrix(0.06790123456790124,0,0,0.06790123456790124,90.91975308641979,0)" xlink:href="#ay"/><use transform="matrix(0.06790123456790124,0,0,0.06790123456790124,99.00000000000003,0)" xlink:href="#aB"/><use transform="matrix(0.06790123456790124,0,0,0.06790123456790124,105.79012345679016,0)" xlink:href="#bQ"/><use transform="matrix(0.06790123456790124,0,0,0.06790123456790124,118.8271604938272,0)" xlink:href="#aw"/><use transform="matrix(0.06790123456790124,0,0,0.06790123456790124,132.40740740740745,0)" xlink:href="#aF"/><use transform="matrix(0.06790123456790124,0,0,0.06790123456790124,145.9876543209877,0)" xlink:href="#ay"/><use transform="matrix(0.06790123456790124,0,0,0.06790123456790124,154.06790123456796,0)" xlink:href="#bO"/><use transform="matrix(0.06790123456790124,0,0,0.06790123456790124,162.1481481481482,0)" xlink:href="#bP"/></g><g id="Y"><use transform="matrix(0.07222222222222222,0,0,0.07222222222222222,0,0)" xlink:href="#aL"/><use transform="matrix(0.07222222222222222,0,0,0.07222222222222222,18.705555555555552,0)" xlink:href="#aM"/><use transform="matrix(0.07222222222222222,0,0,0.07222222222222222,34.52222222222222,0)" xlink:href="#aH"/><use transform="matrix(0.07222222222222222,0,0,0.07222222222222222,41.74444444444444,0)" xlink:href="#az"/><use transform="matrix(0.07222222222222222,0,0,0.07222222222222222,57.5611111111111,0)" xlink:href="#ax"/><use transform="matrix(0.07222222222222222,0,0,0.07222222222222222,72.00555555555555,0)" xlink:href="#aA"/></g><g id="Z"><use transform="matrix(0.07222222222222222,0,0,0.07222222222222222,0,0)" xlink:href="#ay"/><use transform="matrix(0.07222222222222222,0,0,0.07222222222222222,8.594444444444443,0)" xlink:href="#az"/></g><path fill="#3a414a" d="M230 0l2-204L168 0h-37L68-204 70 0H24v-248h70l56 185 57-185h69V0h-46" id="ce"/><g id="aa"><use transform="matrix(0.07222222222222222,0,0,0.07222222222222222,0,0)" xlink:href="#bx"/><use transform="matrix(0.07222222222222222,0,0,0.07222222222222222,15.816666666666665,0)" xlink:href="#ce"/><use transform="matrix(0.07222222222222222,0,0,0.07222222222222222,37.411111111111104,0)" xlink:href="#bH"/></g><path fill="#3a414a" d="M182-182c0 78-84 86-111 141h115V0H12c-6-101 99-100 120-180 1-22-12-31-33-32-23 0-32 14-35 34l-49-3c5-45 32-70 84-70 51 0 83 22 83 69" id="cf"/><g id="ab"><use transform="matrix(0.06790123456790124,0,0,0.06790123456790124,0,0)" xlink:href="#aG"/><use transform="matrix(0.06790123456790124,0,0,0.06790123456790124,14.870370370370372,0)" xlink:href="#aM"/><use transform="matrix(0.06790123456790124,0,0,0.06790123456790124,29.740740740740744,0)" xlink:href="#aH"/><use transform="matrix(0.06790123456790124,0,0,0.06790123456790124,36.53086419753087,0)" xlink:href="#az"/><use transform="matrix(0.06790123456790124,0,0,0.06790123456790124,51.40123456790124,0)" xlink:href="#ax"/><use transform="matrix(0.06790123456790124,0,0,0.06790123456790124,64.9814814814815,0)" xlink:href="#aA"/><use transform="matrix(0.06790123456790124,0,0,0.06790123456790124,79.85185185185186,0)" xlink:href="#cf"/><use transform="matrix(0.06790123456790124,0,0,0.06790123456790124,93.43209876543212,0)" xlink:href="#az"/><use transform="matrix(0.06790123456790124,0,0,0.06790123456790124,108.30246913580248,0)" xlink:href="#aM"/><use transform="matrix(0.06790123456790124,0,0,0.06790123456790124,123.17283950617285,0)" xlink:href="#ax"/><use transform="matrix(0.06790123456790124,0,0,0.06790123456790124,136.7530864197531,0)" xlink:href="#aH"/><use transform="matrix(0.06790123456790124,0,0,0.06790123456790124,143.54320987654324,0)" xlink:href="#bO"/><use transform="matrix(0.06790123456790124,0,0,0.06790123456790124,151.62345679012347,0)" xlink:href="#bP"/></g><g id="ac"><use transform="matrix(0.07222222222222222,0,0,0.07222222222222222,0,0)" xlink:href="#bH"/><use transform="matrix(0.07222222222222222,0,0,0.07222222222222222,17.333333333333332,0)" xlink:href="#ay"/><use transform="matrix(0.07222222222222222,0,0,0.07222222222222222,25.927777777777774,0)" xlink:href="#ax"/><use transform="matrix(0.07222222222222222,0,0,0.07222222222222222,40.37222222222222,0)" xlink:href="#av"/><use transform="matrix(0.07222222222222222,0,0,0.07222222222222222,50.483333333333334,0)" xlink:href="#ay"/></g><path fill="#3a414a" d="M24 0v-248h195v40H76v63h132v40H76v65h150V0H24" id="cg"/><g id="ad"><use transform="matrix(0.07222222222222222,0,0,0.07222222222222222,0,0)" xlink:href="#cg"/><use transform="matrix(0.07222222222222222,0,0,0.07222222222222222,17.333333333333332,0)" xlink:href="#bt"/><use transform="matrix(0.07222222222222222,0,0,0.07222222222222222,33.15,0)" xlink:href="#aA"/></g><path fill="#333" d="M233-177c-1 41-23 64-60 70L243 0h-38l-65-103H63V0H30v-248c88 3 205-21 203 71zM63-129c60-2 137 13 137-47 0-61-80-42-137-45v92" id="ch"/><path fill="#333" d="M84 4C-5 8 30-112 23-190h32v120c0 31 7 50 39 49 72-2 45-101 50-169h31l1 190h-30c-1-10 1-25-2-33-11 22-28 36-60 37" id="ci"/><path fill="#333" d="M117-194c89-4 53 116 60 194h-32v-121c0-31-8-49-39-48C34-167 62-67 57 0H25l-1-190h30c1 10-1 24 2 32 11-22 29-35 61-36" id="cj"/><g id="ae"><use transform="matrix(0.07407407407407408,0,0,0.07407407407407408,0,0)" xlink:href="#ch"/><use transform="matrix(0.07407407407407408,0,0,0.07407407407407408,19.185185185185187,0)" xlink:href="#ci"/><use transform="matrix(0.07407407407407408,0,0,0.07407407407407408,34,0)" xlink:href="#cj"/></g><path fill="#333" d="M141-36C126-15 110 5 73 4 37 3 15-17 15-53c-1-64 63-63 125-63 3-35-9-54-41-54-24 1-41 7-42 31l-33-3c5-37 33-52 76-52 45 0 72 20 72 64v82c-1 20 7 32 28 27v20c-31 9-61-2-59-35zM48-53c0 20 12 33 32 33 41-3 63-29 60-74-43 2-92-5-92 41" id="ck"/><path fill="#333" d="M135-143c-3-34-86-38-87 0 15 53 115 12 119 90S17 21 10-45l28-5c4 36 97 45 98 0-10-56-113-15-118-90-4-57 82-63 122-42 12 7 21 19 24 35" id="cl"/><path fill="#333" d="M100-194c63 0 86 42 84 106H49c0 40 14 67 53 68 26 1 43-12 49-29l28 8c-11 28-37 45-77 45C44 4 14-33 15-96c1-61 26-98 85-98zm52 81c6-60-76-77-97-28-3 7-6 17-6 28h103" id="cm"/><path fill="#333" d="M210-169c-67 3-38 105-44 169h-31v-121c0-29-5-50-35-48C34-165 62-65 56 0H25l-1-190h30c1 10-1 24 2 32 10-44 99-50 107 0 11-21 27-35 58-36 85-2 47 119 55 194h-31v-121c0-29-5-49-35-48" id="cn"/><path fill="#333" d="M59-47c-2 24 18 29 38 22v24C64 9 27 4 27-40v-127H5v-23h24l9-43h21v43h35v23H59v120" id="co"/><g id="af"><use transform="matrix(0.07407407407407408,0,0,0.07407407407407408,0,0)" xlink:href="#ck"/><use transform="matrix(0.07407407407407408,0,0,0.07407407407407408,14.814814814814817,0)" xlink:href="#cl"/><use transform="matrix(0.07407407407407408,0,0,0.07407407407407408,28.148148148148152,0)" xlink:href="#cl"/><use transform="matrix(0.07407407407407408,0,0,0.07407407407407408,41.48148148148149,0)" xlink:href="#cm"/><use transform="matrix(0.07407407407407408,0,0,0.07407407407407408,56.296296296296305,0)" xlink:href="#cl"/><use transform="matrix(0.07407407407407408,0,0,0.07407407407407408,69.62962962962965,0)" xlink:href="#cl"/><use transform="matrix(0.07407407407407408,0,0,0.07407407407407408,82.96296296296299,0)" xlink:href="#cn"/><use transform="matrix(0.07407407407407408,0,0,0.07407407407407408,105.11111111111114,0)" xlink:href="#cm"/><use transform="matrix(0.07407407407407408,0,0,0.07407407407407408,119.92592592592595,0)" xlink:href="#cj"/><use transform="matrix(0.07407407407407408,0,0,0.07407407407407408,134.74074074074076,0)" xlink:href="#co"/></g><path fill="#333" d="M85-194c31 0 48 13 60 33l-1-100h32l1 261h-30c-2-10 0-23-3-31C134-8 116 4 85 4 32 4 16-35 15-94c0-66 23-100 70-100zm9 24c-40 0-46 34-46 75 0 40 6 74 45 74 42 0 51-32 51-76 0-42-9-74-50-73" id="cp"/><g id="ag"><use transform="matrix(0.07407407407407408,0,0,0.07407407407407408,0,0)" xlink:href="#ck"/><use transform="matrix(0.07407407407407408,0,0,0.07407407407407408,14.814814814814817,0)" xlink:href="#cj"/><use transform="matrix(0.07407407407407408,0,0,0.07407407407407408,29.629629629629633,0)" xlink:href="#cp"/></g><path fill="#333" d="M96-169c-40 0-48 33-48 73s9 75 48 75c24 0 41-14 43-38l32 2c-6 37-31 61-74 61-59 0-76-41-82-99-10-93 101-131 147-64 4 7 5 14 7 22l-32 3c-4-21-16-35-41-35" id="cq"/><path fill="#333" d="M100-194c62-1 85 37 85 99 1 63-27 99-86 99S16-35 15-95c0-66 28-99 85-99zM99-20c44 1 53-31 53-75 0-43-8-75-51-75s-53 32-53 75 10 74 51 75" id="cr"/><path fill="#333" d="M24 0v-261h32V0H24" id="cs"/><g id="ah"><use transform="matrix(0.07407407407407408,0,0,0.07407407407407408,0,0)" xlink:href="#cq"/><use transform="matrix(0.07407407407407408,0,0,0.07407407407407408,13.333333333333336,0)" xlink:href="#cr"/><use transform="matrix(0.07407407407407408,0,0,0.07407407407407408,28.148148148148152,0)" xlink:href="#cs"/><use transform="matrix(0.07407407407407408,0,0,0.07407407407407408,34.00000000000001,0)" xlink:href="#cs"/><use transform="matrix(0.07407407407407408,0,0,0.07407407407407408,39.85185185185187,0)" xlink:href="#cm"/><use transform="matrix(0.07407407407407408,0,0,0.07407407407407408,54.666666666666686,0)" xlink:href="#cq"/><use transform="matrix(0.07407407407407408,0,0,0.07407407407407408,68.00000000000001,0)" xlink:href="#co"/></g><path fill="#333" d="M24-231v-30h32v30H24zM24 0v-190h32V0H24" id="ct"/><g id="ai"><use transform="matrix(0.07407407407407408,0,0,0.07407407407407408,0,0)" xlink:href="#cq"/><use transform="matrix(0.07407407407407408,0,0,0.07407407407407408,13.333333333333336,0)" xlink:href="#ck"/><use transform="matrix(0.07407407407407408,0,0,0.07407407407407408,28.148148148148152,0)" xlink:href="#cj"/><use transform="matrix(0.07407407407407408,0,0,0.07407407407407408,42.96296296296297,0)" xlink:href="#cp"/><use transform="matrix(0.07407407407407408,0,0,0.07407407407407408,57.777777777777786,0)" xlink:href="#ct"/><use transform="matrix(0.07407407407407408,0,0,0.07407407407407408,63.62962962962964,0)" xlink:href="#cp"/><use transform="matrix(0.07407407407407408,0,0,0.07407407407407408,78.44444444444446,0)" xlink:href="#ck"/><use transform="matrix(0.07407407407407408,0,0,0.07407407407407408,93.25925925925927,0)" xlink:href="#co"/><use transform="matrix(0.07407407407407408,0,0,0.07407407407407408,100.66666666666666,0)" xlink:href="#cm"/></g><path fill="#333" d="M114-163C36-179 61-72 57 0H25l-1-190h30c1 12-1 29 2 39 6-27 23-49 58-41v29" id="cu"/><path fill="#333" d="M115-194c55 1 70 41 70 98S169 2 115 4C84 4 66-9 55-30l1 105H24l-1-265h31l2 30c10-21 28-34 59-34zm-8 174c40 0 45-34 45-75s-6-73-45-74c-42 0-51 32-51 76 0 43 10 73 51 73" id="cv"/><g id="aj"><use transform="matrix(0.07407407407407408,0,0,0.07407407407407408,0,0)" xlink:href="#cu"/><use transform="matrix(0.07407407407407408,0,0,0.07407407407407408,8.814814814814817,0)" xlink:href="#cm"/><use transform="matrix(0.07407407407407408,0,0,0.07407407407407408,23.629629629629633,0)" xlink:href="#cl"/><use transform="matrix(0.07407407407407408,0,0,0.07407407407407408,36.96296296296297,0)" xlink:href="#cv"/><use transform="matrix(0.07407407407407408,0,0,0.07407407407407408,51.777777777777786,0)" xlink:href="#cr"/><use transform="matrix(0.07407407407407408,0,0,0.07407407407407408,66.59259259259261,0)" xlink:href="#cj"/><use transform="matrix(0.07407407407407408,0,0,0.07407407407407408,81.40740740740742,0)" xlink:href="#cl"/><use transform="matrix(0.07407407407407408,0,0,0.07407407407407408,94.74074074074078,0)" xlink:href="#cm"/><use transform="matrix(0.07407407407407408,0,0,0.07407407407407408,109.55555555555557,0)" xlink:href="#cl"/></g><g id="ak"><use transform="matrix(0.07407407407407408,0,0,0.07407407407407408,0,0)" xlink:href="#bI"/><use transform="matrix(0.07407407407407408,0,0,0.07407407407407408,19.185185185185187,0)" xlink:href="#bE"/><use transform="matrix(0.07407407407407408,0,0,0.07407407407407408,34,0)" xlink:href="#bU"/><use transform="matrix(0.07407407407407408,0,0,0.07407407407407408,48.81481481481481,0)" xlink:href="#bK"/></g><g id="al"><use transform="matrix(0.07407407407407408,0,0,0.07407407407407408,0,0)" xlink:href="#bC"/><use transform="matrix(0.07407407407407408,0,0,0.07407407407407408,8.814814814814817,0)" xlink:href="#bE"/><use transform="matrix(0.07407407407407408,0,0,0.07407407407407408,23.629629629629633,0)" xlink:href="#bG"/><use transform="matrix(0.07407407407407408,0,0,0.07407407407407408,38.44444444444445,0)" xlink:href="#bC"/><use transform="matrix(0.07407407407407408,0,0,0.07407407407407408,47.25925925925927,0)" xlink:href="#bG"/></g><path fill="#333" d="M85 4C-2 5 27-109 22-190h50c7 57-23 150 33 157 60-5 35-97 40-157h50l1 190h-47c-2-12 1-28-3-38-12 25-28 42-61 42" id="cw"/><g id="am"><use transform="matrix(0.07407407407407408,0,0,0.07407407407407408,0,0)" xlink:href="#bT"/><use transform="matrix(0.07407407407407408,0,0,0.07407407407407408,10.370370370370372,0)" xlink:href="#bE"/><use transform="matrix(0.07407407407407408,0,0,0.07407407407407408,25.185185185185187,0)" xlink:href="#bG"/><use transform="matrix(0.07407407407407408,0,0,0.07407407407407408,40.00000000000001,0)" xlink:href="#cw"/><use transform="matrix(0.07407407407407408,0,0,0.07407407407407408,56.22222222222223,0)" xlink:href="#bN"/><use transform="matrix(0.07407407407407408,0,0,0.07407407407407408,63.629629629629626,0)" xlink:href="#bC"/><use transform="matrix(0.07407407407407408,0,0,0.07407407407407408,72.44444444444446,0)" xlink:href="#bG"/></g><g id="an"><use transform="matrix(0.07407407407407408,0,0,0.07407407407407408,0,0)" xlink:href="#bL"/><use transform="matrix(0.07407407407407408,0,0,0.07407407407407408,8.814814814814817,0)" xlink:href="#bT"/><use transform="matrix(0.07407407407407408,0,0,0.07407407407407408,19.18518518518519,0)" xlink:href="#bB"/><use transform="matrix(0.07407407407407408,0,0,0.07407407407407408,35.40740740740742,0)" xlink:href="#bJ"/></g><path fill="#e6edf3" d="M59-47c-2 24 18 29 38 22v24C64 9 27 4 27-40v-127H5v-23h24l9-43h21v43h35v23H59v120" id="cx"/><g id="ao"><use transform="matrix(0.07407407407407408,0,0,0.07407407407407408,0,0)" xlink:href="#bT"/><use transform="matrix(0.07407407407407408,0,0,0.07407407407407408,10.370370370370372,0)" xlink:href="#bE"/><use transform="matrix(0.07407407407407408,0,0,0.07407407407407408,25.185185185185187,0)" xlink:href="#bW"/><use transform="matrix(0.07407407407407408,0,0,0.07407407407407408,41.40740740740742,0)" xlink:href="#bB"/><use transform="matrix(0.07407407407407408,0,0,0.07407407407407408,57.62962962962965,0)" xlink:href="#bT"/><use transform="matrix(0.07407407407407408,0,0,0.07407407407407408,68.00000000000001,0)" xlink:href="#bC"/><use transform="matrix(0.05185185185185186,0,0,0.05185185185185186,76.81481481481484,0)" xlink:href="#cx"/></g><path fill="#3a414a" d="M144 0l-44-69L55 0H2l70-98-66-92h53l41 62 40-62h54l-67 91 71 99h-54" id="cy"/><g id="ap"><use transform="matrix(0.06790123456790124,0,0,0.06790123456790124,0,0)" xlink:href="#aw"/><use transform="matrix(0.06790123456790124,0,0,0.06790123456790124,13.580246913580249,0)" xlink:href="#cy"/><use transform="matrix(0.06790123456790124,0,0,0.06790123456790124,27.160493827160497,0)" xlink:href="#ay"/><use transform="matrix(0.06790123456790124,0,0,0.06790123456790124,35.24074074074075,0)" xlink:href="#av"/><use transform="matrix(0.06790123456790124,0,0,0.06790123456790124,44.746913580246925,0)" xlink:href="#ax"/><use transform="matrix(0.06790123456790124,0,0,0.06790123456790124,58.32716049382717,0)" xlink:href="#aK"/><use transform="matrix(0.06790123456790124,0,0,0.06790123456790124,71.90740740740742,0)" xlink:href="#ay"/><use transform="matrix(0.06790123456790124,0,0,0.06790123456790124,79.98765432098767,0)" xlink:href="#bv"/><use transform="matrix(0.06790123456790124,0,0,0.06790123456790124,93.56790123456793,0)" xlink:href="#av"/><use transform="matrix(0.06790123456790124,0,0,0.06790123456790124,103.0740740740741,0)" xlink:href="#aw"/><use transform="matrix(0.06790123456790124,0,0,0.06790123456790124,116.65432098765436,0)" xlink:href="#aF"/><use transform="matrix(0.06790123456790124,0,0,0.06790123456790124,130.2345679012346,0)" xlink:href="#aG"/><use transform="matrix(0.06790123456790124,0,0,0.06790123456790124,145.104938271605,0)" xlink:href="#aH"/><use transform="matrix(0.06790123456790124,0,0,0.06790123456790124,151.89506172839512,0)" xlink:href="#ay"/><use transform="matrix(0.06790123456790124,0,0,0.06790123456790124,159.97530864197537,0)" xlink:href="#aF"/><use transform="matrix(0.06790123456790124,0,0,0.06790123456790124,173.55555555555566,0)" xlink:href="#bO"/><use transform="matrix(0.06790123456790124,0,0,0.06790123456790124,181.63580246913588,0)" xlink:href="#bP"/></g><path fill="#979ea8" d="M23 0v-37h61v-169l-59 37v-38l62-41h46v211h57V0H23" id="cz"/><use transform="matrix(0.3703703703703704,0,0,0.3703703703703704,0,0)" xlink:href="#cz" id="aq"/><path fill="#979ea8" d="M165-50V0h-47v-50H5v-38l105-160h55v161h33v37h-33zm-47-37l2-116L46-87h72" id="cA"/><use transform="matrix(0.3703703703703704,0,0,0.3703703703703704,0,0)" xlink:href="#cA" id="ar"/><path fill="#979ea8" d="M128-127c34 4 56 21 59 58 7 91-148 94-172 28-4-9-6-17-7-26l51-5c1 24 16 35 40 36 23 0 39-12 38-36-1-31-31-36-65-34v-40c32 2 59-3 59-33 0-20-13-33-34-33s-33 13-35 32l-50-3c6-44 37-68 86-68 50 0 83 20 83 66 0 35-22 52-53 58" id="cB"/><use transform="matrix(0.3703703703703704,0,0,0.3703703703703704,0,0)" xlink:href="#cB" id="as"/><path fill="#979ea8" d="M182-182c0 78-84 86-111 141h115V0H12c-6-101 99-100 120-180 1-22-12-31-33-32-23 0-32 14-35 34l-49-3c5-45 32-70 84-70 51 0 83 22 83 69" id="cC"/><use transform="matrix(0.3703703703703704,0,0,0.3703703703703704,0,0)" xlink:href="#cC" id="at"/></defs></g></svg>